<svg xmlns="http://www.w3.org/2000/svg" viewBox="0 0 50 45" width="50" height="45">
	<style>
		tspan { white-space:pre }
		.shp0 { fill: #68b0c9 } 
	</style>
	<g id="5">
		<g id="текст">
			<path id="иконка" fill-rule="evenodd" class="shp0" d="M2 41C1.49 39.78 3 38 3 38L21 5C21 5 23.11 2.02 25 2C26.89 1.98 29 5 29 5L47.21 37.55C47.21 37.55 48.55 39.63 48 41C47.45 42.35 45 43 45 43L5 43C5 43 2.94 43.22 2 41ZM22 35C22 36.66 23.34 38 25 38C26.66 38 28 36.66 28 35C28 33.34 26.66 32 25 32C23.34 32 22 33.34 22 35ZM25 30C26.09 29.96 26.95 28.89 27 28C27.05 27.11 28 15 28 15C28 15 27.32 12.06 25 12C22.68 11.94 22 15 22 15L23 28C23 28 23.91 30.04 25 30Z" />
		</g>
	</g>
</svg>