<svg width="26" height="26" fill="none" xmlns="http://www.w3.org/2000/svg"><path d="M18.135.315H8.76A7.813 7.813 0 00.948 8.127v9.375a7.813 7.813 0 007.812 7.813h9.375a7.813 7.813 0 007.813-7.813V8.127A7.813 7.813 0 0018.135.315zm5.469 17.187a5.475 5.475 0 01-5.469 5.47H8.76a5.475 5.475 0 01-5.468-5.47V8.127A5.475 5.475 0 018.76 2.66h9.375a5.475 5.475 0 015.469 5.468v9.375z" fill="url(#paint0_linear)"/><path d="M13.448 6.565a6.25 6.25 0 100 12.5 6.25 6.25 0 000-12.5zm0 10.156a3.912 3.912 0 01-3.907-3.906 3.91 3.91 0 013.907-3.906 3.91 3.91 0 013.906 3.906 3.912 3.912 0 01-3.906 3.906z" fill="url(#paint1_linear)"/><path d="M20.167 6.929a.833.833 0 100-1.666.833.833 0 000 1.666z" fill="url(#paint2_linear)"/><defs><linearGradient id="paint0_linear" x1="3.236" y1="23.026" x2="23.659" y2="2.603" gradientUnits="userSpaceOnUse"><stop stop-color="#FFC107"/><stop offset=".507" stop-color="#F44336"/><stop offset=".99" stop-color="#9C27B0"/></linearGradient><linearGradient id="paint1_linear" x1="9.028" y1="17.234" x2="17.867" y2="8.396" gradientUnits="userSpaceOnUse"><stop stop-color="#FFC107"/><stop offset=".507" stop-color="#F44336"/><stop offset=".99" stop-color="#9C27B0"/></linearGradient><linearGradient id="paint2_linear" x1="19.578" y1="6.685" x2="20.755" y2="5.507" gradientUnits="userSpaceOnUse"><stop stop-color="#FFC107"/><stop offset=".507" stop-color="#F44336"/><stop offset=".99" stop-color="#9C27B0"/></linearGradient></defs></svg>