<svg xmlns="http://www.w3.org/2000/svg" viewBox="0 0 27 35" width="27" height="35">
	<style>
		tspan { white-space:pre }
		.shp0 { fill: #67afc9 } 
	</style>
	<g id="9">
		<g id="текст">
			<path id="icon" fill-rule="evenodd" class="shp0" d="M14 2C20.63 2 26 7.37 26 14C26 20.63 14 34 14 34C14 34 2 20.63 2 14C2 7.37 7.37 2 14 2ZM4 14.5C4 20.3 14 31 14 31C14 31 24 20.3 24 14.5C24 8.7 19.52 4 14 4C8.48 4 4 8.7 4 14.5ZM14 7C17.87 7 21 10.13 21 14C21 17.87 17.87 21 14 21C10.13 21 7 17.87 7 14C7 10.13 10.13 7 14 7ZM9 14C9 16.76 11.24 19 14 19C16.76 19 19 16.76 19 14C19 11.24 16.76 9 14 9C11.24 9 9 11.24 9 14Z" />
		</g>
	</g>
</svg>