<svg xmlns="http://www.w3.org/2000/svg" viewBox="0 0 512.171 512.171" width="512" height="512"><path d="M474.495 217.038L263.232 5.67a10.545 10.545 0 00-7.476-3.084c-2.808 0-5.49 1.12-7.475 3.105L37.65 217.038c-3.02 3.02-3.908 7.56-2.281 11.51a10.562 10.562 0 009.756 6.505h116.148v263.974c0 5.828 4.731 10.559 10.56 10.559h168.943c5.829 0 10.56-4.731 10.56-10.56V235.053H467.04c4.265 0 8.11-2.577 9.756-6.526 1.647-3.949.718-8.467-2.302-11.488z" data-original="#000000" class="active-path" data-old_color="#000000" fill="#FFF"/></svg>