<svg xmlns="http://www.w3.org/2000/svg" viewBox="0 0 84 44" width="84" height="44">
	<style>
		tspan { white-space:pre }
		.shp0 { fill: #5ea5bd } 
	</style>
	<g id="8">
		<g id="2">
			<g id="1">
				<path id="1" fill-rule="evenodd" class="shp0" d="M5.24 35.3C5.86 35.31 6.44 35.48 6.95 35.78L13.81 33.16L14.52 35.03L8.37 37.38C8.57 37.83 8.68 38.34 8.67 38.86C8.63 40.8 7.04 42.33 5.1 42.3C3.17 42.26 1.64 40.66 1.67 38.73C1.71 36.8 3.31 35.26 5.24 35.3ZM3.67 38.77C3.66 39.6 4.31 40.28 5.14 40.3C5.97 40.31 6.66 39.65 6.67 38.83C6.69 38 6.03 37.31 5.2 37.3C4.37 37.28 3.69 37.94 3.67 38.77ZM78.9 1.7C80.83 1.74 82.36 3.34 82.33 5.27C82.29 7.2 80.69 8.74 78.76 8.7C77.41 8.68 76.25 7.89 75.69 6.75L69.92 8.96L69.21 7.09L75.36 4.74C75.59 3 77.1 1.67 78.9 1.7ZM77.33 5.17C77.31 6 77.97 6.69 78.8 6.7C79.63 6.72 80.31 6.06 80.33 5.23C80.34 4.4 79.69 3.72 78.86 3.7C78.03 3.69 77.34 4.34 77.33 5.17ZM15.74 31.07L22.9 28.33L23.62 30.2L16.45 32.94L15.74 31.07ZM25.83 26.26L33 23.53L33.71 25.4L26.54 28.13L25.83 26.26ZM35.93 21.45L43.09 18.72L43.8 20.59L36.64 23.32L35.93 21.45ZM47.02 16.67L54.19 13.93L54.9 15.8L47.73 18.53L47.02 16.67ZM58.11 11.88L65.28 9.14L65.99 11.01L58.83 13.75L58.11 11.88Z" />
			</g>
		</g>
	</g>
</svg>