<svg xmlns="http://www.w3.org/2000/svg" viewBox="0 0 85 44" width="85" height="44">
	<style>
		tspan { white-space:pre }
		.shp0 { fill: #939393 } 
	</style>
	<g id="8">
		<g id="1">
			<g id="1">
				<path id="arrow1" fill-rule="evenodd" class="shp0" d="M83.02 39.02C83.05 40.96 81.51 42.55 79.57 42.59C77.63 42.62 76.02 41.09 75.98 39.16C75.97 38.63 76.08 38.12 76.28 37.67L70.1 35.32L70.82 33.46L77.72 36.07C78.22 35.78 78.81 35.6 79.43 35.59C81.37 35.56 82.98 37.09 83.02 39.02ZM79.47 37.59C78.64 37.61 77.98 38.29 77.99 39.12C78.01 39.95 78.7 40.61 79.53 40.59C80.36 40.57 81.02 39.89 81.01 39.06C80.99 38.23 80.3 37.58 79.47 37.59ZM5.56 9.01C3.62 9.05 2.02 7.51 1.98 5.58C1.94 3.65 3.49 2.05 5.43 2.02C7.24 1.98 8.75 3.31 8.98 5.05L15.16 7.4L14.45 9.27L8.65 7.06C8.09 8.2 6.92 8.98 5.56 9.01ZM5.47 4.01C4.64 4.03 3.97 4.71 3.99 5.54C4.01 6.37 4.69 7.03 5.53 7.01C6.36 7 7.02 6.31 7 5.48C6.99 4.66 6.3 4 5.47 4.01ZM68.17 33.23L60.97 30.5L61.68 28.63L68.88 31.37L68.17 33.23ZM58.03 28.43L50.83 25.7L51.54 23.83L58.74 26.56L58.03 28.43ZM47.88 23.62L40.68 20.89L41.4 19.02L48.6 21.76L47.88 23.62ZM36.74 18.84L29.54 16.1L30.26 14.24L37.46 16.97L36.74 18.84ZM25.59 14.05L18.39 11.32L19.11 9.45L26.31 12.18L25.59 14.05Z" />
			</g>
		</g>
	</g>
</svg>