<svg width="23" height="23" viewBox="0 0 23 23" fill="none" xmlns="http://www.w3.org/2000/svg">
<path d="M22.0177 0.0759151L0.372921 10.9432C0.154511 11.0529 0.012603 11.2722 0.00209125 11.5163C-0.00842047 11.7605 0.113992 11.9912 0.32216 12.1192L5.39186 15.239V22.3262C5.39186 22.6161 5.57734 22.8735 5.8524 22.9653C6.1275 23.0571 6.43032 22.9626 6.60444 22.7308L10.0693 18.1174L17.8409 22.9C18.0296 23.0161 18.2632 23.0321 18.4659 22.9427C18.6686 22.8533 18.8144 22.67 18.8559 22.4524L22.988 0.804144C22.9894 0.796956 22.9907 0.789769 22.9918 0.782536C23.0802 0.23687 22.5078 -0.176546 22.0177 0.0759151ZM6.03034 14.0497L2.05794 11.6051L17.9114 3.6455L6.03034 14.0497ZM6.73938 20.307V15.22L17.9 5.44673C17.6549 5.77309 7.03129 19.9184 6.73938 20.307ZM17.7152 21.2404L10.8819 17.0353L21.1198 3.40368L17.7152 21.2404Z" fill="white"/>
</svg>
