<svg xmlns="http://www.w3.org/2000/svg" viewBox="0 0 83 97" width="83" height="97">
	<style>
		tspan { white-space:pre }
		.shp0 { opacity: 0.788;fill: #ecf2f7 } 
	</style>
	<g id="4">
		<g id="1">
			<path id="иконка" fill-rule="evenodd" class="shp0" d="M31 2L52 2C52 2 55.04 1.98 57 4C59.91 7 61.81 12.78 59 16C56.74 18.59 51 18 51 18L51 21C51 21 57.74 20.41 63 23C68.09 25.51 71.95 33.06 75 52C76.64 62.16 73 71 73 71C73 71 79.62 69.75 81 76C81.85 79.84 80.49 87.19 77 91C72.43 95.98 65 96 65 96L15 96C15 96 9.75 94.5 7 91C3.57 86.62 1.8 79.85 2 77C2.56 69.15 11 71 11 71C11 71 7.84 61.05 10 51C14.48 30.18 16.04 25.37 22 23C26.85 21.07 33 21 33 21L33 18C33 18 27.45 19.01 25 15C23.33 12.27 24.94 7.69 27 5C28.8 2.65 31 2 31 2ZM28 10C26.67 14.12 30 15 30 15L55 15C55 15 56.57 14.53 57 11C57.43 7.47 53 5 53 5L32 5C32 5 29.33 5.88 28 10ZM36 21L48 21L48 18L36 18L36 21ZM18 80C18 80 15.1 77.59 13 75C10.9 72.41 7.15 73.4 6 76C4.85 78.59 6.6 84.62 10 89C13.4 93.38 17 93 17 93L21 93L21 80L18 80ZM64 80L64 93L68 93C68 93 73.89 91.13 76 86C78.11 80.87 79.4 74.22 75 74C70.6 73.78 69.97 76.76 68 78C66.03 79.24 64 80 64 80ZM24 93L61 93L61 80C61 80 60.16 79.46 59 79C57.67 78.47 56 78 56 78L56 85C56 85 55.26 85.96 54 86C52.74 86.04 53 85 53 85L53 78L50 78L50 85C50 85 49.47 86 48 86C46.68 86 46 85 46 85L46 78L44 78L44 85C44 85 43.39 85.89 42 86C40.61 86.11 40 85 40 85L40 78L38 78L38 85C38 85 37.35 85.96 36 86C34.65 86.04 34 85 34 85L34 78L32 78L32 85C32 85 31.17 85.96 30 86C28.59 86.05 28 85 28 85L28 79C28 77.75 24 78.48 24 79L24 93ZM64 77C64 77 70.5 74.09 71 67C71.5 59.91 72.76 53.79 70 45C67.24 36.21 66.49 26.2 60 25C53.51 23.8 29.95 22.86 25 25C19.62 27.33 16.77 34.62 15 41C11.49 53.66 13.14 68.04 14 70C16.28 75.2 20 77 20 77C20 77 35.78 74.86 43 75C50.22 75.13 64 77 64 77ZM23 66C23.03 61.9 23.39 37.38 27 33C28.88 30.72 34.6 30.1 42 30C49.4 29.9 56.27 31.59 58 34C59.73 36.41 61 71 61 71C61 71 60.77 72.83 59 73C57.23 73.17 57 71 57 71C57 71 56.57 39.2 55 36C53.43 32.8 34.25 33.09 30 35C25.75 36.91 27 71 27 71C27 71 26.65 73.86 25 74C23.35 74.14 23 72 23 72C23 72 22.97 70.1 23 66Z" />
		</g>
	</g>
</svg>