<svg width="151" height="151" xmlns="http://www.w3.org/2000/svg" xmlns:xlink="http://www.w3.org/1999/xlink" xmlns:svgjs="http://svgjs.com/svgjs" viewBox="315 0 151 151"><svg width="151" height="151" xmlns="http://www.w3.org/2000/svg" xmlns:xlink="http://www.w3.org/1999/xlink" xmlns:svgjs="http://svgjs.com/svgjs" fill="#ffa820" x="315"><svg xmlns="http://www.w3.org/2000/svg" xmlns:xlink="http://www.w3.org/1999/xlink" width="151" height="151" viewBox="2 1 150 150"><path paint-order="stroke fill markers" fill-rule="evenodd" d="M2 1h150v150H2V1z"/></svg></svg><svg width="72" height="63" xmlns="http://www.w3.org/2000/svg" xmlns:xlink="http://www.w3.org/1999/xlink" xmlns:svgjs="http://svgjs.com/svgjs" viewBox="0 0.096 72 62.809" fill="#25254e" x="355" y="43"><svg xmlns="http://www.w3.org/2000/svg" width="72" height="63" viewBox="1.086 1.476 69.982 61.048"><path paint-order="stroke fill markers" fill-rule="evenodd" d="M69.963 55.729c-5.273-3.235-10.727-3.918-15.42-3.547A30.393 30.393 0 0 0 62.175 32c0-16.859-13.676-30.524-30.545-30.524-16.868 0-30.544 13.665-30.544 30.523 0 16.859 13.676 30.525 30.544 30.525 4.364 0 8.514-.917 12.27-2.565.124-.04 1.036-.478 1.2-.558 3.376-1.575 13.336-5.309 22.438.275a2.318 2.318 0 0 0 3.187-.762 2.314 2.314 0 0 0-.762-3.185zM44.805 20.423a6.592 6.592 0 1 1 4.077 12.537 6.59 6.59 0 1 1-4.077-12.537zM31.63 9.053a6.594 6.594 0 0 1 6.597 6.592 6.594 6.594 0 0 1-6.597 6.592 6.593 6.593 0 0 1-6.595-6.592 6.593 6.593 0 0 1 6.595-6.591zM10.145 24.655a6.596 6.596 0 0 1 8.31-4.231 6.59 6.59 0 0 1 4.235 8.305 6.596 6.596 0 0 1-8.31 4.232 6.589 6.589 0 0 1-4.235-8.306zm17.42 23.785a6.598 6.598 0 0 1-9.214 1.458 6.588 6.588 0 0 1-1.46-9.207 6.598 6.598 0 0 1 9.213-1.458 6.59 6.59 0 0 1 1.46 9.207zm4.065-13.827A2.614 2.614 0 1 1 34.245 32a2.614 2.614 0 0 1-2.615 2.613zm4.067 13.827a6.59 6.59 0 0 1 1.46-9.208 6.599 6.599 0 0 1 9.212 1.459 6.59 6.59 0 0 1-1.459 9.207 6.6 6.6 0 0 1-9.213-1.458z"/></svg></svg></svg>