<?xml version="1.0" encoding="utf-8"?>
<svg version="1.1" xmlns="http://www.w3.org/2000/svg" xmlns:xlink="http://www.w3.org/1999/xlink" viewBox="0 0 752 76">
	<svg id="icon--twitter" width="17" height="15" viewBox="0 0 26 28">
		<path d="M25.312 6.375c-0.688 1-1.547 1.891-2.531 2.609 0.016 0.219 0.016 0.438 0.016 0.656 0 6.672-5.078 14.359-14.359 14.359-2.859 0-5.516-0.828-7.75-2.266 0.406 0.047 0.797 0.063 1.219 0.063 2.359 0 4.531-0.797 6.266-2.156-2.219-0.047-4.078-1.5-4.719-3.5 0.313 0.047 0.625 0.078 0.953 0.078 0.453 0 0.906-0.063 1.328-0.172-2.312-0.469-4.047-2.5-4.047-4.953v-0.063c0.672 0.375 1.453 0.609 2.281 0.641-1.359-0.906-2.25-2.453-2.25-4.203 0-0.938 0.25-1.797 0.688-2.547 2.484 3.062 6.219 5.063 10.406 5.281-0.078-0.375-0.125-0.766-0.125-1.156 0-2.781 2.25-5.047 5.047-5.047 1.453 0 2.766 0.609 3.687 1.594 1.141-0.219 2.234-0.641 3.203-1.219-0.375 1.172-1.172 2.156-2.219 2.781 1.016-0.109 2-0.391 2.906-0.781z"></path>
	</svg>
	<svg id="icon--tag" width="14" height="17" viewBox="0 0 24 28">
		<path d="M7 7c0-1.109-0.891-2-2-2s-2 0.891-2 2 0.891 2 2 2 2-0.891 2-2zM23.672 16c0 0.531-0.219 1.047-0.578 1.406l-7.672 7.688c-0.375 0.359-0.891 0.578-1.422 0.578s-1.047-0.219-1.406-0.578l-11.172-11.188c-0.797-0.781-1.422-2.297-1.422-3.406v-6.5c0-1.094 0.906-2 2-2h6.5c1.109 0 2.625 0.625 3.422 1.422l11.172 11.156c0.359 0.375 0.578 0.891 0.578 1.422z"></path>
	</svg>
	<svg id="icon--star" width="14" height="14" viewBox="0 0 26 28">
		<path d="M26 10.109c0 0.281-0.203 0.547-0.406 0.75l-5.672 5.531 1.344 7.812c0.016 0.109 0.016 0.203 0.016 0.313 0 0.406-0.187 0.781-0.641 0.781-0.219 0-0.438-0.078-0.625-0.187l-7.016-3.687-7.016 3.687c-0.203 0.109-0.406 0.187-0.625 0.187-0.453 0-0.656-0.375-0.656-0.781 0-0.109 0.016-0.203 0.031-0.313l1.344-7.812-5.688-5.531c-0.187-0.203-0.391-0.469-0.391-0.75 0-0.469 0.484-0.656 0.875-0.719l7.844-1.141 3.516-7.109c0.141-0.297 0.406-0.641 0.766-0.641s0.625 0.344 0.766 0.641l3.516 7.109 7.844 1.141c0.375 0.063 0.875 0.25 0.875 0.719z"></path>
	</svg>
	<svg id="icon--send" width="14" height="14" viewBox="0 0 28 28">
		<path d="M27.563 0.172c0.328 0.234 0.484 0.609 0.422 1l-4 24c-0.047 0.297-0.234 0.547-0.5 0.703-0.141 0.078-0.313 0.125-0.484 0.125-0.125 0-0.25-0.031-0.375-0.078l-7.078-2.891-3.781 4.609c-0.187 0.234-0.469 0.359-0.766 0.359-0.109 0-0.234-0.016-0.344-0.063-0.391-0.141-0.656-0.516-0.656-0.938v-5.453l13.5-16.547-16.703 14.453-6.172-2.531c-0.359-0.141-0.594-0.469-0.625-0.859-0.016-0.375 0.172-0.734 0.5-0.922l26-15c0.156-0.094 0.328-0.141 0.5-0.141 0.203 0 0.406 0.063 0.562 0.172z"></path>
	</svg>
	<svg id="icon--cart" width="16" height="18" viewBox="0 0 26 28">
		<path d="M10 24c0 1.094-0.906 2-2 2s-2-0.906-2-2 0.906-2 2-2 2 0.906 2 2zM24 24c0 1.094-0.906 2-2 2s-2-0.906-2-2 0.906-2 2-2 2 0.906 2 2zM26 7v8c0 0.5-0.391 0.938-0.891 1l-16.312 1.906c0.078 0.359 0.203 0.719 0.203 1.094 0 0.359-0.219 0.688-0.375 1h14.375c0.547 0 1 0.453 1 1s-0.453 1-1 1h-16c-0.547 0-1-0.453-1-1 0-0.484 0.703-1.656 0.953-2.141l-2.766-12.859h-3.187c-0.547 0-1-0.453-1-1s0.453-1 1-1h4c1.047 0 1.078 1.25 1.234 2h18.766c0.547 0 1 0.453 1 1z"></path>
	</svg>
	<svg id="icon--arrow-up" viewBox="0 0 32 32">
		<path d="M16 1l-15 15h9v16h12v-16h9z"></path>
	</svg>
	<svg id="icon--arrow-right" width="8" height="12" viewBox="0 0 18 26">
		<path d="M17.916 13.68l-12.515 12.515c-0.422 0.422-1.096 0.422-1.518 0l-2.8-2.8c-0.422-0.422-0.422-1.096 0-1.518l8.956-8.956-8.956-8.956c-0.422-0.422-0.422-1.096 0-1.518l2.8-2.8c0.422-0.422 1.096-0.422 1.518 0l12.515 12.515c0.422 0.422 0.422 1.096 0 1.518z"></path>
	</svg>
	<svg id="icon--arrow-left" width="8" height="12" viewBox="0 0 18 26">
		<path d="M18.551 5.433l-8.567 8.567 8.567 8.567c0.403 0.403 0.403 1.049 0 1.452l-2.678 2.678c-0.403 0.403-1.049 0.403-1.452 0l-11.971-11.971c-0.403-0.403-0.403-1.049 0-1.452l11.971-11.971c0.403-0.403 1.049-0.403 1.452 0l2.678 2.678c0.403 0.403 0.403 1.049 0 1.452z"></path>
	</svg>
	<svg id="icon--search" width="15" height="15" viewBox="0 0 32 32">
		<path d="M31.008 27.231l-7.58-6.447c-0.784-0.705-1.622-1.029-2.299-0.998 1.789-2.096 2.87-4.815 2.87-7.787 0-6.627-5.373-12-12-12s-12 5.373-12 12 5.373 12 12 12c2.972 0 5.691-1.081 7.787-2.87-0.031 0.677 0.293 1.515 0.998 2.299l6.447 7.58c1.104 1.226 2.907 1.33 4.007 0.23s0.997-2.903-0.23-4.007zM12 20c-4.418 0-8-3.582-8-8s3.582-8 8-8 8 3.582 8 8-3.582 8-8 8z"></path>
	</svg>
	<svg id="icon--play" width="32" height="32" viewBox="0 0 32 32" x="48" y="44">
		<path d="M6 4l20 12-20 12z"></path>
	</svg>
	<svg id="icon--fb" width="12" height="15" viewBox="0 0 32 32">
		<path d="M19 6h5v-6h-5c-3.86 0-7 3.14-7 7v3h-4v6h4v16h6v-16h5l1-6h-6v-3c0-0.542 0.458-1 1-1z"></path>
	</svg>
	<svg id="icon--rss" width="12" height="13" viewBox="0 0 32 32">
		<path d="M4.259 23.467c-2.35 0-4.259 1.917-4.259 4.252 0 2.349 1.909 4.244 4.259 4.244 2.358 0 4.265-1.895 4.265-4.244-0-2.336-1.907-4.252-4.265-4.252zM0.005 10.873v6.133c3.993 0 7.749 1.562 10.577 4.391 2.825 2.822 4.384 6.595 4.384 10.603h6.16c-0-11.651-9.478-21.127-21.121-21.127zM0.012 0v6.136c14.243 0 25.836 11.604 25.836 25.864h6.152c0-17.64-14.352-32-31.988-32z"></path>
	</svg>
	<svg width="151" height="151" id="icon--logo" viewBox="315 0 151 151">
		<svg width="151" height="151" xmlns="http://www.w3.org/2000/svg" xmlns:xlink="http://www.w3.org/1999/xlink" xmlns:svgjs="http://svgjs.com/svgjs" fill="#ffa820" x="315">
			<svg xmlns="http://www.w3.org/2000/svg" xmlns:xlink="http://www.w3.org/1999/xlink" width="151" height="151" viewBox="2 1 150 150">
				<path paint-order="stroke fill markers" fill-rule="evenodd" d="M2 1h150v150H2V1z"/>
			</svg>
		</svg>
		<svg width="72" height="63" xmlns="http://www.w3.org/2000/svg" xmlns:xlink="http://www.w3.org/1999/xlink" xmlns:svgjs="http://svgjs.com/svgjs" viewBox="0 0.096 72 62.809" fill="#25254e" x="355" y="43">
			<svg xmlns="http://www.w3.org/2000/svg" width="72" height="63" viewBox="1.086 1.476 69.982 61.048">
				<path paint-order="stroke fill markers" fill-rule="evenodd" d="M69.963 55.729c-5.273-3.235-10.727-3.918-15.42-3.547A30.393 30.393 0 0 0 62.175 32c0-16.859-13.676-30.524-30.545-30.524-16.868 0-30.544 13.665-30.544 30.523 0 16.859 13.676 30.525 30.544 30.525 4.364 0 8.514-.917 12.27-2.565.124-.04 1.036-.478 1.2-.558 3.376-1.575 13.336-5.309 22.438.275a2.318 2.318 0 0 0 3.187-.762 2.314 2.314 0 0 0-.762-3.185zM44.805 20.423a6.592 6.592 0 1 1 4.077 12.537 6.59 6.59 0 1 1-4.077-12.537zM31.63 9.053a6.594 6.594 0 0 1 6.597 6.592 6.594 6.594 0 0 1-6.597 6.592 6.593 6.593 0 0 1-6.595-6.592 6.593 6.593 0 0 1 6.595-6.591zM10.145 24.655a6.596 6.596 0 0 1 8.31-4.231 6.59 6.59 0 0 1 4.235 8.305 6.596 6.596 0 0 1-8.31 4.232 6.589 6.589 0 0 1-4.235-8.306zm17.42 23.785a6.598 6.598 0 0 1-9.214 1.458 6.588 6.588 0 0 1-1.46-9.207 6.598 6.598 0 0 1 9.213-1.458 6.59 6.59 0 0 1 1.46 9.207zm4.065-13.827A2.614 2.614 0 1 1 34.245 32a2.614 2.614 0 0 1-2.615 2.613zm4.067 13.827a6.59 6.59 0 0 1 1.46-9.208 6.599 6.599 0 0 1 9.212 1.459 6.59 6.59 0 0 1-1.459 9.207 6.6 6.6 0 0 1-9.213-1.458z"/>
			</svg>
		</svg>
	</svg>
	<svg id="icon--close" width="11" height="13" viewBox="0 0 22 28">
		<path d="M20.281 20.656c0 0.391-0.156 0.781-0.438 1.062l-2.125 2.125c-0.281 0.281-0.672 0.438-1.062 0.438s-0.781-0.156-1.062-0.438l-4.594-4.594-4.594 4.594c-0.281 0.281-0.672 0.438-1.062 0.438s-0.781-0.156-1.062-0.438l-2.125-2.125c-0.281-0.281-0.438-0.672-0.438-1.062s0.156-0.781 0.438-1.062l4.594-4.594-4.594-4.594c-0.281-0.281-0.438-0.672-0.438-1.062s0.156-0.781 0.438-1.062l2.125-2.125c0.281-0.281 0.672-0.438 1.062-0.438s0.781 0.156 1.062 0.438l4.594 4.594 4.594-4.594c0.281-0.281 0.672-0.438 1.062-0.438s0.781 0.156 1.062 0.438l2.125 2.125c0.281 0.281 0.438 0.672 0.438 1.062s-0.156 0.781-0.438 1.062l-4.594 4.594 4.594 4.594c0.281 0.281 0.438 0.672 0.438 1.062z"></path>
	</svg>
	<svg id="icon--plus" viewBox="0 0 32 32">
		<path d="M31 12h-11v-11c0-0.552-0.448-1-1-1h-6c-0.552 0-1 0.448-1 1v11h-11c-0.552 0-1 0.448-1 1v6c0 0.552 0.448 1 1 1h11v11c0 0.552 0.448 1 1 1h6c0.552 0 1-0.448 1-1v-11h11c0.552 0 1-0.448 1-1v-6c0-0.552-0.448-1-1-1z"></path>
	</svg>
</svg>