<svg xmlns="http://www.w3.org/2000/svg" viewBox="0 0 152 80" width="152" height="80">
	<style>
		tspan { white-space:pre }
		.shp0 { fill: #68b0c9 } 
	</style>
	<g id="6">
		<g id="3">
			<path id="arrow3" fill-rule="evenodd" class="shp0" d="M10.49 75.65C9.41 77.89 6.72 78.83 4.48 77.75C2.24 76.67 1.3 73.98 2.38 71.75C3.06 70.34 4.37 69.44 5.81 69.24L5.8 69.24L11.43 58.92L14.41 60.61L9.2 70.15C10.84 71.43 11.42 73.71 10.49 75.65ZM7.52 71.45C6.27 70.85 4.78 71.37 4.18 72.61C3.58 73.86 4.1 75.35 5.35 75.95C6.59 76.55 8.09 76.03 8.68 74.78C9.28 73.54 8.76 72.05 7.52 71.45ZM149.62 17.25C148.54 19.49 145.85 20.43 143.61 19.35C141.85 18.5 140.89 16.65 141.09 14.81L133.66 11.23L134.96 8.52L142.4 12.11C143.71 10.8 145.76 10.4 147.52 11.25C149.76 12.33 150.7 15.02 149.62 17.25ZM146.65 13.05C145.41 12.45 143.91 12.97 143.32 14.22C142.72 15.46 143.24 16.95 144.48 17.55C145.73 18.15 147.22 17.63 147.82 16.39C148.42 15.14 147.9 13.65 146.65 13.05ZM130.94 6.67L130.24 9.59L121.49 7.5L122.19 4.59L130.94 6.67ZM118.83 4.17L118.13 7.08L109.38 5L110.07 2.08L118.83 4.17ZM106.08 1.55L106.03 4.55L97.03 4.41L97.08 1.41L106.08 1.55ZM92.89 2.47L93.26 5.45L84.32 6.55L83.96 3.57L92.89 2.47ZM78.36 4.02L79.05 6.94L70.28 8.99L69.6 6.07L78.36 4.02ZM64.68 8.21L65.72 11.02L57.27 14.14L56.23 11.33L64.68 8.21ZM51.89 13.86L53.56 16.34L46.1 21.37L44.42 18.88L51.89 13.86ZM40.6 21.63L42.67 23.8L36.16 30.01L34.09 27.84L40.6 21.63ZM27.51 33.12L29.92 34.91L24.55 42.14L22.14 40.35L27.51 33.12ZM18.79 45.65L21.35 47.22L16.64 54.9L14.09 53.33L18.79 45.65Z" />
		</g>
	</g>
</svg>