<svg xmlns="http://www.w3.org/2000/svg" viewBox="0 0 124 111" width="124" height="111">
	<style>
		tspan { white-space:pre }
		.shp0 { fill: #68b0c9 } 
	</style>
	<g id="6">
		<g id="1">
			<path id="arrow1" fill-rule="evenodd" class="shp0" d="M118.5 101C120.99 101 123 103.01 123 105.5C123 107.98 120.99 110 118.5 110C116.94 110 115.56 109.2 114.76 108L114.75 108.01L103.02 107.41L103.25 103.99L114.1 104.54C114.54 102.52 116.34 101 118.5 101ZM116 105.5C116 106.88 117.12 108 118.5 108C119.88 108 121 106.88 121 105.5C121 104.12 119.88 103 118.5 103C117.12 103 116 104.12 116 105.5ZM5.5 1C7.99 1 10 3.01 10 5.5C10 7.46 8.75 9.13 7 9.74L7 18L4 18L4 9.74C2.25 9.13 1 7.46 1 5.5C1 3.01 3.01 1 5.5 1ZM3 5.5C3 6.88 4.12 8 5.5 8C6.88 8 8 6.88 8 5.5C8 4.12 6.88 3 5.5 3C4.12 3 3 4.12 3 5.5ZM4.07 22.42L7.01 21.78L8.93 30.58L5.99 31.22L4.07 22.42ZM7.07 34.42L10.01 33.78L11.93 42.58L8.99 43.22L7.07 34.42ZM10.25 47.05L12.97 45.79L16.75 53.95L14.03 55.21L10.25 47.05ZM16.8 58.53L19.33 56.9L24.2 64.47L21.67 66.1L16.8 58.53ZM24.51 70.94L26.84 69.06L32.49 76.06L30.16 77.94L24.51 70.94ZM34.22 81.45L36.31 79.29L42.78 85.55L40.69 87.71L34.22 81.45ZM44.86 90.52L46.37 87.93L54.14 92.48L52.63 95.07L44.86 90.52ZM56.76 97.32L57.82 94.51L66.24 97.68L65.18 100.49L56.76 97.32ZM72.8 104.13L73.36 101.18L82.2 102.87L81.64 105.82L72.8 104.13ZM87.87 106.54L88.17 103.55L97.13 104.46L96.83 107.44L87.87 106.54Z" />
		</g>
	</g>
</svg>