<svg xmlns="http://www.w3.org/2000/svg" viewBox="0 0 147 56" width="147" height="56">
	<style>
		tspan { white-space:pre }
		.shp0 { fill: #68b0c9 } 
	</style>
	<g id="6">
		<g id="2">
			<path id="arrow2" fill-rule="evenodd" class="shp0" d="M144.46 47.81C145.84 49.61 145.5 52.19 143.7 53.58C141.9 54.96 139.32 54.63 137.95 52.82C136.75 51.26 136.85 49.11 138.07 47.66L131.66 40.1L134.02 38.03L140.95 46.2L140.94 46.21C142.26 46.12 143.6 46.68 144.46 47.81ZM139.39 51.71C140.16 52.71 141.59 52.9 142.59 52.13C143.59 51.36 143.78 49.92 143.02 48.92C142.25 47.92 140.82 47.73 139.82 48.5C138.82 49.27 138.63 50.71 139.39 51.71ZM3.69 20.9C5.11 19.81 7.01 19.79 8.43 20.71L14.41 16.11L16.07 18.28L10.09 22.89C10.61 24.5 10.1 26.33 8.68 27.43C6.88 28.81 4.31 28.47 2.93 26.67C1.55 24.87 1.89 22.29 3.69 20.9ZM4.38 25.56C5.14 26.56 6.57 26.75 7.57 25.98C8.57 25.21 8.76 23.77 8 22.77C7.23 21.77 5.8 21.58 4.8 22.35C3.8 23.12 3.61 24.56 4.38 25.56ZM25.09 10.19L26.25 12.67L18.81 16.18L17.65 13.7L25.09 10.19ZM35.44 5.67L36.6 8.16L29.17 11.66L28.01 9.18L35.44 5.67ZM46.92 2.64L47.51 5.31L39.5 7.12L38.91 4.45L46.92 2.64ZM59.03 2.11L59.25 4.84L51.07 5.53L50.85 2.8L59.03 2.11ZM72.31 1.65L72.24 4.39L64.04 4.21L64.11 1.46L72.31 1.65ZM85.22 3.85L84.81 6.56L76.69 5.36L77.1 2.64L85.22 3.85ZM97.16 8.39L96.12 10.93L88.53 7.84L89.56 5.29L97.16 8.39ZM108.04 14.47L106.59 16.8L99.63 12.47L101.08 10.13L108.04 14.47ZM121.02 23.42L119.2 25.47L113.07 20.01L114.89 17.96L121.02 23.42ZM130.61 33.52L128.61 35.41L123 29.42L124.99 27.54L130.61 33.52Z" />
		</g>
	</g>
</svg>