<svg xmlns="http://www.w3.org/2000/svg" viewBox="0 0 147 57" width="147" height="57">
	<style>
		tspan { white-space:pre }
		.shp0 { fill: #68b0c9 } 
	</style>
	<g id="6">
		<g id="4">
			<path id="arrow4" fill-rule="evenodd" class="shp0" d="M137.64 3.61C139.02 1.81 141.59 1.47 143.39 2.86C145.18 4.25 145.53 6.83 144.15 8.63C143.29 9.77 141.95 10.32 140.63 10.23L140.64 10.24L133.72 18.42L131.37 16.34L137.77 8.78C136.55 7.33 136.45 5.18 137.64 3.61ZM139.52 7.94C140.51 8.71 141.94 8.52 142.71 7.52C143.47 6.52 143.28 5.08 142.28 4.31C141.28 3.54 139.85 3.73 139.09 4.73C138.33 5.73 138.52 7.17 139.52 7.94ZM2.83 29.78C4.21 27.98 6.78 27.64 8.58 29.03C9.99 30.12 10.51 31.96 9.99 33.57L15.96 38.17L14.3 40.35L8.33 35.74C6.91 36.67 5.02 36.65 3.6 35.55C1.8 34.17 1.46 31.58 2.83 29.78ZM4.7 34.1C5.7 34.87 7.13 34.69 7.9 33.68C8.66 32.68 8.47 31.25 7.47 30.48C6.47 29.71 5.04 29.89 4.28 30.9C3.52 31.9 3.71 33.33 4.7 34.1ZM17.54 42.76L18.69 40.28L26.11 43.79L24.96 46.27L17.54 42.76ZM27.87 47.28L29.03 44.8L36.45 48.31L35.29 50.79L27.87 47.28ZM38.76 52.02L39.35 49.34L47.35 51.16L46.75 53.83L38.76 52.02ZM50.68 53.67L50.91 50.93L59.07 51.63L58.85 54.36L50.68 53.67ZM63.92 55L63.85 52.26L72.04 52.07L72.11 54.82L63.92 55ZM76.89 53.82L76.49 51.11L84.59 49.9L85 52.62L76.89 53.82ZM89.34 51.17L88.3 48.63L95.88 45.53L96.92 48.07L89.34 51.17ZM100.83 46.33L99.39 44L106.34 39.66L107.79 41.99L100.83 46.33ZM114.63 38.5L112.81 36.44L118.92 30.98L120.74 33.03L114.63 38.5ZM124.71 28.91L122.72 27.03L128.33 21.04L130.32 22.92L124.71 28.91Z" />
		</g>
	</g>
</svg>