<svg width="66" height="67" fill="none" xmlns="http://www.w3.org/2000/svg"><path d="M55.69 23.367c.496 1.28.885 2.6 1.162 3.947a.993.993 0 00.34.564.967.967 0 001.572-.584 1.004 1.004 0 00-.004-.386c-.3-1.454-.72-2.88-1.254-4.264a.983.983 0 00-.518-.545.961.961 0 00-.746-.014.982.982 0 00-.537.526 1.01 1.01 0 00-.014.758v-.002z" fill="#fff"/><path d="M65.025 30.148H62.57a30.351 30.351 0 00-6.785-17.034A29.604 29.604 0 0040.51 3.257 4.39 4.39 0 0038.97.911 4.28 4.28 0 0036.343 0h-6.684a4.278 4.278 0 00-2.63.912 4.39 4.39 0 00-1.537 2.349 29.703 29.703 0 00-15.258 9.87A30.45 30.45 0 003.43 30.148H.975a.961.961 0 00-.69.29.99.99 0 00-.285.7v5.088a1 1 0 00.285.7c.183.186.431.29.69.29h2.367v2.503c.025 6.49 2.39 12.744 6.65 17.583 4.258 4.839 10.115 7.927 16.464 8.68v.029c0 .262.102.514.285.7.183.185.43.289.69.289H38.57a.967.967 0 00.689-.29.997.997 0 00.285-.7v-.027c6.349-.754 12.206-3.842 16.465-8.681a26.788 26.788 0 006.65-17.583v-2.503h2.366a.967.967 0 00.69-.29.997.997 0 00.285-.7v-5.088a1.003 1.003 0 00-.285-.7.973.973 0 00-.69-.29zm-4.41 0H40.659V5.35c2.1.611 4.122 1.475 6.021 2.571V19.36a3.565 3.565 0 001.02 2.498 3.459 3.459 0 002.461 1.036 3.459 3.459 0 002.46-1.036 3.565 3.565 0 001.021-2.498v-5.732a28.208 28.208 0 016.975 16.521zM48.629 9.161a27.97 27.97 0 013.064 2.466v7.732c0 .412-.163.808-.45 1.1a1.522 1.522 0 01-1.082.455 1.52 1.52 0 01-1.082-.456 1.57 1.57 0 01-.45-1.099V9.161zm-18.97-7.182h2.367v17.103c0 .263.103.514.286.7a.967.967 0 001.378 0 .997.997 0 00.286-.7V1.98h2.367c.627 0 1.229.254 1.673.705.444.45.693 1.06.694 1.698v25.766H27.29V4.382c0-.637.25-1.248.694-1.698a2.352 2.352 0 011.673-.705zm-15.35 9.668a27.923 27.923 0 013.064-2.48v10.192a1.57 1.57 0 01-.45 1.099 1.524 1.524 0 01-1.082.456c-.406 0-.795-.164-1.082-.456a1.569 1.569 0 01-.45-1.099v-7.712zm-1.949 1.998v5.71a3.565 3.565 0 001.02 2.498 3.459 3.459 0 002.461 1.037 3.459 3.459 0 002.46-1.037 3.565 3.565 0 001.021-2.497V7.928a27.205 27.205 0 016.02-2.579v24.8H5.382a28.33 28.33 0 016.978-16.503zM5.291 39.72v-2.503h1.393v2.503a23.401 23.401 0 005.685 15.169 22.76 22.76 0 0014.087 7.674v1.431c-5.83-.748-11.192-3.623-15.086-8.09A24.78 24.78 0 015.29 39.72zm52.076-2.503v2.503a21.397 21.397 0 01-5.133 13.795 20.809 20.809 0 01-12.75 7.064c0-.006-.006-.01-.008-.015a.983.983 0 00-.123-.226c-.011-.016-.024-.03-.037-.045a.983.983 0 00-.167-.162l-.025-.021a.976.976 0 00-.23-.117l-.055-.018a.938.938 0 00-.27-.041H27.43a.938.938 0 00-.324.06.972.972 0 00-.229.117l-.025.022a.987.987 0 00-.167.162c-.012.015-.025.028-.036.044a.974.974 0 00-.123.226c0 .005-.006.01-.009.015a20.809 20.809 0 01-12.751-7.064A21.397 21.397 0 018.633 39.72v-2.503h48.734zM37.595 65.02h-9.19v-3.11h9.19v3.11zm23.114-25.3a24.78 24.78 0 01-6.078 16.185c-3.895 4.467-9.257 7.342-15.087 8.09v-1.432c5.453-.753 10.455-3.478 14.087-7.674a23.401 23.401 0 005.685-15.169v-2.503h1.393v2.503zm3.342-4.482H1.949v-3.11h62.102v3.11z" fill="#fff"/></svg>