<svg width="71" height="72" fill="none" xmlns="http://www.w3.org/2000/svg"><path d="M52.476 54.805a.892.892 0 00.627-.257.874.874 0 00.26-.621v-5.122a.874.874 0 00-.26-.62.891.891 0 00-1.254 0 .874.874 0 00-.26.62v5.122c0 .233.094.456.26.62a.892.892 0 00.627.258zm-5.913 0a.894.894 0 00.627-.257.873.873 0 00.26-.621v-5.122a.873.873 0 00-.26-.62.891.891 0 00-1.254 0 .874.874 0 00-.26.62v5.122c0 .233.094.456.26.62a.892.892 0 00.627.258zm11.825 0a.896.896 0 00.628-.257.874.874 0 00.26-.621v-5.122a.874.874 0 00-.26-.62.891.891 0 00-1.255 0 .874.874 0 00-.26.62v5.122c0 .233.094.456.26.62a.892.892 0 00.627.258zm5.913 0c.235 0 .46-.093.627-.257a.874.874 0 00.26-.621v-5.122a.874.874 0 00-.26-.62.891.891 0 00-1.254 0 .874.874 0 00-.26.62v5.122c0 .233.093.456.26.62a.892.892 0 00.627.258zM49.855 9.951h-.862a.892.892 0 00-.627.257.874.874 0 000 1.242.891.891 0 00.627.257h.862a.89.89 0 00.627-.257.874.874 0 000-1.242.892.892 0 00-.627-.257zm-3.511 0h-18.85a.892.892 0 00-.627.257.874.874 0 000 1.242.891.891 0 00.627.257h18.85a.89.89 0 00.627-.257.873.873 0 000-1.242.892.892 0 00-.627-.257z" fill="#fff"/><path d="M70.8 44.18c-.001-.016-.004-.031-.007-.047l-.005-.037-.013-.053-.008-.03-.017-.047-.013-.034-.018-.038c-.006-.013-.012-.027-.02-.04l-.017-.03c-.01-.015-.017-.03-.027-.044l-.018-.025-.034-.044-.026-.028-.031-.035a.912.912 0 00-.066-.058v-.002L56.933 32.643a4.012 4.012 0 001.471-.878c.42-.394.75-.874.964-1.407a.87.87 0 00-.006-.672.883.883 0 00-.485-.471.895.895 0 00-.679.006.883.883 0 00-.476.48 2.216 2.216 0 01-.822 1.015 2.275 2.275 0 01-2.857-.275 2.229 2.229 0 01-.663-1.584c0-.595.239-1.165.663-1.585.425-.42 1-.656 1.6-.656a.892.892 0 00.628-.257.874.874 0 00.26-.62v-6.714h3.58a.89.89 0 00.628-.257.874.874 0 00.26-.62v-3.475h1.862a.894.894 0 00.629-.258.877.877 0 00.258-.623l-.025-6.031a.873.873 0 00-.216-.57.89.89 0 00-.538-.294L17.4.01v.001A.913.913 0 0017.265 0H7.367a.891.891 0 00-.648.28L.238 7.165A.87.87 0 000 7.763v6.031c0 .233.093.456.26.621a.891.891 0 00.627.257h5.598l-.005 50.97a5.586 5.586 0 00-3.561 1.79 5.48 5.48 0 00-1.435 3.69c0 .233.094.456.26.62A.891.891 0 002.37 72h19.777c.235 0 .46-.093.627-.257a.873.873 0 00.26-.621 5.483 5.483 0 00-1.398-3.646 5.588 5.588 0 00-3.483-1.82l.008-50.984H50.11v3.474a.87.87 0 00.26.621.892.892 0 00.627.257h3.76v5.933a4.05 4.05 0 00-2.137 1.27 3.969 3.969 0 00-.427 4.676 4.03 4.03 0 001.873 1.628L40.385 43.588l-.002.001a.866.866 0 00-.063.058c-.013.012-.024.025-.035.038l-.024.026a.824.824 0 00-.034.044l-.018.024-.027.044-.018.03-.019.04c-.006.013-.013.025-.018.038l-.013.034-.017.047-.007.03-.014.054-.006.038-.007.046a.838.838 0 00-.004.087v14.196c0 .233.094.457.26.621a.891.891 0 00.627.258h28.972a.893.893 0 00.628-.258.874.874 0 00.26-.62V44.266a.853.853 0 00-.005-.087zM51.149 6.886h-32.99L18.155 1.9l32.994 4.985zm-34.763 0h-6.227l6.224-4.32.003 4.32zm-8.134-5.13h6.205L8.242 6.071l.01-4.315zM6.474 3.114l-.008 3.771h-3.54l3.548-3.771zm14.682 67.13H3.362c.2-.819.672-1.547 1.34-2.069a3.82 3.82 0 012.346-.805h10.423a3.82 3.82 0 012.344.806 3.756 3.756 0 011.341 2.068zm-5.897-49.127l-7.001 3.19V17.93l7 3.188zm-7-5.122v-1.323h8.13l-.001 5.026-8.13-3.703zm8.128 6.542l-.001 6.65-7.3-3.324 7.301-3.326zm-1.174 8.048l-6.956 3.168v-6.335l6.956 3.167zm1.173 1.4l-.002 6.363L9.4 35.166l6.986-3.182zm-1.196 7.752l-6.934 3.159v-6.318l6.934 3.159zm1.194 1.389l-.001 6.55L9.196 44.4l7.188-3.274zm-1.15 7.96l-6.979 3.18v-6.36l6.979 3.18zm1.149 1.409l-.002 6.667-7.317-3.332 7.319-3.335zm-1.192 8.058l-6.936 3.16v-6.32l6.936 3.16zm1.19 1.391l-.001 5.67H8.254v-1.968l8.127-3.702zm35.503-42.676v-2.596h1.774a.89.89 0 00.627-.257.874.874 0 000-1.242.892.892 0 00-.627-.257H1.774V8.641h60.18l.018 4.275H56.91a.891.891 0 00-.627.257.874.874 0 000 1.242.891.891 0 00.627.257h2.317v2.596h-7.343zm3.548 16.426L67.43 43.39H43.435l11.997-9.696zm13.6 23.891h-27.2V45.146h27.2v12.44z" fill="#fff"/></svg>