<svg width="106" height="99" fill="none" xmlns="http://www.w3.org/2000/svg"><path fill-rule="evenodd" clip-rule="evenodd" d="M63.25 3.056c-.77-.598-5.202-.456-6.256 3.722-.155.617-.132 1.165-.342 1.787-.447 1.328-2.245 3.323-3.45 1.785-.772-.988.563-3.037-1.696-4.733-.448-.336-.874-.39-1.361-.71-1.445-.955-1.453-2.246-.536-3.527.199-.278.4-.314.368-.669-.96-.515-4.802 1.484-3.41 5.945.204.654.535 1.127.733 1.808.21.721.079 1.564-.153 2.197-.265.722-.605 1.022-1.173 1.37-.568.348-1.6.563-1.731-.34-.169-1.158.854-2.958-.363-4.255-1.83-1.951-3.974-.58-5.947-1.686-.537-.301-1.018-.82-1.088-1.437-.206-1.817 1.78-2.625 1.779-3.202-1.928.35-4.639 2.002-5.492 3.739-2.182 4.442 2.491 7.698.5 11.207-.203.36-.838 1.121-1.32.48-.396-.524-.357-1.897-2.344-2.362-1.94-.454-2.487-.345-3.267-2.604-.13-.374-.082-.652-.203-.98-.283.08-.3.216-.446.517-.389.796-.599 1.439-.594 2.344.006 1.367.127 2.277.655 3.318.615 1.215 2.389 2.269 2.159 3.744-.08.514-.541.92-1.064.986-.875.11-1.149-.972-2.658-1.262-2.11-.404-4.52.938-5.517-2.343-.336-1.11-.137-2.56-.146-3.67-.717.363-1.873 2.81-2.064 3.452-.946 3.186.27 5.925 2.095 8.346.412.546.82.998 1.209 1.566 1.039 1.517.442 3.324-1.64 2.841-.725-.168-1.193-.773-1.603-1.183-1.493-1.492-1.918-1.464-4.133-1.431-.81.012-1.743.306-2.603.137-1.826-.358-2.951-2.456-3.536-4.075-.11-.304-.054-.328-.294-.412-.49.497-.613 3.398-.54 4.343.211 2.678 1.281 5.071 3.023 6.813 1.122 1.123 1.493 1.17 3.142 1.868 2.913 1.231 2.73 3.571.875 3.764-2.312.24-2.646-.506-5.326 2.148-.352.348-.958.722-1.482.981-.81.401-1.132.398-2.184.343.207.858 1.867 1.752 2.627 1.976 1.458.431 2.768-.114 4.212.157 1.378.26 3.636 2.616 2.271 3.803-.404.35-1.133.327-1.72.578-2.527 1.078-2.336 3.664-4.129 4.935-.95.674-2.223.96-3.71.847-1.235-.094-3.064-1.207-3.369-1.178-.144.743 1.597 3.115 1.972 3.497.882.9 1.994 1.764 3.407 2.154 1.065.296 1.197.346 2.44.346.9 0 1.789.02 2.602-.186 1.694-.428 2.893-1.037 4.822-.406 2.12.695 1.439 2.75.061 3-4.556.833-3.252 4.512-4.126 6.962-.383 1.074-1.153 1.677-2.091 2.124-.366.174-.8.194-.98.482.245.402 1.687.556 2.095.555 2.28-.008 4.002-.904 5.352-2.592 2.581-3.231 7.155-1.26 3.634 1.092-2.633 1.76-2.966 4.585-2.465 7.607.497 2.992.758 4.973-1.778 6.881-.243.184-.574.373-.772.558.275.295.898.226 1.274.224.49-.001 1.03.023 1.513-.001 3.626-.184 5.279-2.27 6.339-5.455.726-2.18 1.968-4.098 4.779-4.086.906.004 1.948-.102 2.398.518.611.841-.233 1.567-.69 1.802-1.232.63-2.712 1.569-1.983 3.484.676 1.775 2.914 3.018.732 6.295-.27.404-.388.514-.692.817-.133.133-.22.232-.36.355-.288.252-.292.121-.367.46 2.376.61 5.033-.513 5.905-1.918.36-.581.716-1.482.807-2.18.13-1.005-.162-2.495 1.468-3.712 1.896-1.42 4.288-.56 2.85.86a1.917 1.917 0 00-.57 1.534c.144 2.12 2.877 2.414 1.86 4.837-.101.243-.226.42-.177.668.101.511 2.162-.971 2.548-1.56 1.185-1.812-1.025-3.277 1.464-4.486.33-.16 1.237-.442 1.654-.47 2.168-.147 1.383 1.346 1.225 2.692-.434 3.718 2.462 3.71 3.191 5.4.734 1.704-.716 3.313-1.734 4.328-.194.193-.388.337-.604.506-.243.19-.452.234-.485.618.822.27 3.334-.47 4.052-.786 2.298-1.013 4.378-2.264 5.589-4.496.718-1.322.804-2.572.573-4.297-.22-1.65.166-3.062 1.148-3.746.667-.464 1.3-.485 1.7.196.375.638-.034 1.302.216 2.147.403 1.358 1.41 1.935 2.36 2.654 1.645 1.245.35 2.674.537 3.916.88.169 3.237-2.023 3.21-4.874-.013-1.34-.81-1.891-1.165-2.96-.32-.961.4-2.367 1.154-2.754 1.3-.665 1.523 1.199 1.983 1.99.922 1.587 4.2 1.508 4.847 3.421.293.87-.072 1.731-.448 2.47-.099.196-.223.277-.247.473-.047.389-.068-.337.022.184.09.517 2.384-.93 3.34-2.3 1.137-1.63 1.516-4.858.277-6.79-.876-1.367-2.376-1.462-2.376-3.412 0-2.65 1.31-2.146 2.427-.448 1.303 1.977 2.842 3.132 5.591 3.13 1.417-.003 1.79-.225 2.62-.252 2.799-.09 3.273 1.173 4.696 3.356.156.239.142.311.39.373.17-.372.142-1.753.143-2.271a8.732 8.732 0 00-.265-2.267c-.342-1.388-.877-2.566-1.565-3.508-2.477-3.39-4.633-2.503-5.846-4.317-.847-1.267-1.186-3.31.301-3.236 1.104.056 1.872 2.643 5.588 1.137.636-.258 1.406-.47 2.191-.171.6.226 1.112.58 1.587.943.317.242.968 1.136 1.318 1.14.097-1.327-.755-2.839-1.365-3.473-.92-.956-1.372-1.439-3.01-1.982-1.334-.443-2.5-.895-3.009-2-.272-.59-.445-1.327-.304-2.076.133-.707.73-1.118 1.406-.697 1.28.799.859 1.45 3.468 1.463 1.475.006 2.669-.965 3.452-1.554 2.288-1.72 4.19.754 5.1 2.613.168.345.178.713.503.756.48-1.003.242-4.087-.093-5.133-.736-2.295-2.517-3.557-4.734-3.922-1.544-.255-3.18-.155-4.343-1.38-.625-.66-.476-1.537.19-2.021.987-.718 2.817-.362 4.395-1.32 1.258-.763 1.986-1.797 2.849-2.955.841-1.13 1.874-2.03 3.244-2.549.715-.27 1.637-.38 2.524-.275.815.096 1.809.387 2.61.396-.423-2.45-5.574-5.608-9.5-5.215-1.575.157-2.82.446-4.534.405-.809-.02-1.2-.323-1.624-.748-.34-.34-.885-1.052-.542-1.811.336-.747 1.06-.338 1.829-.638 2.278-.889 1.72-2.948 4.553-2.864 1.729.051 2.849 1.35 3.503 1.484-.054-1.141-1.113-3.202-1.699-3.808-.893-.924-1.693-1.797-3.464-2.092-3.182-.53-5.727 1.717-6.737 1.258-.835-.38-.668-1.26-.1-1.72.245-.198.576-.315.913-.427.993-.329 1.752-.983 2.293-1.923 2.005-3.488-.864-7.676 3.636-10.264l1.44-.606c.098-.023.165-.017.269-.045l.287-.153c-.162-.23.012-.095-.347-.242-2.792-1.136-7.197-.521-9.515 1.206-1.404 1.046-2.611 2.386-3.844 3.623-1.398 1.404-3.104.478-2.566-.97.348-.936 1.319-1.408 1.82-3.212.732-2.633-1.26-4.938.9-7.092.121-.12.207-.19.323-.31.186-.193.195-.144.205-.48-1.69-.175-2.91.665-3.592 1.538-.757.97-1.119 2.238-1.773 3.31-.686 1.126-1.605 1.78-3.407 1.515-.724-.106-1.323-.494-1.078-1.388.123-.45.873-1.072 1.21-1.338 2.166-1.709 1.67-5.334.01-7.411-.383-.48-.798-.868-1.162-1.38C70.71 1.87 73.94.91 73.901.07c-1.196-.261-3.168.247-4.088.694-4.576 2.22-1.9 7.275-4 10.529-.564.873-1.849 2.048-3.041 1.715-1.38-.386-.4-2.453-1.004-3.832-.831-1.901-1.962-3.023.14-5.031a5.07 5.07 0 01.667-.521c.307-.207.643-.226.675-.569zm-10.942 13.92c17.435 0 31.569 14.12 31.569 31.537 0 17.416-14.134 31.536-31.57 31.536-17.434 0-31.568-14.12-31.568-31.537 0-17.416 14.134-31.535 31.569-31.535zm20.662 11.42l-6.568.006-2.133 5.005H40.321l-2.136-5.014h-6.537c5.24-5.37 12.56-8.705 20.66-8.705 8.101 0 15.421 3.337 20.662 8.707zm-41.482.16l4.688 11.106h32.226l4.726-11.105c4.976 5.179 8.035 12.21 8.035 19.956 0 15.887-12.866 28.77-28.757 28.823l6.757-15.829L65.998 45.5H38.66l6.834 16.008 6.758 15.83c-15.91-.03-28.8-12.923-28.8-28.825 0-7.745 3.059-14.777 8.035-19.956zM52.33 68l7.17-18H45l7.33 18zm-.022-52.453c18.226 0 33 14.76 33 32.966 0 18.206-14.774 32.965-33 32.965-18.225 0-33-14.759-33-32.965 0-18.207 14.775-32.966 33-32.966z" fill="#272727"/></svg>