<svg width="68" height="79" fill="none" xmlns="http://www.w3.org/2000/svg"><path d="M37.535 8.865h-3.964c-.704 0-1.277.639-1.277 1.425v5.307c0 .785.573 1.424 1.277 1.424h3.964c.704 0 1.277-.639 1.277-1.425V10.29c0-.786-.573-1.425-1.277-1.425zm-.74 5.906h-2.484v-3.656h2.484v3.656zm8.621-5.906h-3.964c-.704 0-1.277.639-1.277 1.425v5.307c0 .785.573 1.424 1.277 1.424h3.964c.704 0 1.277-.639 1.277-1.425V10.29c0-.786-.573-1.425-1.277-1.425zm-.74 5.906h-2.484v-3.656h2.484v3.656zm8.622-5.906h-3.964c-.704 0-1.277.639-1.277 1.425v5.307c0 .785.573 1.424 1.277 1.424h3.964c.704 0 1.277-.639 1.277-1.425V10.29c0-.786-.573-1.425-1.277-1.425zm-.74 5.906h-2.484v-3.656h2.484v3.656zm-15.023 7.273h-3.964c-.704 0-1.277.639-1.277 1.424v5.307c0 .786.573 1.425 1.277 1.425h3.964c.704 0 1.277-.64 1.277-1.425v-5.307c0-.785-.573-1.424-1.277-1.424zm-.74 5.906h-2.484v-3.656h2.484v3.656zm8.621-5.906h-3.964c-.704 0-1.277.639-1.277 1.424v5.307c0 .786.573 1.425 1.277 1.425h3.964c.704 0 1.277-.64 1.277-1.425v-5.307c0-.785-.573-1.424-1.277-1.424zm-.74 5.906h-2.484v-3.656h2.484v3.656zm8.622-5.906h-3.964c-.704 0-1.277.639-1.277 1.424v5.307c0 .786.573 1.425 1.277 1.425h3.964c.704 0 1.277-.64 1.277-1.425v-5.307c0-.785-.573-1.424-1.277-1.424zm-.74 5.906h-2.484v-3.656h2.484v3.656zm-15.023 7.273h-3.964c-.704 0-1.277.639-1.277 1.424v5.307c0 .786.573 1.425 1.277 1.425h3.964c.704 0 1.277-.639 1.277-1.425v-5.307c0-.785-.573-1.424-1.277-1.424zm-.74 5.906h-2.484v-3.656h2.484v3.656zm8.621-5.906h-3.964c-.704 0-1.277.639-1.277 1.424v5.307c0 .786.573 1.425 1.277 1.425h3.964c.704 0 1.277-.639 1.277-1.425v-5.307c0-.785-.573-1.424-1.277-1.424zm-.74 5.906h-2.484v-3.656h2.484v3.656zm8.622-5.906h-3.964c-.704 0-1.277.639-1.277 1.424v5.307c0 .786.573 1.425 1.277 1.425h3.964c.704 0 1.277-.639 1.277-1.425v-5.307c0-.785-.573-1.424-1.277-1.424zm-.74 5.906h-2.484v-3.656h2.484v3.656zm.74 7.273h-3.964c-.704 0-1.277.639-1.277 1.424v5.307c0 .786.573 1.425 1.277 1.425h3.964c.704 0 1.277-.639 1.277-1.425v-5.307c0-.785-.573-1.424-1.277-1.424zm-.74 5.906h-2.484v-3.656h2.484v3.656z" fill="#fff"/><path d="M66.498 53.415c-1.293-2.119-3.895-2.68-5.8-1.251l-2.772 2.07V5.839h.2c.73 0 1.325-.663 1.325-1.477V1.477C59.45.663 58.857 0 58.127 0h-6.439c-.557 0-1.008.504-1.008 1.125s.451 1.125 1.008 1.125h5.746v1.339h-28.31v-1.34h16.25c.557 0 1.008-.503 1.008-1.124C46.382.504 45.931 0 45.374 0H28.43c-.73 0-1.324.663-1.324 1.477v2.885c0 .814.594 1.477 1.324 1.477h.512v14.45h-2.07v-2.777c0-.966-.706-1.753-1.572-1.753h-7.613c-.867 0-1.572.787-1.572 1.753v2.777h-1.449c-.9 0-1.633.817-1.633 1.822v25.8c-.426-.03-.854-.046-1.283-.046h-1.59v-.585c0-2.183-1.591-3.959-3.547-3.959H3.548C1.592 43.321 0 45.097 0 47.28v16.065c0 .621.451 1.125 1.008 1.125.557 0 1.009-.504 1.009-1.125V47.28c0-.942.686-1.709 1.53-1.709h3.066c.845 0 1.532.767 1.532 1.709v25.313c0 .942-.687 1.708-1.532 1.708H3.548c-.844 0-1.531-.766-1.531-1.708v-2.208c0-.62-.452-1.125-1.009-1.125-.556 0-1.008.504-1.008 1.125v2.208c0 2.182 1.592 3.958 3.548 3.958h3.066c1.956 0 3.548-1.776 3.548-3.958v-.064l13.962 5.899a.986.986 0 00.083.03c.613.194 1.226.29 1.834.29a5.675 5.675 0 00.987-.086l20.609-3.314.015-.003c1.762-.314 3.424-1.144 4.806-2.403a.88.88 0 00.037-.035l13.32-13.367c1.57-1.555 1.864-4.188.683-6.125zM30.959 5.839h24.95v49.9l-8.389 6.265-2.813-.176-.071-.804a7.553 7.553 0 00-.543-2.218 7.14 7.14 0 00-.362-.743 6.692 6.692 0 00-1.148-1.505h2.834c.703 0 1.276-.64 1.276-1.425v-5.307c0-.785-.572-1.425-1.276-1.425h-3.964c-.704 0-1.277.64-1.277 1.425v5.282a5.681 5.681 0 00-.81-.186l-.554-.071v-5.025c0-.786-.573-1.425-1.277-1.425h-3.964c-.704 0-1.277.64-1.277 1.425v4.188l-1.335-.172V5.84zm11.233 48.469v-3.656h2.484v3.656h-2.484zm-5.397-3.657v3.657h-2.213l-.271-.035v-3.622h2.484zM18.133 18.01h6.723v2.28h-6.723v-2.28zm-3.082 4.53h13.892v3.518H17.555c-.651 0-1.182.592-1.182 1.32v3.396c0 .727.53 1.32 1.182 1.32h11.388v3.164H17.555c-.651 0-1.182.592-1.182 1.32v3.396c0 .727.53 1.319 1.182 1.319h11.388v3.165H17.555c-.651 0-1.182.591-1.182 1.319v2.686a19.176 19.176 0 00-1.047-.24c-.092-.018-.183-.037-.275-.054v-25.63zm13.892 5.768v1.535H18.39v-1.535h10.553zm0 9.2v1.535H18.39v-1.535h10.553zM18.39 48.242v-1.535h10.553v1.535H18.39zm10.553 2.25v3.091l-.31-.04a16.954 16.954 0 01-5.922-2.136 18.133 18.133 0 01-.725-.447 20.04 20.04 0 00-.648-.404l-.106-.064h7.71zm35.529 7.37L51.165 71.216c-1.102.997-2.423 1.656-3.824 1.907l-20.609 3.314-.027.005a4.07 4.07 0 01-1.91-.136l-14.634-6.182V50.115h1.59a16.352 16.352 0 012.62.214l.063.01a16.814 16.814 0 011.434.302l.167.045c.147.04.293.08.438.124l.079.023a17.136 17.136 0 013.808 1.691l.122.073c.16.097.32.197.478.3l.007.005c.429.28.864.54 1.307.783a18.667 18.667 0 006.114 2.092l1.448.186 1.179.152 2.719.349.674.087 4.713.605c1.878.303 3.32 1.983 3.508 4.091l.035.392-18.9-2.055c-.556-.06-1.047.392-1.101 1.01-.054.62.351 1.17.905 1.23l20.036 2.178a.88.88 0 00.129.019l4.01.251a.893.893 0 00.057.002c.02 0 .04-.004.06-.005l.068-.006c.029-.004.057-.011.086-.018.022-.005.045-.01.066-.017.03-.01.06-.023.09-.036.018-.008.037-.015.055-.024a.99.99 0 00.136-.085l9.117-6.807 4.343-3.244c.99-.74 2.34-.45 3.01.649.612 1.004.46 2.37-.36 3.182z" fill="#fff"/></svg>