<svg width="288" height="98" fill="none" xmlns="http://www.w3.org/2000/svg"><path fill-rule="evenodd" clip-rule="evenodd" d="M122.843 61.49V42.014c0-4.886.452-8.892 1.364-12.037.903-3.135 2.564-5.553 4.974-7.253 2.42-1.69 5.825-2.54 10.204-2.54 2.011 0 3.805.265 5.405.798 1.59.523 2.943 1.26 4.04 2.193 1.108.932 1.949 1.997 2.513 3.186a8.658 8.658 0 01.851 3.729c0 3.032-.964 5.255-2.881 6.638-1.918 1.394-4.164 2.09-6.728 2.09-1.764 0-3.63-.655-5.589-1.977l-2.708 3.391c1.446 1.158 2.841 2.09 4.195 2.776a17.372 17.372 0 004.174 1.527c1.425.317 2.964.48 4.625.48h.554c1.282 0 2.235.144 2.861.442.626.297 1.036.737 1.221 1.332.184.604.276 1.444.276 2.53v9.773c0 .216-.01.451-.03.687-.021.246-.031.563-.031.973-.021.84-.103 1.475-.257 1.906-.143.43-.553.778-1.209 1.034-.667.256-1.755.38-3.262.38h-29.669v-2.583h5.107zm9.538 0h7.558c1.026 0 1.733-.257 2.123-.779.4-.523.595-1.63.595-3.33v-6.945c0-.922-.144-1.599-.42-2.019-.278-.42-1.026-.952-2.236-1.618-2.154-1.178-3.713-2.09-4.687-2.746-.964-.645-1.938-1.536-2.933-2.653v20.09zm0-22.252l3.559-4.856c1.261.738 2.215 1.107 2.84 1.107.872 0 1.733-.482 2.595-1.455.851-.973 1.282-2.602 1.282-4.908 0-2.181-.462-3.79-1.385-4.814-.923-1.035-2.081-1.547-3.487-1.547-2.173 0-3.609 1.117-4.317 3.36-.718 2.244-1.097 5.225-1.159 8.944 0 .542.01 1.219.031 2.028.031.81.041 1.526.041 2.141zm52.056-.973l1.611 1.905c-2.216 1.434-4.123 2.152-5.733 2.152-1.713 0-3.487-1.066-5.343-3.196-.698-.79-1.262-1.373-1.672-1.742-.42-.358-.933-.543-1.528-.543-1.897 0-3.138 1.199-3.723 3.596-.594 2.407-.933 5.41-1.026 9.005.985-.758 2.329-1.537 4.042-2.315 1.712-.79 3.097-1.178 4.143-1.178a6.79 6.79 0 012.215.358c.789.287 1.599.686 2.42 1.198.831.513 1.436.769 1.825.769.841 0 1.621-.328 2.349-.974l1.231 1.65a21.968 21.968 0 01-3.395 3.135c-.666.492-1.189.84-1.59 1.045-.389.205-.933.307-1.61.307-.892 0-1.856-.348-2.882-1.044-1.045-.708-1.876-1.2-2.502-1.476-.615-.287-1.302-.42-2.051-.42-1.405 0-2.779.595-4.133 1.783 0 3.176.769 5.819 2.308 7.908 1.538 2.1 3.62 3.145 6.256 3.145 2.317 0 4.963-1.065 7.927-3.196l1.179 1.291c-2.933 3.155-6.625 4.733-11.075 4.733-2.134 0-4.328-.41-6.585-1.219-2.245-.82-4.214-2.315-5.896-4.487-1.692-2.182-2.615-5.133-2.78-8.851v-2.1c.114-2.08.657-4.273 1.6-6.557.954-2.295 2.41-4.252 4.359-5.88 1.959-1.63 4.348-2.439 7.199-2.439 2.882 0 5.959 1.024 9.24 3.084.954.686 1.713 1.035 2.267 1.035.533 0 .984-.164 1.353-.482zm15.445 2.018c-.246.871-.841 2.367-1.784 4.477-1.416 3.135-2.339 5.47-2.79 6.997a16.561 16.561 0 00-.666 4.59c0 1.557.348 3.094 1.056 4.6.236.471.513.932.82 1.383.308.44.462.778.462 1.003 0 .492-.39.738-1.169.738h-3.262c-.317 0-.81.02-1.456.062-.656.04-1.128.061-1.436.061-.82 0-1.353-.123-1.6-.369-.246-.246-.369-.82-.369-1.72 0-2.336.564-4.642 1.682-6.905 1.118-2.264 2.79-5.123 5.025-8.575.616-.943 1.221-1.885 1.825-2.818a24.633 24.633 0 001.57-2.786c.441-.912.666-1.71.666-2.398 0-.491-.123-1.106-.358-1.843v-.738c.153-.37.574-.553 1.23-.553h5.528c.81 0 1.333.102 1.559.307.235.205.348.635.348 1.301 0 2.285.882 6.178 2.656 11.669 1.17 3.678 2.123 6.454 2.851 8.329.719 1.874 1.313 3.299 1.764 4.282.452.983.677 1.598.677 1.844 0 .358-.123.584-.369.697-.246.102-.697.153-1.364.153a39.4 39.4 0 00-2.523-.061c-1.056 0-1.876.02-2.461.061-.503 0-.903-.112-1.22-.328-.308-.215-.626-.675-.965-1.393-.338-.727-.707-1.741-1.107-3.053-.4-1.311-1.026-3.534-1.877-6.659a58.998 58.998 0 00-.461-1.762c-.113-.4-.226-.84-.328-1.321a81.566 81.566 0 01-1.293-5.102 55.134 55.134 0 00-.441-2.141c-.204-.871-.348-1.547-.42-2.029zm44.18-2.018l1.61 1.905c-2.215 1.434-4.122 2.152-5.732 2.152-1.713 0-3.487-1.066-5.343-3.196-.698-.79-1.262-1.373-1.672-1.742-.421-.358-.933-.543-1.528-.543-1.897 0-3.138 1.199-3.723 3.596-.594 2.407-.933 5.41-1.026 9.005.985-.758 2.329-1.537 4.041-2.315 1.713-.79 3.097-1.178 4.143-1.178.79 0 1.528.123 2.215.358.79.287 1.6.686 2.421 1.198.831.513 1.435.769 1.826.769.84 0 1.62-.328 2.348-.974l1.23 1.65a21.915 21.915 0 01-3.394 3.135c-.666.492-1.19.84-1.59 1.045-.389.205-.932.307-1.61.307-.892 0-1.856-.348-2.882-1.044-1.045-.708-1.876-1.2-2.502-1.476-.615-.287-1.302-.42-2.051-.42-1.405 0-2.779.595-4.133 1.783 0 3.176.77 5.819 2.308 7.908 1.538 2.1 3.62 3.145 6.256 3.145 2.317 0 4.963-1.065 7.927-3.196l1.179 1.291c-2.933 3.155-6.625 4.733-11.075 4.733-2.134 0-4.328-.41-6.585-1.219-2.246-.82-4.215-2.315-5.896-4.487-1.693-2.182-2.615-5.133-2.78-8.851v-2.1c.114-2.08.657-4.273 1.6-6.557.954-2.295 2.41-4.252 4.359-5.88 1.958-1.63 4.348-2.439 7.199-2.439 2.882 0 5.959 1.024 9.24 3.084.954.686 1.713 1.035 2.267 1.035.533 0 .984-.164 1.353-.482zm43.124-1.977h-16.121v-2.582h2.646c0-4.108-.646-6.956-1.928-8.554-1.292-1.588-2.862-2.387-4.728-2.387-1.261 0-2.451.4-3.559 1.188-1.107.8-2.02 2.182-2.738 4.139-.718 1.957-1.077 4.59-1.077 7.888 0 2.428.174 4.744.523 6.947.349 2.202.913 4.927 1.682 8.174.903 3.576 1.354 6.547 1.354 8.913 0 .267-.021.564-.072.882a9.975 9.975 0 01-.205.962c-.082.318-.154.564-.205.738-.051.195-.092.369-.144.502-.041.133-.082.256-.112.349.399.255.892.378 1.486.378 1.488 0 2.995-.727 4.523-2.182 1.539-1.455 2.8-3.36 3.785-5.706.984-2.346 1.476-4.754 1.476-7.233 0-.666-.02-1.157-.061-1.475h-2.646v-2.582h16.121v2.582h-2.522a15.881 15.881 0 01-2.072 7.171c-1.261 2.213-2.923 4.16-4.974 5.82a23.67 23.67 0 01-6.717 3.851c-2.431.902-4.8 1.352-7.107 1.352-1.744 0-3.241-.245-4.492-.737v-.86c0-1.066-.072-1.998-.226-2.787-.143-.789-.553-1.814-1.22-3.053-.667-1.25-1.723-2.828-3.159-4.733-1.692-2.161-2.974-4.067-3.836-5.717-.861-1.639-1.404-3.073-1.651-4.282-.235-1.209-.358-2.55-.358-4.016 0-3.852.851-7.222 2.543-10.112 1.702-2.888 3.989-5.101 6.871-6.638 2.872-1.536 6.01-2.305 9.404-2.305 5.754 0 9.886 1.424 12.399 4.262 2.512 2.848 4.041 5.932 4.595 9.261h2.522v2.582zM62.925 3.04c-.767-.595-5.175-.453-6.224 3.704-.154.613-.131 1.158-.34 1.777-.445 1.322-2.233 3.306-3.432 1.775-.769-.982.56-3.02-1.688-4.708-.445-.334-.869-.387-1.354-.707-1.437-.95-1.445-2.233-.533-3.508.198-.276.397-.313.366-.666-.955-.512-4.777 1.476-3.392 5.915.203.65.532 1.121.73 1.799.208.717.077 1.556-.153 2.185-.264.718-.603 1.017-1.168 1.363-.564.347-1.59.56-1.722-.338-.167-1.152.85-2.943-.36-4.233-1.82-1.942-3.954-.577-5.916-1.678-.535-.3-1.014-.816-1.084-1.43-.204-1.807 1.77-2.61 1.77-3.185-1.917.348-4.614 1.992-5.463 3.72-2.171 4.42 2.478 7.658.498 11.15-.203.358-.834 1.115-1.314.478-.394-.522-.355-1.889-2.332-2.351-1.93-.452-2.474-.343-3.25-2.59-.13-.372-.082-.649-.202-.975-.281.08-.298.215-.444.514-.386.792-.595 1.431-.591 2.332.006 1.36.127 2.265.651 3.3.612 1.21 2.377 2.258 2.149 3.725-.08.511-.539.916-1.059.982-.87.108-1.143-.967-2.645-1.256-2.098-.402-4.497.933-5.487-2.331-.335-1.104-.137-2.546-.146-3.652-.713.362-1.863 2.797-2.053 3.435-.942 3.17.267 5.895 2.084 8.304.41.543.815.992 1.202 1.557 1.034 1.51.44 3.307-1.632 2.827-.72-.167-1.186-.77-1.594-1.177-1.485-1.485-1.908-1.457-4.112-1.424-.805.012-1.734.305-2.59.137-1.816-.357-2.935-2.444-3.517-4.055-.109-.302-.054-.326-.292-.41-.487.495-.61 3.38-.537 4.322.21 2.663 1.274 5.044 3.007 6.777 1.116 1.117 1.485 1.165 3.125 1.858 2.899 1.225 2.717 3.553.871 3.745-2.3.239-2.633-.503-5.299 2.137-.35.346-.952.719-1.474.976-.806.4-1.126.396-2.173.341.207.854 1.858 1.743 2.614 1.966 1.45.43 2.754-.114 4.19.157 1.371.258 3.618 2.602 2.26 3.783-.403.348-1.128.325-1.712.575-2.514 1.072-2.324 3.645-4.107 4.91-.946.67-2.212.954-3.692.842-1.228-.093-3.048-1.201-3.35-1.172-.144.74 1.587 3.1 1.96 3.48.878.895 1.985 1.754 3.39 2.142 1.06.294 1.191.344 2.429.344.895 0 1.778.02 2.588-.185 1.684-.425 2.878-1.032 4.797-.403 2.11.69 1.431 2.734.06 2.985-4.532.828-3.235 4.487-4.105 6.925-.38 1.069-1.147 1.669-2.08 2.113-.364.173-.796.193-.975.48.244.4 1.679.553 2.085.552 2.268-.008 3.981-.9 5.324-2.579 2.568-3.214 7.118-1.253 3.616 1.087-2.62 1.75-2.951 4.56-2.453 7.568.494 2.977.754 4.947-1.768 6.846-.243.182-.572.37-.77.554.274.294.894.225 1.269.224.487-.002 1.025.023 1.505-.002 3.607-.183 5.251-2.258 6.306-5.427.722-2.168 1.958-4.077 4.754-4.065.902.004 1.939-.1 2.386.515.608.837-.23 1.56-.686 1.793-1.226.628-2.698 1.561-1.973 3.466.672 1.766 2.9 3.003.728 6.263-.268.402-.385.512-.689.813-.132.132-.218.23-.357.353-.287.25-.29.12-.365.457 2.363.607 5.007-.51 5.874-1.907.359-.579.713-1.475.803-2.168.13-1.002-.161-2.483 1.46-3.695 1.887-1.411 4.267-.557 2.836.856-.337.332-.614.84-.567 1.526.144 2.11 2.862 2.403 1.851 4.813-.101.241-.226.417-.177.664.1.509 2.151-.966 2.535-1.552 1.179-1.802-1.02-3.26 1.457-4.462.328-.16 1.23-.44 1.645-.468 2.157-.146 1.376 1.338 1.219 2.678-.431 3.699 2.45 3.69 3.175 5.373.73 1.694-.713 3.295-1.726 4.305-.193.192-.385.335-.6.503-.242.189-.45.233-.483.615.818.268 3.317-.467 4.031-.782 2.286-1.007 4.355-2.253 5.56-4.472.715-1.316.8-2.56.57-4.276-.218-1.642.165-3.046 1.142-3.726.664-.462 1.294-.483 1.692.195.373.634-.034 1.295.215 2.135.4 1.352 1.403 1.926 2.348 2.641 1.636 1.239.349 2.66.534 3.896.876.168 3.22-2.013 3.193-4.85-.013-1.332-.806-1.88-1.16-2.945-.317-.955.399-2.354 1.15-2.739 1.293-.662 1.514 1.193 1.972 1.98.918 1.579 4.18 1.5 4.822 3.403.292.865-.071 1.723-.445 2.459-.099.194-.222.275-.246.47-.047.386-.068-.336.021.182.09.515 2.373-.925 3.324-2.289 1.131-1.621 1.508-4.832.275-6.755-.872-1.36-2.363-1.453-2.363-3.394 0-2.637 1.302-2.135 2.414-.446 1.296 1.967 2.827 3.117 5.562 3.114 1.41-.002 1.78-.223 2.606-.25 2.785-.09 3.257 1.167 4.673 3.339.155.237.14.31.388.37.168-.369.14-1.743.142-2.259a8.689 8.689 0 00-.264-2.255c-.34-1.38-.872-2.553-1.557-3.49-2.464-3.372-4.61-2.49-5.816-4.295-.842-1.26-1.18-3.293.3-3.219 1.098.056 1.862 2.63 5.56 1.131.631-.257 1.398-.467 2.179-.17.596.225 1.106.577 1.579.938.315.24.962 1.13 1.311 1.134.096-1.32-.75-2.824-1.358-3.454-.916-.952-1.365-1.432-2.994-1.973-1.328-.44-2.488-.89-2.994-1.99-.27-.587-.443-1.32-.303-2.065.133-.703.727-1.112 1.399-.693 1.273.795.855 1.443 3.45 1.455 1.468.006 2.656-.96 3.435-1.546 2.276-1.71 4.167.75 5.073 2.6.167.344.178.71.5.752.478-.997.242-4.066-.092-5.107-.732-2.283-2.504-3.538-4.71-3.901-1.535-.254-3.163-.155-4.32-1.374-.622-.656-.473-1.529.189-2.01.982-.714 2.802-.36 4.373-1.314 1.25-.758 1.975-1.787 2.833-2.94.838-1.124 1.865-2.018 3.228-2.535.712-.27 1.628-.378 2.511-.273.811.095 1.8.384 2.597.393-.421-2.437-5.546-5.579-9.451-5.188-1.568.157-2.806.444-4.511.404-.805-.02-1.194-.322-1.616-.745-.337-.338-.88-1.046-.54-1.802.335-.742 1.055-.336 1.82-.635 2.267-.883 1.712-2.932 4.53-2.849 1.72.051 2.834 1.344 3.485 1.477-.054-1.136-1.108-3.186-1.69-3.788-.888-.92-1.685-1.789-3.446-2.082-3.166-.527-5.698 1.708-6.703 1.252-.83-.378-.664-1.253-.1-1.71.244-.199.574-.315.91-.426.987-.328 1.742-.978 2.28-1.913 1.995-3.47-.86-7.637 3.617-10.212l1.433-.602c.098-.024.165-.017.267-.046l.286-.151c-.16-.23.013-.095-.345-.24-2.777-1.132-7.16-.52-9.466 1.199-1.396 1.04-2.598 2.373-3.825 3.604-1.39 1.396-3.087.475-2.552-.966.346-.93 1.312-1.4 1.81-3.194.729-2.62-1.252-4.914.896-7.056.12-.12.206-.188.322-.308.185-.193.193-.143.203-.477-1.681-.175-2.895.66-3.573 1.53-.753.965-1.114 2.226-1.764 3.293-.682 1.12-1.596 1.77-3.39 1.506-.72-.105-1.316-.491-1.072-1.381.122-.447.868-1.066 1.204-1.331 2.155-1.7 1.662-5.306.01-7.373-.381-.477-.794-.864-1.156-1.373-2.342-3.297.871-4.252.832-5.088-1.19-.26-3.152.245-4.067.69-4.552 2.208-1.89 7.237-3.98 10.475-.56.868-1.839 2.038-3.025 1.706-1.372-.384-.398-2.44-.998-3.813-.828-1.89-1.952-3.006.14-5.004.19-.182.433-.366.662-.519.306-.205.64-.224.672-.566zM52.04 16.89c17.346 0 31.407 14.046 31.407 31.373S69.385 79.637 52.039 79.637c-17.345 0-31.407-14.047-31.407-31.374 0-17.327 14.062-31.373 31.407-31.373zm20.556 11.36l-6.534.006-2.122 4.98H40.114l-2.125-4.989h-6.504c5.214-5.342 12.496-8.66 20.554-8.66 8.06 0 15.342 3.32 20.556 8.662zm-41.269.16l4.665 11.048h32.06l4.701-11.048c4.95 5.152 7.994 12.148 7.994 19.853 0 15.806-12.8 28.623-28.61 28.676L58.86 61.19l6.8-15.925H38.463l6.799 15.925 6.723 15.748c-15.83-.03-28.652-12.856-28.652-28.676 0-7.706 3.043-14.701 7.993-19.853zm20.735 39.24l7.133-17.907H44.77l7.292 17.908zm-.022-52.183c18.132 0 32.83 14.683 32.83 32.796S70.172 81.06 52.04 81.06c-18.132 0-32.83-14.684-32.83-32.797s14.698-32.796 32.83-32.796z" fill="#fff"/><path d="M124.693 75.701v-.314c0-2.078-1.17-2.673-3.325-2.673-2.384 0-3.825.4-3.825 3.085v2.1c0 2.965 1.615 3.116 3.825 3.116 2.535 0 3.325-.617 3.325-2.9v-.238h-2.231v.238c0 .952-.433 1.017-1.333 1.017-1.3 0-1.354-.509-1.354-1.72v-1.267c0-1.158.119-1.548 1.354-1.548.737 0 1.333.14 1.333.79v.314h2.231zm5.06-1.028h2.188V72.79h-6.543v1.883h2.188v6.234h2.167v-6.234zm5.276 3.983h1.918c2.264 0 2.773-.714 2.773-2.998 0-2.121-.758-2.868-2.773-2.868h-4.085v8.117h2.167v-2.251zm0-4.09h1.485c.845 0 .974.28.974 1.114 0 1.05-.151 1.2-.974 1.2h-1.485v-2.315zm9.426 6.45c2.199 0 3.759-.52 3.759-3.02V75.7c0-2.5-1.56-2.987-3.759-2.987-2.2 0-3.76.487-3.76 2.987v2.294c0 2.5 1.56 3.02 3.76 3.02zm0-1.884c-1.127 0-1.528-.162-1.528-1.374v-1.83c0-1.212.401-1.33 1.528-1.33s1.527.129 1.527 1.33v1.83c0 1.212-.4 1.374-1.527 1.374zm7.009-6.342h-2.058v8.117h2.947l2.437-5.346h.076v5.346h2.058V72.79h-2.849l-2.535 5.346h-.076V72.79zm10.736 1.883h2.189V72.79h-6.544v1.883h2.188v6.234h2.167v-6.234zm5.277-.108h3.694V72.79h-5.861v8.117h5.937v-1.775h-3.77v-1.58h3.467v-1.505h-3.467v-1.482zm6.056-1.775v5.325c0 .8-.206 1.104-.802 1.104-.292 0-.466-.011-.661-.076v1.753c.336.065.639.097 1.105.097 1.647 0 2.416-1.136 2.416-2.91v-3.41h2.351v6.234h2.167V72.79h-6.576zm10.151 0h-2.167v8.117h4.182c1.636 0 2.503-.671 2.503-2.49 0-1.818-.845-2.488-2.503-2.488h-2.015v-3.14zm0 4.827h1.506c.617 0 .845.151.845.822 0 .628-.228.78-.845.78h-1.506v-1.602zm7.876-4.827h-2.167v8.117h2.167v-3.182h2.828v3.182h2.166V72.79h-2.166v3.052h-2.828V72.79zm11.321 6.72l.423 1.397h2.21l-2.47-8.117h-3.294l-2.438 8.117h2.254l.401-1.396h2.914zm-.444-1.568h-2.005l.986-3.529h.022l.997 3.529zm8.234 2.965h2.166V72.79h-4.16c-1.928 0-2.622.822-2.622 2.565 0 1.31.401 1.991 1.452 2.435l-1.766 3.117h2.481l1.43-2.857h1.019v2.857zm0-4.632h-1.463c-.618 0-.986-.217-.986-.844 0-.693.206-.866.824-.866h1.625v1.71zm9.642-3.485h-2.167v8.117h2.167v-3.182h.649l2.265 3.182h2.687l-3.099-4.134 2.86-3.983h-2.622l-2.091 3.052h-.649V72.79zm9.848 8.225c2.199 0 3.759-.52 3.759-3.02v-2.294c0-2.5-1.56-2.987-3.759-2.987-2.2 0-3.76.487-3.76 2.987v2.294c0 2.5 1.56 3.02 3.76 3.02zm0-1.883c-1.127 0-1.528-.162-1.528-1.374v-1.83c0-1.212.401-1.33 1.528-1.33 1.126 0 1.527.129 1.527 1.33v1.83c0 1.212-.401 1.374-1.527 1.374zm4.951-6.342v8.117h2.166l-.216-6.223.097-.022 2.048 6.245h1.874l2.037-6.245.097.022-.217 6.223h2.167V72.79h-3.521l-1.473 5.097h-.076l-1.549-5.097h-3.434zm11.462 0v8.117h2.167v-6.234h2.827v6.234h2.167V72.79h-7.161zm13.488 6.72l.422 1.397h2.21l-2.47-8.117h-3.293l-2.438 8.117h2.254l.401-1.396h2.914zm-.444-1.568h-2.005l.986-3.529h.022l.997 3.529zm6.002-5.152h-2.167v8.117h2.167v-3.182h2.827v3.182h2.167V72.79h-2.167v3.052h-2.827V72.79zm8.461 0h-2.059v8.117h2.947l2.438-5.346h.075v5.346h2.059V72.79h-2.849l-2.536 5.346h-.075V72.79zm11.267 8.117h2.166V72.79h-4.16c-1.928 0-2.621.822-2.621 2.565 0 1.31.401 1.991 1.451 2.435l-1.766 3.117h2.481l1.431-2.857h1.018v2.857zm0-4.632h-1.463c-.617 0-.986-.217-.986-.844 0-.693.206-.866.824-.866h1.625v1.71z" fill="#fff"/></svg>