<svg width="289" height="99" fill="none" xmlns="http://www.w3.org/2000/svg"><path fill-rule="evenodd" clip-rule="evenodd" d="M123.478 61.807V42.232c0-4.912.454-8.939 1.371-12.1.907-3.151 2.578-5.581 4.999-7.29 2.433-1.7 5.856-2.554 10.257-2.554 2.021 0 3.825.267 5.433.803 1.598.525 2.959 1.266 4.061 2.204 1.114.937 1.959 2.007 2.526 3.202a8.701 8.701 0 01.856 3.748c0 3.048-.97 5.283-2.897 6.673-1.928 1.401-4.185 2.101-6.762 2.101-1.773 0-3.649-.66-5.618-1.987l-2.722 3.408c1.454 1.164 2.856 2.1 4.216 2.79 1.361.7 2.763 1.216 4.196 1.535 1.433.32 2.979.484 4.649.484h.557c1.288 0 2.247.144 2.876.443.628.298 1.041.741 1.227 1.339.185.607.278 1.451.278 2.543v9.824c0 .216-.011.453-.031.69a12.01 12.01 0 00-.031.978c-.021.845-.103 1.483-.258 1.915-.144.433-.557.783-1.216 1.04-.67.258-1.763.382-3.278.382h-29.822v-2.596h5.133zm9.587 0h7.597c1.031 0 1.742-.257 2.134-.782.402-.525.598-1.638.598-3.347v-6.982c0-.926-.144-1.606-.422-2.028-.279-.423-1.031-.958-2.248-1.627-2.165-1.184-3.732-2.101-4.711-2.76-.969-.649-1.948-1.545-2.948-2.667v20.193zm0-22.366l3.577-4.88c1.268.74 2.227 1.111 2.855 1.111.877 0 1.743-.484 2.609-1.462.855-.978 1.288-2.616 1.288-4.933 0-2.193-.464-3.81-1.392-4.84-.927-1.04-2.092-1.555-3.505-1.555-2.185 0-3.628 1.123-4.339 3.378-.722 2.256-1.104 5.252-1.165 8.99 0 .546.01 1.225.03 2.039.031.813.042 1.534.042 2.152zm52.325-.978l1.619 1.915c-2.227 1.442-4.144 2.163-5.762 2.163-1.722 0-3.505-1.071-5.371-3.213-.701-.793-1.268-1.38-1.681-1.75-.422-.36-.938-.546-1.535-.546-1.908 0-3.155 1.205-3.743 3.614-.597 2.42-.938 5.437-1.031 9.052.99-.762 2.341-1.545 4.062-2.328 1.722-.792 3.113-1.184 4.165-1.184.794 0 1.536.124 2.226.36.794.289 1.608.69 2.433 1.205.835.515 1.443.773 1.835.773.845 0 1.629-.33 2.361-.979l1.237 1.659a22.09 22.09 0 01-3.412 3.15c-.67.495-1.196.845-1.598 1.05-.392.206-.938.31-1.619.31-.896 0-1.865-.35-2.896-1.05-1.052-.711-1.887-1.206-2.515-1.483-.619-.29-1.31-.423-2.062-.423-1.413 0-2.794.598-4.155 1.792 0 3.192.774 5.849 2.32 7.95 1.546 2.11 3.639 3.16 6.288 3.16 2.33 0 4.989-1.07 7.968-3.212l1.186 1.297c-2.948 3.172-6.659 4.758-11.133 4.758-2.144 0-4.35-.412-6.618-1.225-2.258-.824-4.237-2.328-5.927-4.51-1.701-2.194-2.629-5.16-2.794-8.898v-2.11c.114-2.091.66-4.295 1.608-6.591.959-2.307 2.423-4.274 4.381-5.911 1.969-1.637 4.371-2.45 7.236-2.45 2.897 0 5.99 1.029 9.288 3.099.959.69 1.722 1.04 2.279 1.04.536 0 .989-.165 1.36-.484zm15.525 2.028c-.248.876-.846 2.38-1.794 4.5-1.423 3.152-2.35 5.5-2.804 7.034a16.658 16.658 0 00-.67 4.613c0 1.565.351 3.11 1.062 4.624.237.474.515.937.825 1.39.309.443.463.782.463 1.009 0 .494-.391.742-1.175.742h-3.278c-.319 0-.814.02-1.464.061-.659.041-1.134.062-1.443.062-.825 0-1.36-.123-1.608-.371-.247-.247-.371-.824-.371-1.73 0-2.347.567-4.665 1.691-6.94 1.123-2.276 2.804-5.149 5.05-8.62.619-.947 1.227-1.894 1.835-2.831a24.895 24.895 0 001.578-2.8c.443-.918.67-1.72.67-2.411 0-.494-.124-1.112-.361-1.853v-.741c.154-.372.577-.557 1.237-.557h5.556c.814 0 1.34.103 1.567.31.237.205.35.638.35 1.307 0 2.296.887 6.21 2.67 11.729 1.176 3.697 2.134 6.487 2.866 8.372.722 1.884 1.32 3.316 1.773 4.304.454.989.681 1.607.681 1.854 0 .36-.124.587-.371.7-.248.103-.701.155-1.372.155a39.589 39.589 0 00-2.535-.063c-1.063 0-1.887.021-2.474.063-.506 0-.908-.114-1.227-.33-.309-.216-.629-.68-.969-1.4-.34-.732-.711-1.751-1.113-3.07-.403-1.317-1.031-3.552-1.887-6.693-.196-.782-.35-1.38-.464-1.77a20.492 20.492 0 01-.329-1.33 81.732 81.732 0 01-1.3-5.127 52.883 52.883 0 00-.443-2.153c-.206-.875-.35-1.555-.422-2.039zm44.408-2.028l1.619 1.915c-2.227 1.442-4.144 2.163-5.763 2.163-1.721 0-3.504-1.071-5.37-3.213-.701-.793-1.268-1.38-1.68-1.75-.423-.36-.939-.546-1.536-.546-1.907 0-3.155 1.205-3.743 3.614-.597 2.42-.938 5.437-1.031 9.052.99-.762 2.341-1.545 4.062-2.328 1.722-.792 3.113-1.184 4.165-1.184.794 0 1.536.124 2.226.36.794.289 1.608.69 2.433 1.205.835.515 1.443.773 1.835.773.845 0 1.629-.33 2.361-.979l1.237 1.659a22.09 22.09 0 01-3.412 3.15c-.67.495-1.196.845-1.599 1.05-.391.206-.937.31-1.618.31-.896 0-1.866-.35-2.897-1.05-1.051-.711-1.886-1.206-2.514-1.483-.619-.29-1.31-.423-2.062-.423-1.412 0-2.794.598-4.155 1.792 0 3.192.774 5.849 2.32 7.95 1.546 2.11 3.639 3.16 6.288 3.16 2.33 0 4.989-1.07 7.968-3.212l1.186 1.297c-2.948 3.172-6.659 4.758-11.133 4.758-2.145 0-4.35-.412-6.618-1.225-2.258-.824-4.237-2.328-5.927-4.51-1.701-2.194-2.629-5.16-2.794-8.898v-2.11c.114-2.091.66-4.295 1.608-6.591.959-2.307 2.422-4.274 4.381-5.911 1.969-1.637 4.371-2.45 7.237-2.45 2.896 0 5.989 1.029 9.287 3.099.959.69 1.722 1.04 2.279 1.04.536 0 .989-.165 1.36-.484zm43.347-1.988h-16.205V33.88h2.66c0-4.129-.65-6.992-1.938-8.598-1.299-1.596-2.876-2.4-4.753-2.4-1.267 0-2.463.402-3.577 1.195-1.112.804-2.03 2.194-2.752 4.16-.721 1.967-1.082 4.614-1.082 7.93 0 2.44.175 4.767.526 6.981.35 2.214.917 4.953 1.69 8.217.907 3.595 1.361 6.58 1.361 8.96 0 .267-.021.566-.072.885-.052.33-.124.649-.206.968-.083.32-.155.567-.206.742-.052.195-.093.37-.145.504a14.75 14.75 0 01-.113.35c.402.258.897.381 1.494.381 1.495 0 3.01-.73 4.546-2.193 1.547-1.462 2.815-3.378 3.804-5.736.99-2.358 1.485-4.778 1.485-7.27 0-.67-.021-1.163-.062-1.483h-2.66v-2.595h16.205v2.595h-2.536a15.948 15.948 0 01-2.082 7.208c-1.268 2.225-2.938 4.181-5 5.85a23.78 23.78 0 01-6.752 3.872c-2.443.906-4.824 1.359-7.144 1.359-1.752 0-3.257-.247-4.515-.742v-.865c0-1.07-.071-2.008-.226-2.8-.145-.793-.557-1.823-1.227-3.07-.67-1.256-1.732-2.841-3.175-4.757-1.701-2.172-2.989-4.088-3.856-5.746-.865-1.647-1.411-3.09-1.659-4.304-.237-1.215-.361-2.564-.361-4.037 0-3.872.856-7.26 2.557-10.164 1.711-2.904 4.01-5.128 6.906-6.672 2.887-1.545 6.041-2.317 9.453-2.317 5.783 0 9.937 1.43 12.463 4.283 2.525 2.863 4.062 5.963 4.618 9.31h2.536v2.594zM63.25 3.056c-.77-.598-5.202-.456-6.256 3.722-.155.617-.132 1.165-.342 1.787-.447 1.328-2.245 3.323-3.45 1.785-.772-.988.563-3.037-1.696-4.733-.448-.336-.874-.39-1.361-.71-1.445-.955-1.453-2.246-.536-3.527.199-.278.4-.314.368-.669-.96-.515-4.802 1.484-3.41 5.945.204.654.535 1.127.733 1.808.21.721.079 1.564-.153 2.197-.265.722-.605 1.022-1.173 1.37-.568.348-1.6.563-1.731-.34-.169-1.158.854-2.958-.363-4.255-1.83-1.951-3.974-.58-5.947-1.686-.537-.301-1.018-.82-1.088-1.437-.206-1.817 1.78-2.625 1.779-3.202-1.928.35-4.639 2.002-5.492 3.739-2.182 4.442 2.491 7.698.5 11.207-.203.36-.838 1.121-1.32.48-.396-.524-.357-1.897-2.344-2.362-1.94-.454-2.487-.345-3.267-2.604-.13-.374-.082-.652-.203-.98-.283.08-.3.216-.446.517-.389.796-.599 1.439-.594 2.344.006 1.367.127 2.277.655 3.318.615 1.215 2.389 2.269 2.159 3.744-.08.514-.541.92-1.064.986-.875.11-1.149-.972-2.658-1.262-2.11-.404-4.52.938-5.517-2.343-.336-1.11-.137-2.56-.146-3.67-.717.363-1.873 2.81-2.064 3.452-.946 3.186.27 5.925 2.095 8.346.412.546.82.998 1.209 1.566 1.039 1.517.442 3.324-1.64 2.841-.725-.168-1.193-.773-1.603-1.183-1.493-1.492-1.918-1.464-4.133-1.431-.81.012-1.743.306-2.603.137-1.826-.358-2.951-2.456-3.536-4.075-.11-.304-.054-.328-.294-.412-.49.497-.613 3.398-.54 4.343.211 2.678 1.281 5.071 3.023 6.813 1.122 1.123 1.493 1.17 3.142 1.868 2.913 1.231 2.73 3.571.875 3.764-2.312.24-2.646-.506-5.326 2.148-.352.348-.958.722-1.482.981-.81.401-1.132.398-2.184.343.207.858 1.867 1.752 2.627 1.976 1.458.431 2.768-.114 4.212.157 1.378.26 3.636 2.616 2.271 3.803-.404.35-1.133.327-1.72.578-2.527 1.078-2.336 3.664-4.129 4.935-.95.674-2.223.96-3.71.847-1.235-.094-3.064-1.207-3.369-1.178-.144.743 1.597 3.115 1.972 3.497.882.9 1.994 1.764 3.407 2.154 1.065.296 1.197.346 2.44.346.9 0 1.789.02 2.602-.186 1.694-.428 2.893-1.037 4.822-.406 2.12.695 1.439 2.75.061 3-4.556.833-3.252 4.512-4.126 6.962-.383 1.074-1.153 1.677-2.091 2.124-.366.174-.8.194-.98.482.245.402 1.687.556 2.095.555 2.28-.008 4.002-.904 5.352-2.592 2.581-3.231 7.155-1.26 3.634 1.092-2.633 1.76-2.966 4.585-2.465 7.607.497 2.992.758 4.973-1.778 6.881-.243.184-.574.373-.772.558.275.295.898.226 1.274.224.49-.001 1.03.023 1.513-.001 3.626-.184 5.279-2.27 6.339-5.455.726-2.18 1.968-4.098 4.779-4.086.906.004 1.948-.102 2.398.518.611.841-.233 1.567-.69 1.802-1.232.63-2.712 1.569-1.983 3.484.676 1.775 2.914 3.018.732 6.295-.27.404-.388.514-.692.817-.133.133-.22.232-.36.355-.288.252-.292.121-.367.46 2.376.61 5.033-.513 5.905-1.918.36-.581.716-1.482.807-2.18.13-1.005-.162-2.495 1.468-3.712 1.896-1.42 4.288-.56 2.85.86a1.917 1.917 0 00-.57 1.534c.144 2.12 2.877 2.414 1.86 4.837-.101.243-.226.42-.177.668.101.511 2.162-.971 2.548-1.56 1.185-1.812-1.025-3.277 1.464-4.486.33-.16 1.237-.442 1.654-.47 2.168-.147 1.383 1.346 1.225 2.692-.434 3.718 2.462 3.71 3.191 5.4.734 1.704-.716 3.313-1.734 4.328-.194.193-.388.337-.604.506-.243.19-.452.234-.485.618.822.27 3.334-.47 4.052-.786 2.298-1.013 4.378-2.264 5.589-4.496.718-1.322.804-2.572.573-4.297-.22-1.65.166-3.062 1.148-3.746.667-.464 1.3-.485 1.7.196.375.638-.034 1.302.216 2.147.403 1.358 1.41 1.935 2.36 2.654 1.645 1.245.35 2.674.537 3.916.88.169 3.237-2.023 3.21-4.874-.013-1.34-.81-1.891-1.165-2.96-.32-.961.4-2.367 1.154-2.754 1.3-.665 1.523 1.199 1.983 1.99.922 1.587 4.2 1.508 4.847 3.421.293.87-.072 1.731-.448 2.47-.099.196-.223.277-.247.473-.047.389-.068-.337.022.184.09.517 2.384-.93 3.34-2.3 1.137-1.63 1.516-4.858.277-6.79-.876-1.367-2.376-1.462-2.376-3.412 0-2.65 1.31-2.146 2.427-.448 1.303 1.977 2.842 3.132 5.591 3.13 1.417-.003 1.79-.225 2.62-.252 2.799-.09 3.273 1.173 4.696 3.356.156.239.142.311.39.373.17-.372.142-1.753.143-2.271a8.732 8.732 0 00-.265-2.267c-.342-1.388-.877-2.566-1.565-3.508-2.477-3.39-4.633-2.503-5.846-4.317-.847-1.267-1.186-3.31.301-3.236 1.104.056 1.872 2.643 5.588 1.137.636-.258 1.406-.47 2.191-.171.6.226 1.112.58 1.587.943.317.242.968 1.136 1.318 1.14.097-1.327-.755-2.839-1.365-3.473-.92-.956-1.372-1.439-3.01-1.982-1.334-.443-2.5-.895-3.009-2-.272-.59-.445-1.327-.304-2.076.133-.707.73-1.118 1.406-.697 1.28.799.859 1.45 3.468 1.463 1.475.006 2.669-.965 3.452-1.554 2.288-1.72 4.19.754 5.1 2.613.168.345.178.713.503.756.48-1.003.242-4.087-.093-5.133-.736-2.295-2.517-3.557-4.734-3.922-1.544-.255-3.18-.155-4.343-1.38-.625-.66-.476-1.537.19-2.021.987-.718 2.817-.362 4.395-1.32 1.258-.763 1.986-1.797 2.849-2.955.841-1.13 1.874-2.03 3.244-2.549.715-.27 1.637-.38 2.524-.275.815.096 1.809.387 2.61.396-.423-2.45-5.574-5.608-9.5-5.215-1.575.157-2.82.446-4.534.405-.809-.02-1.2-.323-1.624-.748-.34-.34-.885-1.052-.542-1.811.336-.747 1.06-.338 1.829-.638 2.278-.889 1.72-2.948 4.553-2.864 1.729.051 2.849 1.35 3.503 1.484-.054-1.141-1.113-3.202-1.699-3.808-.893-.924-1.693-1.797-3.464-2.092-3.182-.53-5.727 1.717-6.737 1.258-.835-.38-.668-1.26-.1-1.72.245-.198.576-.315.913-.427.993-.329 1.752-.983 2.293-1.923 2.005-3.488-.864-7.676 3.636-10.264l1.44-.606c.098-.023.165-.017.269-.045l.287-.153c-.162-.23.012-.095-.347-.242-2.792-1.136-7.197-.521-9.515 1.206-1.404 1.046-2.611 2.386-3.844 3.623-1.398 1.404-3.104.478-2.566-.97.348-.936 1.319-1.408 1.82-3.212.732-2.633-1.26-4.938.9-7.092.121-.12.207-.19.323-.31.186-.193.195-.144.205-.48-1.69-.175-2.91.665-3.592 1.538-.757.97-1.119 2.238-1.773 3.31-.686 1.126-1.605 1.78-3.407 1.515-.724-.106-1.323-.494-1.078-1.388.123-.45.873-1.072 1.21-1.338 2.166-1.709 1.67-5.334.01-7.411-.383-.48-.798-.868-1.162-1.38C70.71 1.87 73.94.91 73.901.07c-1.196-.261-3.168.247-4.088.694-4.576 2.22-1.9 7.275-4 10.529-.564.873-1.849 2.048-3.041 1.715-1.38-.386-.4-2.453-1.004-3.832-.831-1.901-1.962-3.023.14-5.031a5.07 5.07 0 01.667-.521c.307-.207.643-.226.675-.569zm-10.942 13.92c17.435 0 31.569 14.12 31.569 31.537 0 17.416-14.134 31.536-31.57 31.536-17.434 0-31.568-14.12-31.568-31.537 0-17.416 14.134-31.535 31.569-31.535zm20.662 11.42l-6.568.006-2.133 5.005H40.321l-2.136-5.014h-6.537c5.24-5.37 12.56-8.705 20.66-8.705 8.101 0 15.421 3.337 20.662 8.707zm-41.482.16l4.688 11.106h32.226l4.726-11.105c4.976 5.179 8.035 12.21 8.035 19.956 0 15.887-12.866 28.77-28.757 28.823l6.757-15.829L65.998 45.5H38.66l6.834 16.008 6.758 15.83c-15.91-.03-28.8-12.923-28.8-28.825 0-7.745 3.059-14.777 8.035-19.956zM52.33 68l7.17-18H45l7.33 18zm-.022-52.453c18.226 0 33 14.76 33 32.966 0 18.206-14.774 32.965-33 32.965-18.225 0-33-14.759-33-32.965 0-18.207 14.775-32.966 33-32.966z" fill="#272727"/><path d="M125.338 76.092v-.316c0-2.088-1.176-2.686-3.343-2.686-2.396 0-3.844.402-3.844 3.1v2.11c0 2.981 1.622 3.134 3.844 3.134 2.548 0 3.343-.62 3.343-2.916v-.24h-2.244v.24c0 .957-.435 1.023-1.339 1.023-1.307 0-1.361-.512-1.361-1.73v-1.273c0-1.164.12-1.556 1.361-1.556.741 0 1.339.142 1.339.794v.316h2.244zm5.085-1.033h2.2v-1.893h-6.577v1.893h2.199v6.266h2.178v-6.266zm5.304 4.003h1.927c2.276 0 2.788-.718 2.788-3.013 0-2.133-.762-2.883-2.788-2.883h-4.105v8.159h2.178v-2.263zm0-4.112h1.492c.849 0 .98.283.98 1.12 0 1.056-.152 1.208-.98 1.208h-1.492V74.95zm9.474 6.484c2.211 0 3.779-.523 3.779-3.036v-2.306c0-2.513-1.568-3.002-3.779-3.002s-3.779.49-3.779 3.002v2.306c0 2.513 1.568 3.036 3.779 3.036zm0-1.893c-1.132 0-1.535-.163-1.535-1.382v-1.838c0-1.219.403-1.339 1.535-1.339 1.133 0 1.535.13 1.535 1.339v1.838c0 1.219-.402 1.382-1.535 1.382zm7.046-6.375h-2.069v8.159h2.962l2.45-5.374h.076v5.374h2.069v-8.16h-2.864l-2.548 5.375h-.076v-5.374zm10.791 1.893h2.2v-1.893h-6.577v1.893h2.199v6.266h2.178v-6.266zm5.304-.109h3.713v-1.784h-5.891v8.159h5.968V79.54h-3.79v-1.589h3.485V76.44h-3.485v-1.49zm6.087-1.784v5.352c0 .805-.206 1.11-.805 1.11-.294 0-.469-.011-.665-.076v1.762a5.42 5.42 0 001.111.098c1.655 0 2.428-1.142 2.428-2.926v-3.427h2.363v6.266h2.179v-8.16h-6.611zm10.204 0h-2.178v8.159h4.203c1.644 0 2.516-.675 2.516-2.502 0-1.828-.849-2.502-2.516-2.502h-2.025v-3.155zm0 4.852h1.514c.62 0 .849.152.849.826 0 .631-.229.784-.849.784h-1.514v-1.61zm7.917-4.852h-2.178v8.159h2.178v-3.199h2.842v3.199h2.178v-8.16h-2.178v3.069h-2.842v-3.068zm11.379 6.755l.425 1.404h2.221l-2.482-8.16h-3.311l-2.45 8.16h2.265L201 79.92h2.929zm-.446-1.577h-2.015l.991-3.546h.022l1.002 3.546zm8.276 2.98h2.178v-8.158h-4.182c-1.938 0-2.635.827-2.635 2.578 0 1.316.403 2.002 1.459 2.448l-1.775 3.133h2.494l1.438-2.872h1.023v2.872zm0-4.655h-1.47c-.621 0-.991-.218-.991-.849 0-.696.207-.87.828-.87h1.633v1.719zm9.692-3.503h-2.178v8.159h2.178v-3.199h.653l2.276 3.199h2.701l-3.115-4.156 2.875-4.003h-2.635l-2.102 3.068h-.653v-3.068zm9.899 8.268c2.21 0 3.779-.523 3.779-3.036v-2.306c0-2.513-1.569-3.002-3.779-3.002-2.211 0-3.779.49-3.779 3.002v2.306c0 2.513 1.568 3.036 3.779 3.036zm0-1.893c-1.133 0-1.536-.163-1.536-1.382v-1.838c0-1.219.403-1.339 1.536-1.339 1.132 0 1.535.13 1.535 1.339v1.838c0 1.219-.403 1.382-1.535 1.382zm4.976-6.375v8.159h2.178l-.218-6.255.098-.022 2.059 6.277h1.883l2.048-6.277.098.022-.218 6.255h2.178v-8.16h-3.539l-1.481 5.125h-.077l-1.557-5.124h-3.452zm11.522 0v8.159h2.178v-6.266h2.842v6.266h2.178v-8.16h-7.198zm13.558 6.755l.424 1.404h2.222l-2.483-8.16h-3.311l-2.45 8.16h2.265l.403-1.404h2.93zm-.447-1.577h-2.015l.991-3.546h.022l1.002 3.546zm6.033-5.178h-2.178v8.159h2.178v-3.199h2.842v3.199h2.178v-8.16h-2.178v3.069h-2.842v-3.068zm8.505 0h-2.07v8.159h2.963l2.45-5.374h.076v5.374h2.069v-8.16h-2.864l-2.548 5.375h-.076v-5.374zm11.325 8.159H289v-8.16h-4.182c-1.938 0-2.635.828-2.635 2.58 0 1.315.403 2 1.459 2.447l-1.775 3.133h2.494l1.437-2.872h1.024v2.872zm0-4.656h-1.47c-.621 0-.991-.218-.991-.849 0-.696.207-.87.828-.87h1.633v1.719z" fill="#272727"/></svg>