<svg width="22" height="31" fill="none" xmlns="http://www.w3.org/2000/svg"><path fill="#fff" d="M1 2h20v28H1z"/><path d="M2.975 18.649l-.814.58.814-.58zm16.05 0l-.814-.582.814.582zM2 12.486v-.602H0v.602h2zm9.794 16.789L3.789 18.067 2.16 19.23l8.005 11.207 1.628-1.162zm6.417-11.208l-8.005 11.208 1.628 1.162 8.005-11.207-1.628-1.163zM20 11.884v.602h2v-.602h-2zm-9.834 18.553a1.024 1.024 0 001.668 0l-1.628-1.162a.976.976 0 011.588 0l-1.628 1.162zM0 12.487c0 2.417.756 4.775 2.161 6.743l1.628-1.163A9.602 9.602 0 012 12.487H0zm19.839 6.743A11.602 11.602 0 0022 12.486h-2a9.602 9.602 0 01-1.789 5.581l1.628 1.163zM11 2.884a9 9 0 019 9h2c0-6.075-4.925-11-11-11v2zm0-2c-6.075 0-11 4.925-11 11h2a9 9 0 019-9v-2z" fill="#FFA800"/><path d="M9.045 7.885a4.505 4.505 0 013.91 0v0a4.505 4.505 0 012.437 3.056v0a4.505 4.505 0 01-.87 3.811v0A4.505 4.505 0 0111 16.448v0a4.505 4.505 0 01-3.522-1.696v0a4.505 4.505 0 01-.87-3.811v0a4.505 4.505 0 012.437-3.056v0z" stroke="#FFA800" stroke-width="2" stroke-linecap="round" stroke-linejoin="round"/></svg>