<svg width="27" height="29" xmlns="http://www.w3.org/2000/svg"><path d="M19.405 28.5a7.169 7.169 0 01-2.58-.487c-3.724-1.427-7.18-3.752-9.994-6.723C4.016 18.319 1.813 14.67.46 10.74a8.294 8.294 0 01-.38-3.873 8.33 8.33 0 011.3-3.44A7.83 7.83 0 014.017.948 7.216 7.216 0 017.616 0c.398 0 .741.293.825.704l1.324 6.523a.924.924 0 01-.228.817l-2.263 2.388c2.135 4.48 5.598 8.137 9.843 10.39l2.262-2.389a.816.816 0 01.774-.24l6.18 1.397c.39.088.667.451.667.871a8.29 8.29 0 01-.9 3.8 7.976 7.976 0 01-2.346 2.782 7.422 7.422 0 01-3.26 1.373 7.134 7.134 0 01-1.09.084zM6.942 1.82c-1.688.197-3.185 1.13-4.18 2.628a6.422 6.422 0 00-.715 5.685c2.6 7.555 8.196 13.462 15.353 16.206 1.827.7 3.79.425 5.386-.755 1.42-1.05 2.303-2.63 2.49-4.411l-5.028-1.137-2.363 2.494a.81.81 0 01-.955.176c-5.02-2.489-9.083-6.778-11.441-12.076a.928.928 0 01.167-1.008l2.363-2.495L6.942 1.82z" fill="#fff"/></svg>