<svg width="23" height="23" fill="none" xmlns="http://www.w3.org/2000/svg"><path d="M16.53 23a6.408 6.408 0 01-2.198-.393 23.442 23.442 0 01-8.513-5.426A23.441 23.441 0 01.393 8.668a6.362 6.362 0 01-.325-3.127A6.512 6.512 0 013.421.766 6.404 6.404 0 016.487 0c.34 0 .632.237.703.568l1.128 5.265a.719.719 0 01-.194.659L6.196 8.419a18.918 18.918 0 008.385 8.385l1.927-1.928a.719.719 0 01.66-.194l5.264 1.128a.719.719 0 01.568.702c0 1.09-.258 2.122-.766 3.067a6.513 6.513 0 01-4.775 3.353c-.31.045-.62.068-.929.068zM5.913 1.469a4.978 4.978 0 00-3.56 2.12 4.952 4.952 0 00-.61 4.589 21.8 21.8 0 0013.08 13.078 4.952 4.952 0 004.587-.61 4.978 4.978 0 002.121-3.56l-4.283-.917-2.013 2.013a.719.719 0 01-.814.143 20.351 20.351 0 01-9.746-9.746.719.719 0 01.143-.814L6.83 5.752l-.918-4.283z" fill="#FFA800"/></svg>