<svg width="114" height="116" fill="none" xmlns="http://www.w3.org/2000/svg"><path d="M57 34.8a23.555 23.555 0 0116.57 6.795A23.083 23.083 0 0180.434 58a23.083 23.083 0 01-6.864 16.405A23.555 23.555 0 0157 81.2a23.555 23.555 0 01-16.571-6.795A23.083 23.083 0 0133.565 58a23.083 23.083 0 016.864-16.405 23.555 23.555 0 0116.57-6.795zm0 11.6a11.777 11.777 0 00-8.286 3.398A11.541 11.541 0 0045.282 58a11.54 11.54 0 003.432 8.202A11.777 11.777 0 0057 69.6c3.108 0 6.088-1.222 8.286-3.398A11.541 11.541 0 0068.717 58a11.54 11.54 0 00-3.432-8.202 11.777 11.777 0 00-8.286-3.398zM45.281 116c-1.464 0-2.695-1.044-2.93-2.436l-2.167-15.37c-3.69-1.45-6.854-3.422-9.9-5.742L15.695 98.31c-1.289.464-2.87 0-3.574-1.276L.405 76.966a2.835 2.835 0 01-.356-1.987 2.855 2.855 0 011.06-1.725l12.36-9.628L13.06 58l.41-5.8-12.36-9.454a2.855 2.855 0 01-1.06-1.725 2.835 2.835 0 01.356-1.987l11.717-20.068c.703-1.276 2.285-1.798 3.574-1.276l14.588 5.8c3.047-2.262 6.21-4.234 9.901-5.684l2.168-15.37C42.587 1.044 43.818 0 45.283 0h23.434c1.464 0 2.695 1.044 2.929 2.436l2.168 15.37c3.69 1.45 6.854 3.422 9.9 5.684l14.589-5.8c1.289-.522 2.871 0 3.574 1.276l11.717 20.068c.761 1.276.41 2.842-.703 3.712L100.529 52.2l.41 5.8-.41 5.8 12.362 9.454c1.113.87 1.464 2.436.703 3.712l-11.717 20.068c-.703 1.276-2.285 1.798-3.574 1.276l-14.588-5.8c-3.047 2.262-6.21 4.234-9.901 5.684l-2.168 15.37c-.234 1.392-1.465 2.436-2.93 2.436H45.283zm7.324-104.4l-2.168 15.138c-7.03 1.45-13.24 5.162-17.752 10.324l-14.12-6.032-4.393 7.54 12.362 8.99a31.885 31.885 0 000 20.88l-12.42 9.048 4.393 7.54 14.237-6.032c4.51 5.104 10.662 8.816 17.634 10.208l2.168 15.196h8.905l2.168-15.138c6.971-1.45 13.123-5.162 17.634-10.266l14.237 6.032 4.394-7.54-12.42-8.99a32.057 32.057 0 000-20.938l12.361-8.99-4.394-7.54-14.12 6.032a31.823 31.823 0 00-17.75-10.266L61.392 11.6h-8.788z" fill="#fff"/></svg>