<svg xmlns="http://www.w3.org/2000/svg" viewBox="0 0 67 107" width="67" height="107">
	<style>
		tspan { white-space:pre }
		.shp0 { fill: #68b0c9 } 
	</style>
	<g id="7">
		<g id="форма">
			<path id="arrow" fill-rule="evenodd" class="shp0" d="M5.5 1C7.46 1 9.13 2.25 9.74 4L16 4L16 6L9.97 6C9.72 8.25 7.82 10 5.5 10C3.01 10 1 7.99 1 5.5C1 3.01 3.01 1 5.5 1ZM3 5.5C3 6.88 4.12 8 5.5 8C6.88 8 8 6.88 8 5.5C8 4.12 6.88 3 5.5 3C4.12 3 3 4.12 3 5.5ZM19.16 3.54L26.1 4.47L25.84 6.46L18.9 5.53L19.16 3.54ZM30.58 5.83L37.13 8.3L36.42 10.17L29.87 7.7L30.58 5.83ZM40.03 10.32L46.01 13.97L44.97 15.68L38.99 12.03L40.03 10.32ZM48.78 15.79L53.66 20.81L52.22 22.21L47.34 17.19L48.78 15.79ZM55.38 23.54L59.28 29.35L57.62 30.46L53.72 24.65L55.38 23.54ZM61.65 34.36L63.3 41.17L61.35 41.64L59.7 34.83L61.65 34.36ZM65.67 45.55L65.33 52.54L63.33 52.45L63.67 45.45L65.67 45.55ZM65.16 56.76L63.8 63.63L61.84 63.24L63.2 56.37L65.16 56.76ZM61.89 68.25L58.93 74.59L57.11 73.75L60.07 67.41L61.89 68.25ZM56.38 77.77L52.23 83.41L50.62 82.23L54.77 76.59L56.38 77.77ZM48.79 87.45L43.52 92.06L42.21 90.55L47.48 85.94L48.79 87.45ZM38.11 94.55L31.67 97.29L30.89 95.45L37.33 92.71L38.11 94.55ZM27.1 98.55L20.15 99.43L19.9 97.45L26.85 96.57L27.1 98.55ZM15.99 99.99L6.51 99.96L14.37 104.23L13.43 105.93L2.01 99.72L2.43 98.97L2.04 98.25L13.43 91.98L14.35 93.69L6.48 98.02L16.01 98.05L15.99 99.99Z" />
		</g>
	</g>
</svg>