<svg xmlns="http://www.w3.org/2000/svg" viewBox="0 0 201 54" width="201" height="54">
	<style>
		tspan { white-space:pre }
		.shp0 { fill: #68b0c9 } 
	</style>
	<g id="2">
		<g id="2">
			<path id="arrow-2" fill-rule="evenodd" class="shp0" d="M186.33 41.26L187.77 39.88L191.9 44.13C192.76 43.46 193.83 43.06 195 43.06C197.76 43.06 200 45.29 200 48.03C200 50.78 197.76 53 195 53C192.24 53 190 50.78 190 48.03C190 47.17 190.22 46.36 190.61 45.66L186.33 41.26ZM183.22 38.3L178.3 33.35L179.72 31.96L184.65 36.9L183.22 38.3ZM174.47 30.2L169.15 25.67L170.45 24.17L175.77 28.7L174.47 30.2ZM163.9 22.91L157.94 19.25L158.99 17.56L164.95 21.22L163.9 22.91ZM152.23 15.6L145.82 12.78L146.63 10.97L153.04 13.79L152.23 15.6ZM139.58 10.1L132.77 8.47L133.24 6.54L140.05 8.17L139.58 10.1ZM125.72 5.83L118.78 4.84L119.06 2.87L126 3.86L125.72 5.83ZM109.75 3.72L102.78 2.99L102.99 1.01L109.96 1.74L109.75 3.72ZM96.91 3.15L89.91 3.57L89.79 1.58L96.79 1.16L96.91 3.15ZM81.96 4.64L75.09 6.01L74.69 4.06L81.57 2.69L81.96 4.64ZM68.94 7.6L62.08 9L61.67 7.06L68.54 5.66L68.94 7.6ZM56.94 10.24L50.23 12.27L49.65 10.37L56.35 8.34L56.94 10.24ZM43.9 15.94L37.37 18.44L36.64 16.59L43.18 14.08L43.9 15.94ZM31.79 22.31L25.74 25.83L24.73 24.12L30.77 20.6L31.79 22.31ZM21.57 28.7L16.2 33.15L14.91 31.63L20.29 27.17L21.57 28.7ZM12.41 36.33L4.69 45.57L13.53 44.26L13.82 46.23L3.15 47.8L2.96 48.62L1.01 48.17L1.27 47.05L1.05 46.83L1.43 46.37L3.48 37.53L5.43 37.97L4.27 42.97L10.98 34.94L12.41 36.33ZM192 48.03C192 49.67 193.34 51 195 51C196.66 51 198 49.67 198 48.03C198 46.39 196.66 45.06 195 45.06C193.34 45.06 192 46.39 192 48.03Z" />
		</g>
	</g>
</svg>