<svg xmlns="http://www.w3.org/2000/svg" viewBox="0 0 202 55" width="202" height="55">
	<style>
		tspan { white-space:pre }
		.shp0 { fill: #68b0c9 } 
	</style>
	<g id="2">
		<g id="1">
			<path id="arrow-1" fill-rule="evenodd" class="shp0" d="M14.21 40.79L15.65 42.17L11.39 46.6C11.78 47.31 12 48.13 12 49C12 51.76 9.76 54 7 54C4.24 54 2 51.76 2 49C2 46.24 4.24 44 7 44C8.16 44 9.24 44.4 10.08 45.06L14.21 40.79ZM17.33 37.79L22.25 32.81L23.67 34.21L18.75 39.19L17.33 37.79ZM26.19 29.52L31.5 24.96L32.81 26.48L27.5 31.04L26.19 29.52ZM37 21.99L42.95 18.31L44 20.01L38.05 23.69L37 21.99ZM48.9 14.5L55.29 11.67L56.1 13.49L49.71 16.33L48.9 14.5ZM61.86 8.85L68.67 7.21L69.14 9.15L62.33 10.79L61.86 8.85ZM75.89 4.51L82.82 3.51L83.11 5.49L76.18 6.49L75.89 4.51ZM91.91 2.37L98.88 1.64L99.09 3.63L92.12 4.36L91.91 2.37ZM105.07 1.79L112.05 2.21L111.93 4.21L104.95 3.79L105.07 1.79ZM120.27 3.33L127.13 4.71L126.73 6.67L119.87 5.29L120.27 3.33ZM133.27 6.32L140.13 7.72L139.73 9.68L132.87 8.28L133.27 6.32ZM145.44 9.02L152.14 11.06L151.56 12.98L144.86 10.93L145.44 9.02ZM158.6 14.8L165.13 17.33L164.4 19.19L157.87 16.67L158.6 14.8ZM170.99 21.36L177.02 24.91L176.01 26.63L169.98 23.09L170.99 21.36ZM181.46 27.99L186.83 32.48L185.54 34.01L180.17 29.52L181.46 27.99ZM190.75 35.81L197.45 43.9L196.29 38.86L198.24 38.42L200.29 47.32L200.67 47.79L200.45 48.01L200.71 49.14L198.76 49.58L198.57 48.76L187.91 47.18L188.21 45.2L197.03 46.51L189.33 37.21L190.75 35.81ZM4 49C4 50.66 5.34 52 7 52C8.66 52 10 50.66 10 49C10 47.34 8.66 46 7 46C5.34 46 4 47.34 4 49Z" />
		</g>
	</g>
</svg>