<svg width="23" height="21" viewBox="0 0 23 21" id="heart-empty" fill="none" xmlns="http://www.w3.org/2000/svg">
<path d="M10.9736 4.20408L11.5 5.16599L12.0263 4.2041C12.3827 3.55283 12.9784 2.67708 13.8568 1.99779L13.4897 1.52317L13.8568 1.99779C14.7627 1.29716 15.7785 0.947656 16.8906 0.947656C19.9972 0.947656 22.4 3.481 22.4 6.97426C22.4 8.83036 21.6631 10.4177 20.2797 12.0871C18.881 13.7749 16.8679 15.4929 14.3741 17.6181L14.7633 18.0748L14.3741 17.6182L14.3737 17.6184C13.5312 18.3364 12.5738 19.1524 11.5781 20.0231L11.5779 20.0233C11.5568 20.0418 11.5293 20.0523 11.5 20.0523C11.4707 20.0523 11.4433 20.0418 11.4222 20.0233L11.4219 20.0231C10.4267 19.1528 9.46961 18.3372 8.62786 17.6198L8.62646 17.6186L8.62645 17.6186C6.13233 15.4932 4.11916 13.775 2.72041 12.0872C1.33687 10.4177 0.6 8.83035 0.6 6.97426C0.6 3.481 3.00284 0.947656 6.10938 0.947656C7.22152 0.947656 8.23728 1.29716 9.14321 1.99779L9.51028 1.52317L9.14321 1.99779C10.0216 2.67709 10.6173 3.55279 10.9736 4.20408Z" stroke="#FA4616" stroke-width="1.2"/>
</svg>
