<svg width="110" height="37" viewBox="0 0 110 37" fill="none" xmlns="http://www.w3.org/2000/svg">
<path d="M91.8265 31.1906C91.8248 31.1906 91.4885 31.4897 91.4885 31.4897C91.0079 31.9183 90.5134 32.3772 89.9164 32.1477C89.7516 32.0879 89.6356 31.8687 89.6077 31.6986C89.5806 30.4718 90.1343 29.3349 90.6713 28.228L90.809 27.9385C92.3537 25.3652 94.1493 22.3331 96.7863 20.2288C97.2307 19.9089 97.7129 19.6401 98.2219 19.8497C98.3389 19.9592 98.4753 20.1489 98.4753 20.3382C98.4753 20.3983 98.4219 20.5578 98.391 20.6074C97.6545 21.7949 96.9531 23.0416 96.271 24.2383C94.938 26.6024 93.5552 29.0459 91.8264 31.1908L91.8265 31.1906ZM77.5381 25.1261C77.4372 25.1963 75.6557 24.5976 75.3115 22.9519C75.0194 21.535 75.9973 20.4279 76.9435 19.8698C77.3497 19.5504 77.9614 19.441 78.4101 19.5999C78.8266 19.8796 78.9395 20.3787 78.9395 20.9165C78.9395 21.2463 78.8956 21.5851 78.857 21.8943C78.857 21.8943 78.8496 21.9544 78.8484 21.9643C78.5515 23.0711 78.0973 24.1585 77.5382 25.1262L77.5381 25.1261ZM70.733 31.8191C70.5514 31.5498 70.4911 31.2553 70.4851 30.9369C70.4502 28.9812 72.5593 25.4787 74.048 23.5706H74.0513C74.6752 24.9336 76.0879 25.8096 76.9408 26.1788C75.8815 28.533 72.2488 33.5746 70.7334 31.8191H70.733ZM96.4442 32.1664C96.0917 32.4057 95.5963 32.2217 95.7815 31.6733C96.2429 30.2769 98.0769 27.4311 98.0769 27.4311L103.185 18.3911H99.6861C99.5199 18.6637 99.1642 19.2897 99.1642 19.2897C99.0023 19.0206 98.5182 18.4223 98.3189 18.2931C97.464 17.7541 96.2097 18.0089 95.3444 18.4975C91.5825 20.6923 88.8377 25.0286 86.6728 28.4098C86.6728 28.4098 84.3941 32.1687 83.1291 32.4483C82.1416 32.5281 82.2435 31.2009 82.2863 30.8917C82.6681 28.6571 83.5548 26.5326 84.4482 24.6076C86.2651 23.3508 88.3388 21.7051 90.2233 19.8998C94.313 15.9994 97.7606 11.5805 98.2644 10.5932C98.2644 10.5932 97.7189 10.7031 97.0748 10.7228C93.9286 15.1016 87.4901 21.4659 85.5383 22.4128C86.403 20.3378 91.9899 10.4333 96.7443 5.69585L97.4924 4.97743C98.6492 3.8503 99.8479 2.69329 100.782 2.50373C100.881 2.49381 101.008 2.50373 101.117 2.73352C101.159 3.61113 100.832 4.25955 100.456 4.9976L99.9294 6.07501C99.9294 6.07501 100.675 5.93531 101.165 5.77531C101.733 4.70852 102.363 3.51123 102.131 2.08518C102.053 1.62629 101.72 1.27724 101.285 1.19738C99.8669 0.928065 98.3212 1.97506 97.0775 2.82317L97.0273 2.85289C90.6342 7.85016 85.2355 15.0521 80.5156 24.8869C80.1735 25.1458 78.8518 25.4554 78.6272 25.3056C79.0933 24.3483 79.6801 23.0612 79.9738 21.6649C80.0246 21.2658 80.0719 20.857 80.0719 20.4581C80.0719 19.5996 79.8653 18.792 79.0945 18.2336C78.1907 17.7846 77.0737 17.9942 76.3206 18.3332C72.9467 19.7296 70.4252 23.1811 68.6057 26.0233C67.627 27.8292 66.6512 29.7633 66.3811 31.9782C66.1908 33.7134 66.5782 34.8306 67.5671 35.3894C68.5841 35.9077 69.8641 35.369 70.3669 35.1099C73.7849 33.3145 76.1732 29.7139 78.0556 26.4221C78.1305 26.4123 79.1583 26.3826 79.9357 26.1828C79.9461 26.1828 79.9505 26.1828 79.9677 26.1932C79.9231 26.3422 79.5214 27.5395 79.5214 27.5395C78.3283 31.0303 77.7766 33.4044 78.9035 34.811C80.5139 36.796 83.1801 34.7414 85.3491 32.0279C84.8835 35.2795 86.5726 35.7884 87.8601 35.5393C89.3392 35.1405 90.9873 33.5642 91.7522 32.7565C91.5066 33.7039 91.5734 35.3997 92.9188 35.5691C93.841 35.7392 94.5312 35.2387 95.3297 34.8097C98.1941 33.2535 101.623 28.0682 102.513 26.569H101.346C100.081 28.4771 98.4703 30.9791 96.4445 32.1667L96.4442 32.1664ZM52.3149 12.8032H55.5933L57.4436 9.80474H54.1645L52.3149 12.8032ZM104.684 4.83773C102.184 6.25435 99.5933 7.17175 96.4563 6.85267C95.5869 7.83042 94.7405 8.83773 93.9603 9.87496C98.3629 10.9921 103.03 8.5085 105.633 6.14482C108.387 3.76081 109.799 0.758736 109.799 0.758736C109.799 0.758736 107.735 3.11249 104.684 4.83778L104.684 4.83773ZM77.1174 4.07995C76.5961 10.0446 71.9489 13.5462 70.7992 13.8248C70.1024 13.9642 68.9134 13.6553 69.9747 11.152C71.5379 7.78021 74.2066 4.91798 77.07 3.45148C77.1396 3.70089 77.1379 3.86008 77.1173 4.07978L77.1174 4.07995ZM68.0621 19.1113C67.7292 18.3933 66.9388 17.9344 66.0966 17.9842C63.3613 18.2337 60.6859 20.4779 59.2811 23.6997C58.544 25.3556 58.1417 26.722 57.8779 28.8963C58.7284 27.9191 60.4633 26.3133 62.432 25.4355C62.432 25.4355 62.6999 23.3509 64.0659 21.4956C64.5828 20.7273 65.6173 19.4906 66.7789 19.8196C67.7937 20.159 67.437 22.9619 66.0882 25.6742C65.0902 27.6694 63.5629 29.6648 62.0177 31.0409C60.6515 32.198 58.6301 33.5944 56.8616 32.5172C55.7478 31.8592 55.1797 30.4824 55.2997 28.7069C55.8319 23.67 58.13 19.3808 61.4185 14.4933C64.8096 9.95494 68.5476 5.29692 73.5834 2.8126C74.6106 2.29401 75.5617 2.17432 76.3839 2.49354C76.3839 2.49354 71.6569 5.0869 69.4034 9.88491C68.8302 11.102 68.033 12.7473 68.8358 14.2037C69.2553 14.9616 70.0002 15.0216 70.5999 14.9817C73.362 14.3432 75.1464 11.7698 76.6045 9.41607C77.4498 7.63065 78.2012 5.85515 78.2012 3.8799C78.2012 3.64057 78.1887 3.32154 78.1684 3.08188C79.488 2.38396 82.1938 3.62051 82.1938 3.62051C84.3084 4.31898 88.811 7.7604 90.3295 8.41841C91.0703 7.56076 92.2877 6.26418 92.9732 5.61571L91.9809 5.00719C90.3922 4.03963 88.7129 3.1219 87.0599 2.2143C83.3061 0.169819 80.2505 0.887804 78.6954 1.44644C78.0842 1.66573 77.5256 1.85531 77.5256 1.85531C76.3715 0.598593 74.4789 0.717985 73.0843 1.05735C68.069 2.49359 63.4127 5.99449 58.4206 12.0692C54.7503 16.8271 52.4734 20.9369 51.2603 24.9962C50.3249 27.729 50.0407 31.7486 52.3236 34.1326C54.2646 36.1568 56.8384 35.7184 58.6561 34.9904C62.594 33.0554 66.1333 28.8857 67.8971 24.0882C68.3226 22.662 68.795 20.6472 68.0623 19.1109L68.0621 19.1113ZM24.4115 14.4835C24.4049 14.5034 23.7426 16.0193 23.7426 16.0193C23.6469 16.0991 23.4955 16.0593 23.322 16.0193L23.0248 15.9692C22.0914 15.6801 21.3873 15.0616 21.1702 14.3236C20.8708 12.8872 22.1007 11.7601 22.6426 11.3513C23.1625 10.9919 23.9708 10.8025 24.4402 11.1717C24.7296 11.5109 24.8393 11.9496 24.8393 12.4287C24.8395 13.0769 24.6389 13.805 24.4115 14.4835H24.4115ZM22.9889 17.3658C22.9889 17.3658 22.9588 17.4559 22.9439 17.4853C22.9401 17.4853 21.4386 19.9287 21.4386 19.9287C20.5323 21.1358 19.4008 22.6524 17.9864 23.3802C17.5671 23.5199 16.9876 23.6098 16.6924 23.241C16.0663 22.4928 16.389 21.4555 16.6511 20.6177L16.7439 20.3184C17.4955 18.2838 18.688 16.4881 19.8487 14.822C19.8632 14.8122 19.8957 14.8023 19.9075 14.8023C19.9102 14.8123 19.9148 14.8123 19.9169 14.8323C20.6452 16.2284 22.011 16.8765 23.0324 17.1762C23.0386 17.1762 23.0452 17.1861 23.0452 17.2062C23.0453 17.2359 23.0286 17.2761 22.9889 17.3655L22.9889 17.3658ZM41.7726 15.76C42.4442 14.8325 44.3992 12.3488 44.8758 11.9299C46.4787 10.5229 47.1194 11.142 47.1748 11.5806C45.6788 14.2537 43.9133 17.3158 42.2532 20.0688C42.2565 20.059 41.7337 20.8567 41.7337 20.8567C41.0005 21.9737 40.2623 22.9312 39.0582 23.5995C38.8865 23.6496 38.6034 23.6696 38.4151 23.5295C38.1883 23.3799 38.0988 23.1305 38.1244 22.871C38.1965 22.0134 39.0717 19.3906 41.7725 15.7598L41.7726 15.76ZM25.1259 9.69555C23.0536 8.33906 18.8885 10.9324 15.5526 15.3805C12.502 19.3707 11.1847 24.0084 12.6183 26.153C14.7508 28.6765 18.7097 25.006 20.3933 23.0413L20.6105 22.8117C21.7553 21.5848 22.6399 20.1085 23.496 18.692C23.496 18.692 24.2828 17.3953 24.3204 17.3353C24.8067 17.2459 25.3925 17.1062 26.0526 16.9166C26.0432 16.9463 23.5271 21.1657 23.7838 23.2602C23.8638 23.8991 23.8027 26.2331 26.0867 26.9412C29.1308 27.4502 31.5618 25.0959 33.706 23.0012C33.706 23.0012 34.0714 22.6525 34.2781 22.4534C34.2258 22.6623 34.1576 22.941 34.1576 22.941C33.2664 26.0332 34.4677 26.6819 35.2192 26.9214C37.4902 27.58 40.2033 24.2882 40.2121 24.2882C40.1417 25.3251 39.936 26.1829 41.0316 26.8712C42.0657 27.2406 43.1123 26.6776 43.9077 26.1489C46.773 24.134 49.0813 20.9807 50.9456 18.2549H49.7563C49.7422 18.2549 46.8216 22.4783 44.9251 23.3962C44.9224 23.3962 44.5771 23.573 44.3782 23.4331C44.132 23.2235 44.2291 22.7879 44.3809 22.4794C44.3904 22.4592 51.7034 9.80477 51.7034 9.80477H48.2506C48.2506 9.80477 47.8735 10.4136 47.8427 10.4535C47.8195 10.4336 47.7642 10.3289 47.7258 10.2788C45.5866 7.32644 40.742 11.8677 37.0947 17.1337C35.6905 19.1587 33.9028 21.4388 32.049 23.0848C32.049 23.0848 29.3028 25.5963 28.1295 23.7918C27.7005 23.0336 27.8325 21.9252 28.0744 21.1973C29.4406 17.3172 31.7947 13.7961 34.4735 11.671C35.2298 11.0829 36.0517 10.9128 36.4596 11.1623C36.8483 11.3921 36.911 11.9601 36.6651 12.3492C36.0412 12.3293 35.5414 12.5185 35.135 12.9374C34.3345 13.7754 34.0564 14.5834 34.3109 15.3416C35.5473 17.0971 38.0132 13.6259 37.8939 11.5113C37.8513 10.7531 37.4458 10.0351 36.8408 9.68563C35.9391 9.14727 34.5635 9.2867 33.6732 9.71588C32.4815 10.1646 30.595 11.7304 29.4938 12.9475C28.1075 14.4739 25.73 16.1693 24.9865 15.9795C25.23 15.3308 27.2383 11.2315 25.1257 9.69588L25.1259 9.69555ZM42.4813 31.8887C38.4148 29.2752 32.896 28.8166 23.9959 31.2802C14.5079 33.5048 11.3441 34.9308 7.18969 32.0681C5.5936 30.6618 5.02134 28.3976 5.44869 25.1363C6.43979 19.8196 9.118 14.7029 13.8756 9.02772C16.5311 6.07537 18.9941 3.5417 22.2467 2.52442C24.7395 1.88614 24.5064 3.84073 24.2048 4.12023C23.8865 4.12023 23.3518 4.17028 22.9386 4.43929C22.6033 4.69879 21.6827 5.53671 21.6332 6.66385C21.5619 8.3893 23.3517 8.03014 24.1237 7.08281C24.9558 6.01526 26.1855 3.97083 25.2182 2.06547C24.8127 1.38729 24.1122 0.918606 23.2424 0.758981C20.2642 0.589162 17.4903 2.00561 14.9303 3.57161C9.33335 7.45156 4.8549 12.828 2.32115 18.7131C0.860136 22.2639 -0.461105 27.3502 1.51945 31.4901C3.0515 34.3626 6.2322 35.8884 10.0272 35.5694C12.6887 35.2904 15.9067 34.4321 18.0716 33.914C20.236 33.395 31.3157 29.595 34.9565 36.2086C34.9565 36.2086 36.1671 33.8639 39.1924 33.8139C41.6797 33.585 45.2681 34.5323 47.881 36.4471C47.0105 35.1409 44.5423 33.2158 42.4832 31.8889L42.4813 31.8887Z" fill="#F40009"/>
</svg>
