<svg width="23" height="21" viewBox="0 0 23 21" id="heart" fill="none" xmlns="http://www.w3.org/2000/svg">
<path d="M16.8906 0C15.6426 0 14.4983 0.395492 13.4897 1.17552C12.5228 1.92333 11.879 2.87581 11.5 3.56841C11.121 2.87576 10.4772 1.92333 9.51028 1.17552C8.50169 0.395492 7.35744 0 6.10938 0C2.62649 0 0 2.84881 0 6.62661C0 10.7079 3.27674 13.5003 8.23728 17.7276C9.07965 18.4455 10.0345 19.2592 11.0269 20.1271C11.1577 20.2416 11.3257 20.3047 11.5 20.3047C11.6743 20.3047 11.8423 20.2416 11.9731 20.1271C12.9656 19.2591 13.9204 18.4455 14.7633 17.7272C19.7233 13.5003 23 10.7079 23 6.62661C23 2.84881 20.3735 0 16.8906 0Z" fill="#FA4616"/>
</svg>
