<svg width="26" height="23" viewBox="0 0 26 23" id="list-menu" fill="none" xmlns="http://www.w3.org/2000/svg">
<path d="M9.73387 4.03823L25.1714 4.0545C25.6199 4.0545 25.9838 3.69048 25.9838 3.24203C25.9838 2.79351 25.6198 2.42955 25.1714 2.42955L9.73387 2.41327C9.28535 2.41327 8.92139 2.7773 8.92139 3.22575C8.92139 3.6742 9.28535 4.03823 9.73387 4.03823Z" fill="#919191"/>
<path d="M25.1875 10.5463L9.74998 10.53C9.30146 10.53 8.9375 10.8941 8.9375 11.3425C8.9375 11.791 9.30153 12.155 9.74998 12.155L25.1875 12.1713C25.636 12.1713 26 11.8072 26 11.3588C26 10.9103 25.636 10.5463 25.1875 10.5463Z" fill="#919191"/>
<path d="M25.1875 18.6714L9.74998 18.6551C9.30146 18.6551 8.9375 19.0191 8.9375 19.4676C8.9375 19.916 9.30153 20.28 9.74998 20.28L25.1875 20.2963C25.636 20.2963 26 19.9323 26 19.4838C26 19.0353 25.636 18.6714 25.1875 18.6714Z" fill="#919191"/>
<path d="M3.24188 0C1.45112 0 0 1.45112 0 3.24188C0 5.03264 1.45112 6.48376 3.24188 6.48376C5.03264 6.48376 6.48376 5.03264 6.48376 3.24188C6.48376 1.45112 5.03264 0 3.24188 0ZM3.23377 4.8669C2.32053 4.8669 1.58849 4.15512 1.58849 3.24188C1.58849 2.32863 2.32053 1.61685 3.23377 1.61685C4.14702 1.61685 4.85873 2.32863 4.85873 3.24188C4.85873 4.15512 4.14702 4.8669 3.23377 4.8669Z" fill="#919191"/>
<path d="M3.24188 8.12482C1.45112 8.12482 0 9.57593 0 11.3667C0 13.1575 1.45112 14.6086 3.24188 14.6086C5.03264 14.6086 6.48376 13.1575 6.48376 11.3667C6.48376 9.57593 5.03264 8.12482 3.24188 8.12482ZM3.23377 12.9917C2.32053 12.9917 1.58849 12.2799 1.58849 11.3667C1.58849 10.4534 2.32053 9.74167 3.23377 9.74167C4.14702 9.74167 4.8588 10.4534 4.8588 11.3667C4.85873 12.2799 4.14702 12.9917 3.23377 12.9917Z" fill="#919191"/>
<path d="M3.24188 16.2338C1.45112 16.2338 0 17.6849 0 19.4756C0 21.2664 1.45112 22.7175 3.24188 22.7175C5.03264 22.7175 6.48376 21.2664 6.48376 19.4756C6.48376 17.6849 5.03264 16.2338 3.24188 16.2338ZM3.23377 21.1006C2.32053 21.1006 1.58849 20.3888 1.58849 19.4756C1.58849 18.5623 2.32053 17.8506 3.23377 17.8506C4.14702 17.8506 4.8588 18.5623 4.8588 19.4756C4.8588 20.3888 4.14702 21.1006 3.23377 21.1006Z" fill="#919191"/>
</svg>
