<svg width="108" height="19" viewBox="0 0 108 19" fill="none" xmlns="http://www.w3.org/2000/svg">
<path d="M9.22613 0.200195L11.2975 6.57529H18.0007L12.5777 10.5153L14.6491 16.8904L9.22613 12.9504L3.80314 16.8904L5.87454 10.5153L0.451559 6.57529H7.15473L9.22613 0.200195Z" fill="#FA4616"/>
<path d="M31.5635 0.200195L33.6349 6.57529H40.3381L34.9151 10.5153L36.9865 16.8904L31.5635 12.9504L26.1405 16.8904L28.2119 10.5153L22.789 6.57529H29.4921L31.5635 0.200195Z" fill="#FA4616"/>
<path d="M53.9009 0.200195L55.9723 6.57529H62.6755L57.2525 10.5153L59.3239 16.8904L53.9009 12.9504L48.4779 16.8904L50.5493 10.5153L45.1264 6.57529H51.8295L53.9009 0.200195Z" fill="#FA4616"/>
<path d="M76.2359 0.200195L78.3073 6.57529H85.0105L79.5875 10.5153L81.6589 16.8904L76.2359 12.9504L70.8129 16.8904L72.8843 10.5153L67.4613 6.57529H74.1645L76.2359 0.200195Z" fill="#FA4616"/>
<path d="M98.5733 0.200195L100.645 6.57529H107.348L101.925 10.5153L103.996 16.8904L98.5733 12.9504L93.1503 16.8904L95.2217 10.5153L89.7987 6.57529H96.5019L98.5733 0.200195Z" fill="#D1D1D1"/>
</svg>
