<svg xmlns="http://www.w3.org/2000/svg" viewBox="0 0 158 67" width="158" height="67">
	<style>
		tspan { white-space:pre }
		.shp0 { fill: #68b0c9 } 
	</style>
	<g id="3">
		<path id="arrow" fill-rule="evenodd" class="shp0" d="M13.87 15.98L12.15 16.99L9.11 11.91C8.13 12.35 7 12.49 5.86 12.22C3.17 11.59 1.5 8.91 2.13 6.24C2.76 3.57 5.45 1.93 8.14 2.56C10.84 3.2 12.51 5.88 11.88 8.54C11.68 9.39 11.27 10.13 10.73 10.72L13.87 15.98ZM16.22 19.57L19.87 25.52L18.16 26.55L14.51 20.6L16.22 19.57ZM22.88 29.47L27.01 35.1L25.39 36.26L21.26 30.63L22.88 29.47ZM31.48 39L36.45 43.93L35.03 45.33L30.07 40.4L31.48 39ZM41.16 48.79L46.75 53.01L45.54 54.59L39.96 50.37L41.16 48.79ZM52.27 56.06L58.53 59.21L57.63 60.98L51.37 57.83L52.27 56.06ZM81.15 63.02L88.16 63.24L88.1 65.22L81.1 65.01L81.15 63.02ZM93.44 63.21L100.44 62.78L100.57 64.76L93.58 65.19L93.44 63.21ZM107.44 60.67L114.38 59.73L114.65 61.7L107.71 62.64L107.44 60.67ZM120.7 57.25L127.39 55.22L127.98 57.12L121.29 59.15L120.7 57.25ZM132.1 53.38L138.36 50.28L139.26 52.06L133 55.16L132.1 53.38ZM142.78 48.06L152.41 40.85L142.51 40.02L142.68 38.04L154.56 39.04L154.8 38.28L156.59 39.16L156.21 40.39L156.25 40.46L156.16 40.52L152.54 52.01L150.74 51.13L153.44 42.56L143.85 49.75L142.78 48.06ZM4.08 6.7C3.7 8.3 4.7 9.91 6.32 10.29C7.93 10.67 9.55 9.68 9.93 8.08C10.3 6.48 9.3 4.88 7.69 4.49C6.07 4.11 4.46 5.1 4.08 6.7ZM65.26 60.93L73.19 62.21L73.13 64.2L65.2 62.91L65.26 60.93Z" />
	</g>
</svg>