<svg xmlns="http://www.w3.org/2000/svg" viewBox="0 0 26 23" width="26" height="23">
	<style>
		tspan { white-space:pre }
		.shp0 { fill: #68b0c9 } 
	</style>
	<g id="3">
		<g id="текст">
			<path id="present" fill-rule="evenodd" class="shp0" d="M4 13C4 13 2.02 13.54 2 10C1.97 6.4 6 7 6 7L8 7C8 7 5.1 6.6 5 5C4.87 2.91 7.19 2.09 8 2C11.08 1.67 11.94 5 11.94 5L13.97 5.01C13.97 5.01 16.34 2.02 18 2C19.85 1.98 20.97 2.81 21.06 5.3C21.11 6.66 19 7 19 7L22 7C22 7 23.98 7.12 24 10C24.02 12.34 22 13 22 13L22 22L4 22L4 13ZM6 20L11 20L11 14L6 14L6 20ZM15 14L15 20L20 20L20 14L15 14ZM5 9C5 9 3.9 9.14 4 11C4.06 12.12 5 12 5 12L11 12L11 9L5 9ZM15 9L15 12L21 12C21 12 21.93 12.1 22 11C22.14 8.93 21 9 21 9L15 9ZM10 4C9.31 3.12 7.06 3.66 7 5C6.94 6.34 11 6 11 6C11 6 10.69 4.87 10 4ZM19 6C20.22 5.44 19.34 4.09 18 4C16.66 3.91 15 6 15 6C15 6 17.78 6.56 19 6Z" />
		</g>
	</g>
</svg>