<?xml version="1.0" encoding="utf-8"?><svg viewBox="0 0 50 48" xmlns="http://www.w3.org/2000/svg" xmlns:xlink="http://www.w3.org/1999/xlink"><style>:root>svg{display:none}:root>svg:target{display:block}</style><svg fill="none" viewBox="0 0 50 48" id="AddPost" xmlns="http://www.w3.org/2000/svg"><path d="M34.82 8.359l-7.038-6.95a4.795 4.795 0 00-3.36-1.37H4.993C2.386.038.266 2.11.266 4.658V40.76c0 2.548 2.12 4.621 4.726 4.621h25.217c.86.695 1.815 1.262 2.85 1.69a11.7 11.7 0 004.494.888c1.557 0 3.069-.299 4.494-.888a11.518 11.518 0 003.668-2.417 11.231 11.231 0 002.472-3.586c.603-1.393.908-2.871.908-4.393 0-1.522-.305-3-.908-4.394a11.23 11.23 0 00-2.472-3.585 11.516 11.516 0 00-3.668-2.417 11.7 11.7 0 00-4.494-.888c-.46 0-.916.026-1.367.078V11.61c0-1.225-.485-2.38-1.367-3.25zm-3.692 1.194H26.84a1.25 1.25 0 01-.88-.357 1.195 1.195 0 01-.364-.86l.003-4.243 5.528 5.46zM4.992 41.976c-.687 0-1.244-.544-1.244-1.216V4.66c0-.672.557-1.216 1.244-1.216h17.126l-.003 4.89c-.001 1.235.49 2.396 1.383 3.27a4.75 4.75 0 003.343 1.354h5.862v13.476a11.503 11.503 0 00-3.312 2.262 11.235 11.235 0 00-2.472 3.586 11.002 11.002 0 00-.909 4.394 11.002 11.002 0 001.352 5.301H4.992zm32.561 2.578a8.206 8.206 0 01-2.796-.487 8.08 8.08 0 01-3.172-2.097 7.754 7.754 0 01-2.092-5.295c0-2.572 1.26-4.856 3.21-6.294a8.115 8.115 0 013.483-1.472c.444-.075.9-.114 1.367-.114 4.451 0 8.06 3.528 8.06 7.88 0 4.351-3.609 7.88-8.06 7.88z" fill="#FA4616"/><path d="M37.556 48c-1.563 0-3.08-.3-4.51-.891a11.596 11.596 0 01-2.849-1.687H4.995c-2.629 0-4.767-2.09-4.767-4.66V4.66C.228 2.09 2.366 0 4.995 0h19.43a4.837 4.837 0 013.389 1.382l7.037 6.95a4.58 4.58 0 011.378 3.279v13.815c.44-.049.886-.074 1.327-.074 1.562 0 3.08.3 4.51.892 1.379.57 2.617 1.386 3.68 2.425a11.271 11.271 0 012.48 3.598c.606 1.399.913 2.882.913 4.41 0 1.527-.307 3.01-.912 4.408a11.27 11.27 0 01-2.481 3.598 11.558 11.558 0 01-3.68 2.426c-1.431.591-2.949.891-4.51.891zM4.995.08C2.41.08.309 2.133.309 4.66v36.102c0 2.526 2.102 4.58 4.686 4.58h25.231l.012.01a11.51 11.51 0 002.84 1.684c1.42.587 2.926.885 4.478.885a11.66 11.66 0 004.478-.885c1.37-.567 2.6-1.377 3.654-2.409a11.192 11.192 0 002.464-3.573c.6-1.388.905-2.861.905-4.378 0-1.516-.304-2.99-.905-4.378a11.19 11.19 0 00-2.464-3.573 11.475 11.475 0 00-3.654-2.408 11.658 11.658 0 00-4.478-.885c-.453 0-.911.026-1.362.078l-.046.005V11.611c0-1.215-.481-2.36-1.355-3.223l-7.037-6.95A4.753 4.753 0 0024.426.08H4.995zm32.56 44.515a8.236 8.236 0 01-2.81-.49 8.153 8.153 0 01-3.188-2.107 7.803 7.803 0 01-2.102-5.322c0-2.507 1.176-4.813 3.227-6.325a8.198 8.198 0 014.874-1.594c4.466 0 8.1 3.552 8.1 7.92 0 4.366-3.634 7.918-8.1 7.918zm0-15.759a8.117 8.117 0 00-4.825 1.578c-2.03 1.497-3.194 3.78-3.194 6.262 0 1.953.74 3.824 2.081 5.269a8.071 8.071 0 003.157 2.086c.89.322 1.825.485 2.782.485 4.421 0 8.019-3.517 8.019-7.84s-3.598-7.84-8.02-7.84zM27.433 42.017H4.995c-.709 0-1.285-.563-1.285-1.255V4.66c0-.692.576-1.255 1.285-1.255H22.16l-.003 4.93a4.5 4.5 0 001.371 3.241 4.71 4.71 0 003.314 1.343h5.904V26.46l-.024.011a11.472 11.472 0 00-3.3 2.254 11.193 11.193 0 00-2.464 3.573 10.963 10.963 0 00-.905 4.378A10.96 10.96 0 0027.4 41.96l.031.058zM4.995 3.484c-.664 0-1.204.528-1.204 1.176v36.102c0 .648.54 1.176 1.204 1.176h22.302a11.04 11.04 0 01-1.325-5.262c0-1.527.307-3.01.912-4.409a11.272 11.272 0 012.481-3.598c.962-.94 2.072-1.7 3.3-2.26V13h-5.822a4.791 4.791 0 01-3.372-1.366 4.578 4.578 0 01-1.395-3.298l.004-4.85H4.995zm26.233 6.11h-4.385c-.343 0-.665-.13-.908-.368a1.233 1.233 0 01-.376-.889l.003-4.34 5.666 5.597zm-5.585-5.403l-.003 4.147c0 .314.125.61.352.832.228.222.53.345.851.345h4.19l-5.39-5.324z" fill="#FA4616"/><path d="M8.798 12.294h8.856c.961 0 1.741-.762 1.741-1.702s-.78-1.703-1.741-1.703H8.798c-.962 0-1.741.763-1.741 1.703 0 .94.78 1.702 1.74 1.702z" fill="#FA4616"/><path d="M17.656 12.335H8.801c-.983 0-1.782-.781-1.782-1.742 0-.96.799-1.742 1.781-1.742h8.856c.983 0 1.782.782 1.782 1.742 0 .961-.8 1.742-1.782 1.742zM8.801 8.931c-.938 0-1.701.746-1.701 1.662 0 .917.763 1.663 1.7 1.663h8.856c.938 0 1.7-.746 1.7-1.663 0-.916-.762-1.662-1.7-1.662H8.801zM8.798 24.388h18.809c.961 0 1.741-.763 1.741-1.703 0-.94-.78-1.702-1.741-1.702H8.797c-.96 0-1.74.762-1.74 1.702s.78 1.703 1.74 1.703z" fill="#FA4616"/><path d="M27.61 24.429H8.8c-.982 0-1.781-.781-1.781-1.742 0-.96.799-1.742 1.781-1.742h18.81c.982 0 1.781.781 1.781 1.742 0 .96-.8 1.742-1.782 1.742zM8.8 21.024c-.937 0-1.7.746-1.7 1.663s.763 1.662 1.7 1.662h18.81c.937 0 1.7-.745 1.7-1.662 0-.917-.763-1.663-1.7-1.663H8.8zM22.225 33.125H8.798c-.962 0-1.741.762-1.741 1.702s.78 1.703 1.74 1.703h13.428c.962 0 1.741-.763 1.741-1.703 0-.94-.78-1.702-1.741-1.702z" fill="#FA4616"/><path d="M22.227 36.57H8.8c-.982 0-1.781-.78-1.781-1.741 0-.96.799-1.742 1.781-1.742h13.427c.983 0 1.782.781 1.782 1.742 0 .96-.8 1.742-1.782 1.742zM8.8 33.167c-.937 0-1.7.746-1.7 1.663 0 .916.763 1.662 1.7 1.662h13.427c.938 0 1.701-.745 1.701-1.662 0-.917-.763-1.663-1.7-1.663H8.8zM41.483 34.972h-2.19v-2.14c0-.94-.779-1.702-1.74-1.702-.555 0-1.048.253-1.367.648a1.67 1.67 0 00-.375 1.054v2.14h-2.189c-.337 0-.652.094-.919.257-.493.3-.822.835-.822 1.446 0 .61.329 1.145.822 1.445.267.163.582.257.92.257h2.188v2.14c0 .363.117.7.315.976.315.439.836.726 1.427.726.961 0 1.74-.762 1.74-1.702v-2.14h2.19c.962 0 1.741-.762 1.741-1.703 0-.94-.78-1.702-1.741-1.702z" fill="#FA4616"/><path d="M37.555 42.26c-.58 0-1.126-.277-1.46-.743a1.704 1.704 0 01-.322-.998v-2.1h-2.148c-.334 0-.659-.092-.94-.263a1.725 1.725 0 01-.842-1.48c0-.605.314-1.159.841-1.48.282-.171.608-.262.94-.262h2.15v-2.1a1.7 1.7 0 01.382-1.08c.341-.42.851-.662 1.4-.662.982 0 1.781.781 1.781 1.742v2.1h2.148c.983 0 1.782.782 1.782 1.742s-.799 1.742-1.782 1.742h-2.148v2.1c0 .961-.8 1.743-1.782 1.743zm-3.93-7.246c-.318 0-.629.086-.898.25a1.646 1.646 0 00-.803 1.412c0 .578.3 1.106.803 1.412.27.164.58.25.898.25h2.23v2.18c0 .344.106.673.307.953.319.445.84.71 1.393.71.938 0 1.7-.746 1.7-1.662v-2.18h2.23c.938 0 1.701-.746 1.701-1.663s-.763-1.663-1.7-1.663h-2.23v-2.18c0-.916-.763-1.662-1.7-1.662-.524 0-1.01.23-1.336.633-.239.296-.365.652-.365 1.03v2.18h-2.23z" fill="#FA4616"/></svg><svg fill="none" viewBox="0 0 22 21" id="acc" xmlns="http://www.w3.org/2000/svg"><g clip-path="url(#abclip0)" fill="#6F6F6F"><path d="M10.74 0C4.818 0 0 4.71 0 10.5S4.818 21 10.74 21c5.922 0 10.74-4.71 10.74-10.5S16.662 0 10.74 0zm0 19.338c-4.985 0-9.04-3.965-9.04-8.838 0-4.873 4.055-8.838 9.04-8.838 4.985 0 9.04 3.965 9.04 8.838 0 4.873-4.055 8.838-9.04 8.838z"/><path d="M10.74 12.363c-3.02 0-5.846 1.48-7.957 4.17l1.35 1.011c1.78-2.269 4.128-3.519 6.608-3.519 2.48 0 4.826 1.25 6.608 3.52l1.349-1.013c-2.111-2.688-4.937-4.169-7.957-4.169z"/><path d="M10.74 3.768c-2.438 0-4.42 1.951-4.42 4.35 0 2.398 1.982 4.349 4.42 4.349 2.438 0 4.42-1.951 4.42-4.35 0-2.398-1.982-4.35-4.42-4.35zm0 7.037c-1.5 0-2.72-1.206-2.72-2.688 0-1.482 1.22-2.687 2.72-2.687 1.5 0 2.72 1.206 2.72 2.687 0 1.482-1.22 2.688-2.72 2.688z"/></g><defs><clipPath id="abclip0"><path fill="#fff" d="M0 0h21.48v21H0z"/></clipPath></defs></svg><svg fill="none" viewBox="0 0 22 21" id="acc_active" xmlns="http://www.w3.org/2000/svg"><g clip-path="url(#acclip0)" fill="#FA4616"><path d="M10.74 0C4.818 0 0 4.71 0 10.5S4.818 21 10.74 21c5.922 0 10.74-4.71 10.74-10.5S16.662 0 10.74 0zm0 19.338c-4.985 0-9.04-3.965-9.04-8.838 0-4.873 4.055-8.838 9.04-8.838 4.985 0 9.04 3.965 9.04 8.838 0 4.873-4.055 8.838-9.04 8.838z"/><path d="M10.74 12.363c-3.02 0-5.846 1.48-7.957 4.17l1.35 1.011c1.78-2.269 4.128-3.519 6.608-3.519 2.48 0 4.826 1.25 6.608 3.52l1.349-1.013c-2.111-2.688-4.937-4.169-7.957-4.169z"/><path d="M10.74 3.768c-2.438 0-4.42 1.951-4.42 4.35 0 2.398 1.982 4.349 4.42 4.349 2.438 0 4.42-1.951 4.42-4.35 0-2.398-1.982-4.35-4.42-4.35zm0 7.037c-1.5 0-2.72-1.206-2.72-2.688 0-1.482 1.22-2.687 2.72-2.687 1.5 0 2.72 1.206 2.72 2.687 0 1.482-1.22 2.688-2.72 2.688z"/></g><defs><clipPath id="acclip0"><path fill="#fff" d="M0 0h21.48v21H0z"/></clipPath></defs></svg><svg fill="none" viewBox="0 0 26 26" id="bell" xmlns="http://www.w3.org/2000/svg"><path d="M23.756 21.93l-1.86-3.1a9.216 9.216 0 01-1.313-4.739v-2.716c0-4.18-3.403-7.583-7.583-7.583s-7.583 3.402-7.583 7.583v2.716c0 1.67-.454 3.307-1.312 4.739l-1.862 3.1a.541.541 0 00.465.82h20.584a.543.543 0 00.464-.82zm-20.091-.263l1.368-2.28A10.29 10.29 0 006.5 14.09v-2.716c0-3.585 2.915-6.5 6.5-6.5s6.5 2.915 6.5 6.5v2.716c0 1.866.507 3.696 1.466 5.295l1.369 2.28H3.665z" fill="#585F68"/><path d="M13 0a2.169 2.169 0 00-2.167 2.167v2.166a.542.542 0 001.083 0V2.167a1.084 1.084 0 012.167 0v2.166a.542.542 0 001.083 0V2.167A2.169 2.169 0 0013 0zM15.345 21.934a.542.542 0 10-.936.548 1.627 1.627 0 01-1.407 2.434 1.627 1.627 0 01-1.626-1.625c0-.282.077-.57.218-.809a.544.544 0 00-.194-.742.545.545 0 00-.742.194 2.69 2.69 0 00-.366 1.358A2.71 2.71 0 0013 26a2.714 2.714 0 002.71-2.708 2.69 2.69 0 00-.365-1.358z" fill="#585F68"/></svg><svg fill="none" viewBox="0 0 19 19" id="calendar" xmlns="http://www.w3.org/2000/svg"><path d="M4.75 0a.679.679 0 00-.679.679v1.357h1.357V.679A.679.679 0 004.75 0zM14.25 0a.679.679 0 00-.679.679v1.357h1.357V.679A.678.678 0 0014.25 0z" fill="#787878"/><path d="M16.964 2.036H14.93V4.75a.679.679 0 11-1.358 0V2.036H5.43V4.75a.679.679 0 11-1.358 0V2.036H2.036A2.036 2.036 0 000 4.07v12.893C0 18.09.911 19 2.036 19h14.928A2.036 2.036 0 0019 16.964V4.071a2.036 2.036 0 00-2.036-2.035zm.679 14.928a.679.679 0 01-.679.679H2.036a.679.679 0 01-.679-.679V8.143h16.286v8.821z" fill="#787878"/><path d="M14.052 9.7a.679.679 0 00-.96-.001l-4.949 4.949-2.235-2.235a.679.679 0 00-.959.96l2.714 2.715a.679.679 0 00.96 0l5.428-5.429a.679.679 0 000-.96z" fill="#787878"/></svg><svg fill="none" viewBox="0 0 18 18" id="clock" xmlns="http://www.w3.org/2000/svg"><path d="M10.818 16.395c-.148.037-.3.07-.45.097a.724.724 0 00.264 1.423c.179-.033.359-.072.536-.116a.723.723 0 10-.35-1.404zM16.169 6.696a.721.721 0 00.914.46.724.724 0 00.46-.915 8.998 8.998 0 00-.188-.515.724.724 0 10-1.344.537c.057.142.11.287.158.433zM13.17 15.362c-.128.084-.26.165-.393.242a.724.724 0 00.723 1.253c.158-.09.315-.187.467-.288a.724.724 0 00-.798-1.207zM17.994 8.717a.724.724 0 00-1.447.057c.006.152.008.307.005.46a.723.723 0 101.446.032 8.97 8.97 0 00-.005-.55zM16.052 13.458a.723.723 0 00-1.014.145 7.562 7.562 0 01-.287.36.724.724 0 001.102.938c.118-.14.233-.284.343-.43a.724.724 0 00-.145-1.013zM17.115 10.842a.724.724 0 00-.906.474 7.703 7.703 0 01-.152.436.724.724 0 001.353.515c.064-.17.125-.345.18-.518a.724.724 0 00-.475-.907zM7.661 16.499a7.477 7.477 0 01-1.856-.59l-.02-.011a7.89 7.89 0 01-.414-.21 7.73 7.73 0 01-.72-.45C1.247 12.841.43 8.122 2.827 4.717A7.52 7.52 0 014.683 2.87l.026-.018a7.564 7.564 0 018.477-.068l-.565.817c-.158.227-.06.393.214.368l2.456-.22a.405.405 0 00.366-.529l-.66-2.376c-.073-.266-.262-.298-.42-.07l-.566.818A8.936 8.936 0 006.777.346h-.004l-.026.008A8.923 8.923 0 001.799 3.67l-.03.038a8.476 8.476 0 00-.313.451l-.02.035A8.921 8.921 0 00.008 9.456v.018c.008.182.023.366.042.547.001.012.004.023.006.035a8.93 8.93 0 002.595 5.39l.01.01.003.002c.354.35.739.672 1.153.964a8.922 8.922 0 003.588 1.501.723.723 0 10.255-1.424z" fill="#787878"/><path d="M8.556 3.22a.586.586 0 00-.585.585v5.833l5.334 2.757a.583.583 0 00.79-.251.585.585 0 00-.252-.789L9.14 8.925v-5.12a.585.585 0 00-.585-.586z" fill="#787878"/></svg><svg fill="none" viewBox="0 0 21 20" id="close" xmlns="http://www.w3.org/2000/svg"><path d="M20.001 1.197l-19 17.34m0-17.34l19 17.34" stroke="#5E5E5E" stroke-width="1.49"/></svg><svg fill="none" viewBox="0 0 23 22" id="dashboard" xmlns="http://www.w3.org/2000/svg"><g clip-path="url(#ahclip0)" fill="#6F6F6F"><path d="M8.673 7.333H1.641C.736 7.333 0 6.613 0 5.73V1.604C0 .72.736 0 1.64 0h7.033c.905 0 1.641.72 1.641 1.604V5.73c0 .885-.736 1.604-1.64 1.604zM1.641 1.375a.232.232 0 00-.235.23v4.124c0 .127.106.23.235.23h7.032c.13 0 .235-.103.235-.23V1.604a.232.232 0 00-.235-.229H1.641zM8.673 22H1.641C.736 22 0 21.28 0 20.396V10.77c0-.885.736-1.604 1.64-1.604h7.033c.905 0 1.641.72 1.641 1.604v9.625c0 .884-.736 1.604-1.64 1.604zM1.641 10.542a.232.232 0 00-.235.229v9.625c0 .126.106.229.235.229h7.032c.13 0 .235-.103.235-.23v-9.624a.232.232 0 00-.235-.23H1.641zM20.863 22H13.83c-.905 0-1.64-.72-1.64-1.604V16.27c0-.885.736-1.604 1.64-1.604h7.033c.904 0 1.64.72 1.64 1.604v4.125c0 .884-.736 1.604-1.64 1.604zm-7.033-5.958a.232.232 0 00-.234.229v4.125c0 .126.105.229.234.229h7.033c.129 0 .234-.103.234-.23v-4.124a.232.232 0 00-.234-.23H13.83zM20.863 12.833H13.83c-.905 0-1.64-.72-1.64-1.604V1.604C12.19.72 12.926 0 13.83 0h7.033c.904 0 1.64.72 1.64 1.604v9.625c0 .885-.736 1.604-1.64 1.604zM13.83 1.375a.232.232 0 00-.234.23v9.624c0 .127.105.23.234.23h7.033c.129 0 .234-.103.234-.23V1.604a.232.232 0 00-.234-.229H13.83z"/></g><defs><clipPath id="ahclip0"><path fill="#fff" d="M0 0h22.503v22H0z"/></clipPath></defs></svg><svg fill="none" viewBox="0 0 23 22" id="dashboard_active" xmlns="http://www.w3.org/2000/svg"><g clip-path="url(#aiclip0)" fill="#FA4616"><path d="M8.673 7.333H1.641C.736 7.333 0 6.613 0 5.73V1.604C0 .72.736 0 1.64 0h7.033c.905 0 1.641.72 1.641 1.604V5.73c0 .885-.736 1.604-1.64 1.604zM1.641 1.375a.232.232 0 00-.235.23v4.124c0 .127.106.23.235.23h7.032c.13 0 .235-.103.235-.23V1.604a.232.232 0 00-.235-.229H1.641zM8.673 22H1.641C.736 22 0 21.28 0 20.396V10.77c0-.885.736-1.604 1.64-1.604h7.033c.905 0 1.641.72 1.641 1.604v9.625c0 .884-.736 1.604-1.64 1.604zM1.641 10.542a.232.232 0 00-.235.229v9.625c0 .126.106.229.235.229h7.032c.13 0 .235-.103.235-.23v-9.624a.232.232 0 00-.235-.23H1.641zM20.863 22H13.83c-.905 0-1.64-.72-1.64-1.604V16.27c0-.885.736-1.604 1.64-1.604h7.033c.904 0 1.64.72 1.64 1.604v4.125c0 .884-.736 1.604-1.64 1.604zm-7.033-5.958a.232.232 0 00-.234.229v4.125c0 .126.105.229.234.229h7.033c.129 0 .234-.103.234-.23v-4.124a.232.232 0 00-.234-.23H13.83zM20.863 12.833H13.83c-.905 0-1.64-.72-1.64-1.604V1.604C12.19.72 12.926 0 13.83 0h7.033c.904 0 1.64.72 1.64 1.604v9.625c0 .885-.736 1.604-1.64 1.604zM13.83 1.375a.232.232 0 00-.234.23v9.624c0 .127.105.23.234.23h7.033c.129 0 .234-.103.234-.23V1.604a.232.232 0 00-.234-.229H13.83z"/></g><defs><clipPath id="aiclip0"><path fill="#fff" d="M0 0h22.503v22H0z"/></clipPath></defs></svg><svg fill="none" viewBox="0 0 9 13" id="dropdown_menu" xmlns="http://www.w3.org/2000/svg"><path d="M2.168 13A1.612 1.612 0 011 10.28l3.605-3.791-3.6-3.764A1.611 1.611 0 013.333.496l4.662 4.874c.595.622.596 1.6.004 2.224l-4.662 4.904a1.61 1.61 0 01-1.169.5z" fill="#FA4616"/></svg><svg fill="none" viewBox="0 0 22 19" id="fav" xmlns="http://www.w3.org/2000/svg"><path d="M19.913 2.046C18.853.871 17.383.224 15.775.224c-2.264 0-3.697 1.321-4.5 2.43a8.018 8.018 0 00-.535.848 8.018 8.018 0 00-.534-.848c-.804-1.109-2.237-2.43-4.5-2.43-1.61 0-3.08.647-4.139 1.822C.557 3.167 0 4.67 0 6.274c0 1.748.698 3.373 2.196 5.115 1.34 1.557 3.266 3.162 5.496 5.02.831.693 1.691 1.409 2.606 2.191l.028.024a.637.637 0 00.829 0l.027-.024c.915-.782 1.775-1.498 2.606-2.191 2.23-1.858 4.157-3.463 5.496-5.02 1.499-1.742 2.196-3.367 2.196-5.115 0-1.605-.556-3.107-1.567-4.228zm-6.941 13.426a289.64 289.64 0 00-2.232 1.873c-.777-.661-1.515-1.276-2.232-1.873-4.365-3.637-7.25-6.04-7.25-9.198 0-1.305.446-2.518 1.253-3.414a4.243 4.243 0 013.195-1.406c1.725 0 2.84 1.04 3.472 1.911a7.23 7.23 0 01.964 1.873.628.628 0 00.598.425.628.628 0 00.598-.425c.101-.303.397-1.09.964-1.873.632-.872 1.747-1.91 3.473-1.91 1.242 0 2.377.498 3.194 1.405.808.896 1.253 2.109 1.253 3.414 0 3.159-2.884 5.561-7.25 9.198z" fill="#6F6F6F"/></svg><svg fill="none" viewBox="0 0 22 19" id="fav_active" xmlns="http://www.w3.org/2000/svg"><path d="M19.913 2.046C18.853.871 17.383.224 15.775.224c-2.264 0-3.697 1.321-4.5 2.43a8.018 8.018 0 00-.535.848 8.018 8.018 0 00-.534-.848c-.804-1.109-2.237-2.43-4.5-2.43-1.61 0-3.08.647-4.139 1.822C.557 3.167 0 4.67 0 6.274c0 1.748.698 3.373 2.196 5.115 1.34 1.557 3.266 3.162 5.496 5.02.831.693 1.691 1.409 2.606 2.191l.028.024a.637.637 0 00.829 0l.027-.024c.915-.782 1.775-1.498 2.606-2.191 2.23-1.858 4.157-3.463 5.496-5.02 1.499-1.742 2.196-3.367 2.196-5.115 0-1.605-.556-3.107-1.567-4.228zm-6.941 13.426a289.64 289.64 0 00-2.232 1.873c-.777-.661-1.515-1.276-2.232-1.873-4.365-3.637-7.25-6.04-7.25-9.198 0-1.305.446-2.518 1.253-3.414a4.243 4.243 0 013.195-1.406c1.725 0 2.84 1.04 3.472 1.911a7.23 7.23 0 01.964 1.873.628.628 0 00.598.425.628.628 0 00.598-.425c.101-.303.397-1.09.964-1.873.632-.872 1.747-1.91 3.473-1.91 1.242 0 2.377.498 3.194 1.405.808.896 1.253 2.109 1.253 3.414 0 3.159-2.884 5.561-7.25 9.198z" fill="#FA4616"/></svg><svg fill="none" viewBox="0 0 23 21" id="heart_red" xmlns="http://www.w3.org/2000/svg"><path d="M16.892.966a5.63 5.63 0 00-3.401 1.117c-.967.71-1.611 1.615-1.99 2.273-.379-.658-1.023-1.563-1.99-2.273a5.63 5.63 0 00-3.4-1.117C2.626.966 0 3.672 0 7.261c0 3.877 3.277 6.53 8.237 10.545.843.681 1.797 1.454 2.79 2.279a.74.74 0 00.473.169.74.74 0 00.473-.17c.993-.824 1.947-1.596 2.79-2.279 4.96-4.015 8.237-6.667 8.237-10.544 0-3.589-2.627-6.295-6.11-6.295z" fill="#FA4616"/></svg><svg fill="none" viewBox="0 0 39 41" id="in" xmlns="http://www.w3.org/2000/svg"><path d="M36.214.714H2.777C1.245.714 0 1.996 0 3.57v33.89c0 1.574 1.245 2.855 2.777 2.855h33.437c1.532 0 2.786-1.281 2.786-2.855V3.57C39 1.996 37.746.714 36.214.714zM11.787 34.657h-5.78V15.76h5.789v18.898h-.009zm-2.89-21.48c-1.854 0-3.352-1.528-3.352-3.402S7.043 6.37 8.897 6.37c1.845 0 3.351 1.53 3.351 3.404 0 1.882-1.497 3.403-3.351 3.403zm24.558 21.48h-5.78v-9.193c0-2.192-.044-5.012-3.004-5.012-3.012 0-3.473 2.387-3.473 4.853v9.352h-5.78V15.76h5.544v2.58h.079c.775-1.484 2.664-3.049 5.476-3.049 5.85 0 6.938 3.916 6.938 9.008v10.36z" fill="#fff"/></svg><svg fill="none" viewBox="0 0 22 21" id="log" xmlns="http://www.w3.org/2000/svg"><path d="M21.277 10.18l.024-.031c.01-.013.02-.025.028-.038.009-.012.016-.025.024-.038.007-.012.015-.023.021-.035l.02-.04.018-.038.015-.04.014-.04c.005-.014.008-.027.01-.04l.012-.044.007-.046.006-.038a.86.86 0 000-.173L21.47 9.5l-.007-.047-.011-.043-.01-.04-.015-.041-.015-.04-.018-.037c-.006-.014-.012-.027-.02-.04l-.02-.035-.025-.039-.028-.037-.024-.031a.886.886 0 00-.059-.064l-2.685-2.625a.91.91 0 00-1.266 0 .861.861 0 000 1.237l1.157 1.131h-4.999a.885.885 0 00-.895.875c0 .483.401.875.895.875h5l-1.158 1.131a.861.861 0 000 1.238.91.91 0 001.266 0l2.685-2.625c.021-.02.04-.042.06-.064z" fill="#6F6F6F"/><path d="M15.215 12.25a.885.885 0 00-.895.875V17.5h-3.58v-14a.878.878 0 00-.638-.838L6.993 1.75h7.327v4.375c0 .483.4.875.895.875a.885.885 0 00.895-.875V.875c0-.483-.4-.875-.895-.875H.895a.91.91 0 00-.079.004.853.853 0 00-.792.669L.023.68a.87.87 0 00-.012.063l-.002.01A.858.858 0 000 .908v17.466a.88.88 0 00.72.858l8.95 1.75c.553.108 1.07-.306 1.07-.858v-.876h4.475a.885.885 0 00.895-.874v-5.25c0-.484-.4-.875-.895-.875zM8.95 19.058l-7.16-1.4V2.051l7.16 2.1v14.906z" fill="#6F6F6F"/></svg><svg fill="none" viewBox="0 0 22 21" id="log_active" xmlns="http://www.w3.org/2000/svg"><path d="M21.277 10.18l.024-.031c.01-.013.02-.025.028-.038.009-.012.016-.025.024-.038.007-.012.015-.023.021-.035l.02-.04.018-.038.015-.04.014-.04c.005-.014.008-.027.01-.04l.012-.044.007-.046.006-.038a.86.86 0 000-.173L21.47 9.5l-.007-.047-.011-.043-.01-.04-.015-.041-.015-.04-.018-.037c-.006-.014-.012-.027-.02-.04l-.02-.035-.025-.039-.028-.037-.024-.031a.886.886 0 00-.059-.064l-2.685-2.625a.91.91 0 00-1.266 0 .861.861 0 000 1.237l1.157 1.131h-4.999a.885.885 0 00-.895.875c0 .483.401.875.895.875h5l-1.158 1.131a.861.861 0 000 1.238.91.91 0 001.266 0l2.685-2.625c.021-.02.04-.042.06-.064z" fill="#FA4616"/><path d="M15.215 12.25a.885.885 0 00-.895.875V17.5h-3.58v-14a.878.878 0 00-.638-.838L6.993 1.75h7.327v4.375c0 .483.4.875.895.875a.885.885 0 00.895-.875V.875c0-.483-.4-.875-.895-.875H.895a.91.91 0 00-.079.004.853.853 0 00-.792.669L.023.68a.87.87 0 00-.012.063l-.002.01A.858.858 0 000 .908v17.466a.88.88 0 00.72.858l8.95 1.75c.553.108 1.07-.306 1.07-.858v-.876h4.475a.885.885 0 00.895-.874v-5.25c0-.484-.4-.875-.895-.875zM8.95 19.058l-7.16-1.4V2.051l7.16 2.1v14.906z" fill="#FA4616"/></svg><svg fill="none" viewBox="0 0 25 25" id="logout_lite" xmlns="http://www.w3.org/2000/svg"><path d="M17.82 7.129v-5.11a1 1 0 00-1-1H1.019m0 0v19.54a1 1 0 00.812.982l8.693 1.656a1 1 0 001.188-.983v-.828M1.018 1.019l10.009 3.336a1 1 0 01.684.949v16.082m0 0h5.11a1 1 0 001-1v-5.62M15.275 11.202h8.656m0 0l-3.055-3.055m3.055 3.055l-3.055 3.055" stroke="#585F68"/></svg><svg fill="none" viewBox="0 0 21 19" id="money" xmlns="http://www.w3.org/2000/svg"><path d="M15.71 5.457c-.627-.251-.808-.404-.808-.678 0-.22.167-.477.636-.477.415 0 .734.164.736.165a.232.232 0 00.109.028c.09 0 .171-.055.204-.14l.114-.292a.18.18 0 00-.097-.232c-.256-.111-.755-.197-.76-.198-.008-.002-.036-.008-.036-.04l-.002-.423a.234.234 0 00-.237-.232h-.205a.234.234 0 00-.236.232v.444c0 .034-.037.05-.05.052-.63.15-1.025.613-1.025 1.195 0 .727.6 1.055 1.249 1.301.518.204.73.41.73.713 0 .33-.3.56-.729.56-.366 0-.862-.233-.867-.235a.232.232 0 00-.1-.023.221.221 0 00-.21.145l-.108.295c-.039.11.02.2.097.24.305.158.894.251.92.255.007.001.043.014.043.046v.443c0 .128.106.231.237.231h.211c.131 0 .237-.103.237-.23v-.467c0-.043.033-.047.04-.049.671-.15 1.085-.642 1.085-1.26 0-.633-.352-1.043-1.177-1.369z" fill="#787878"/><path d="M15.447.332a5.553 5.553 0 100 11.106 5.553 5.553 0 000-11.106zm0 9.82a4.266 4.266 0 110-8.533 4.266 4.266 0 010 8.532zM19.872 14.13a14.131 14.131 0 01-4.425 1.508c-1.441.226-4.152-.32-4.152-.963 0-.244 2.378.6 3.816.217 1.103-.294.946-1.326.346-1.462-.596-.135-4.09-1.415-5.583-1.46-.703-.02-2.438.245-3.278.382-.288.047-.468.042-.486.317-.084 1.28-.249 3.896-.338 5.263-.002.03.038.418.358.144.351-.299.843-.63 1.298-.527.714.162 6.891 1.294 7.743 1.095 1.22-.283 4.67-2.328 5.331-2.963 1.026-.986.228-2.026-.63-1.552zM4.405 12.302l-3.236-.16a.582.582 0 00-.567.419l-.588 5.342a.353.353 0 00.341.458h3.587c.25.01.47-.187.489-.436l.394-5.147a.441.441 0 00-.42-.476zM2.5 17.653a.895.895 0 110-1.79.895.895 0 010 1.79z" fill="#787878"/></svg><svg fill="none" viewBox="0 0 27 17" id="msg" xmlns="http://www.w3.org/2000/svg"><path d="M.443.533H0v15.934h27V.533H.443zm24.81.885l-11.97 9.176-11.57-9.176h23.54zM.885 1.892L8.841 8.2.885 15.059V1.892zm.749 13.69L9.546 8.76l3.457 2.744c.16.126.384.127.545.004l3.592-2.754 8.195 6.827H1.634zm24.48-.503L17.86 8.201l8.255-6.328v13.206z" fill="#585F68"/></svg><svg fill="none" viewBox="0 0 22 21" id="msg_menu" xmlns="http://www.w3.org/2000/svg"><path d="M20.563.07L.348 9.991c-.204.1-.337.3-.346.523a.612.612 0 00.298.55l4.735 2.849v6.47c0 .265.173.5.43.584a.638.638 0 00.703-.214l3.236-4.212 7.258 4.367c.176.106.394.12.583.039a.618.618 0 00.365-.448L21.469.734a.657.657 0 00.003-.02c.083-.498-.452-.875-.91-.645zM5.632 12.827l-3.71-2.232 14.806-7.268-11.096 9.5zm.662 5.713v-4.645l10.423-8.923L6.294 18.541zm10.25.852l-6.382-3.84 9.562-12.445-3.18 16.285z" fill="#6F6F6F"/></svg><svg fill="none" viewBox="0 0 22 21" id="msg_menu_active" xmlns="http://www.w3.org/2000/svg"><path d="M20.563.07L.348 9.991c-.204.1-.337.3-.346.523a.612.612 0 00.298.55l4.735 2.849v6.47c0 .265.173.5.43.584a.638.638 0 00.703-.214l3.236-4.212 7.258 4.367c.176.106.394.12.583.039a.618.618 0 00.365-.448L21.469.734a.657.657 0 00.003-.02c.083-.498-.452-.875-.91-.645zM5.632 12.827l-3.71-2.232 14.806-7.268-11.096 9.5zm.662 5.713v-4.645l10.423-8.923L6.294 18.541zm10.25.852l-6.382-3.84 9.562-12.445-3.18 16.285z" fill="#FA4616"/></svg><svg fill="none" viewBox="0 0 21 20" id="portfel" xmlns="http://www.w3.org/2000/svg"><path d="M20.389 3.555h-5.582v-.586c0-.97-.828-1.758-1.846-1.758H8.039c-1.018 0-1.846.789-1.846 1.758v.586H.615c-.342 0-.615.267-.615.586v12.89c0 .97.828 1.758 1.846 1.758h17.308C20.172 18.79 21 18 21 17.031V4.153v-.002c-.024-.385-.272-.594-.611-.596zM7.424 2.969c0-.323.276-.586.615-.586h4.922c.34 0 .615.263.615.586v.586H7.424v-.586zM19.53 4.727l-1.91 5.458a.612.612 0 01-.584.4h-3.46V10c0-.324-.276-.586-.616-.586H8.039c-.34 0-.615.262-.615.586v.586H3.963c-.265 0-.5-.161-.584-.4l-1.91-5.46H19.53zm-7.185 5.859v1.172H8.654v-1.172h3.692zm7.424 6.445c0 .323-.276.586-.616.586H1.846c-.34 0-.616-.263-.616-.586v-9.28l.982 2.805c.252.719.955 1.202 1.751 1.202h3.46v.586c0 .323.276.586.616.586h4.922c.34 0 .615-.263.615-.586v-.586h3.461c.796 0 1.5-.483 1.75-1.202l.983-2.805v9.28z" fill="#8A8A8A"/></svg><svg fill="none" viewBox="0 0 18 18" id="project" xmlns="http://www.w3.org/2000/svg"><path d="M8.965 13.852a.703.703 0 00.703-.704V7.384a.703.703 0 00-1.134-.556l-1.406 1.09a.703.703 0 10.861 1.111l.273-.21v4.33c0 .389.315.704.703.704z" fill="#787878"/><path d="M17.297 8.79A.703.703 0 0018 8.085V4.219a2.816 2.816 0 00-2.813-2.813h-.914V.703a.703.703 0 10-1.406 0v.703h-3.2V.703a.703.703 0 10-1.405 0v.703H5.098V.703a.703.703 0 10-1.407 0v.703h-.879A2.816 2.816 0 000 4.22v10.968A2.816 2.816 0 002.812 18h8.86a.72.72 0 00.07-.004.705.705 0 00.577-.211l5.484-5.696a.703.703 0 00-.506-1.19h-3.375a2.816 2.816 0 00-2.813 2.812v2.883H2.812c-.775 0-1.406-.631-1.406-1.407V4.22c0-.776.631-1.407 1.406-1.407h.88v.704a.703.703 0 101.406 0v-.704h3.164v.704a.703.703 0 101.406 0v-.704h3.2v.704a.703.703 0 101.405 0v-.704h.915c.775 0 1.406.631 1.406 1.407v3.867c0 .388.314.703.703.703zm-4.781 4.92c0-.775.63-1.405 1.406-1.405h1.722l-3.128 3.248v-1.842z" fill="#787878"/></svg><svg fill="none" viewBox="0 0 28 28" id="ref" xmlns="http://www.w3.org/2000/svg"><g clip-path="url(#axclip0)" fill="#6E6E6E"><path d="M18.195 4.186a.85.85 0 00-1.07-.546l-3.557 1.156a.85.85 0 00-.545 1.07l.177.548-9.045 6.644-3.568 1.159a.85.85 0 00-.545 1.071L2.21 21.96a.85.85 0 001.07.546l3.568-1.16 1.833.01a3.85 3.85 0 003.76 3.046 3.85 3.85 0 003.75-3.006l1.88.01.178.547a.85.85 0 001.07.545l3.557-1.155a.85.85 0 00.546-1.071L18.195 4.186zM3.563 20.626L1.921 15.57l2.081-.676 1.642 5.054-2.08.676zm8.878 2.075a2.146 2.146 0 01-1.985-1.337l3.962.021a2.146 2.146 0 01-1.977 1.316zm-5.107-3.053l-.894-2.751-.894-2.752 8.207-6.028 2.517 7.746 1.248 3.839-10.184-.054zm12.269.97l-.104-.321v-.002l-2.246-6.911-2.351-7.234 1.94-.63 4.7 14.468-1.94.63zM21.057 8.318a.85.85 0 001.143-.371l1.526-2.994a.85.85 0 10-1.515-.772l-1.525 2.993a.85.85 0 00.37 1.144zM27.445 16.4l-2.993-1.525a.85.85 0 00-.772 1.515l2.994 1.525a.847.847 0 001.143-.372.85.85 0 00-.372-1.143zM23.147 11.47a.85.85 0 001.071.545l3.195-1.038a.85.85 0 00-.526-1.617l-3.194 1.038a.85.85 0 00-.546 1.071z"/></g><defs><clipPath id="axclip0"><path fill="#fff" d="M0 0h28v28H0z"/></clipPath></defs></svg><svg fill="none" viewBox="0 0 28 28" id="ref_active" xmlns="http://www.w3.org/2000/svg"><g clip-path="url(#ayclip0)" fill="#FA4616"><path d="M18.195 4.186a.85.85 0 00-1.07-.546l-3.557 1.156a.85.85 0 00-.545 1.07l.177.548-9.045 6.644-3.568 1.159a.85.85 0 00-.545 1.071L2.21 21.96a.85.85 0 001.07.546l3.568-1.16 1.833.01a3.85 3.85 0 003.76 3.046 3.85 3.85 0 003.75-3.006l1.88.01.178.547a.85.85 0 001.07.545l3.557-1.155a.85.85 0 00.546-1.071L18.195 4.186zM3.563 20.626L1.921 15.57l2.081-.676 1.642 5.054-2.08.676zm8.878 2.075a2.146 2.146 0 01-1.985-1.337l3.962.021a2.146 2.146 0 01-1.977 1.316zm-5.107-3.053l-.894-2.751-.894-2.752 8.207-6.028 2.517 7.746 1.248 3.839-10.184-.054zm12.269.97l-.104-.321v-.002l-2.246-6.911-2.351-7.234 1.94-.63 4.7 14.468-1.94.63zM21.057 8.318a.85.85 0 001.143-.371l1.526-2.994a.85.85 0 10-1.515-.772l-1.525 2.993a.85.85 0 00.37 1.144zM27.445 16.4l-2.993-1.525a.85.85 0 00-.772 1.515l2.994 1.525a.847.847 0 001.143-.372.85.85 0 00-.372-1.143zM23.147 11.47a.85.85 0 001.071.545l3.195-1.038a.85.85 0 00-.526-1.617l-3.194 1.038a.85.85 0 00-.546 1.071z"/></g><defs><clipPath id="ayclip0"><path fill="#fff" d="M0 0h28v28H0z"/></clipPath></defs></svg><svg fill="none" viewBox="0 0 22 21" id="set" xmlns="http://www.w3.org/2000/svg"><g clip-path="url(#azclip0)" fill="#6F6F6F"><path d="M10.74 7.219c-1.85 0-3.356 1.472-3.356 3.281 0 1.81 1.505 3.281 3.356 3.281 1.85 0 3.356-1.472 3.356-3.281 0-1.81-1.505-3.281-3.356-3.281zm0 4.922c-.925 0-1.678-.736-1.678-1.641s.753-1.64 1.678-1.64c.925 0 1.678.735 1.678 1.64 0 .905-.753 1.64-1.678 1.64z"/><path d="M21.068 12.946l-2.173-1.628a7.556 7.556 0 000-1.636l2.173-1.628a.808.808 0 00.212-1.068L19.176 3.5a.849.849 0 00-1.03-.346l-2.578.993a8.253 8.253 0 00-1.506-.835l-.387-2.61a.833.833 0 00-.83-.702H8.635c-.417 0-.77.3-.83.703l-.387 2.61a8.256 8.256 0 00-1.506.834l-2.578-.993a.849.849 0 00-1.03.347L.2 6.986a.808.808 0 00.212 1.068l2.173 1.628a7.561 7.561 0 000 1.636L.413 12.946A.808.808 0 00.2 14.014L2.305 17.5a.849.849 0 001.03.346l2.578-.993c.47.33.974.609 1.506.834l.387 2.61c.06.404.413.703.83.703h4.208c.417 0 .77-.3.83-.703l.388-2.61a8.25 8.25 0 001.506-.834l2.578.993c.384.148.82 0 1.03-.346l2.104-3.486a.808.808 0 00-.212-1.068zm-2.973 3.117l-2.352-.906a.854.854 0 00-.836.127 6.58 6.58 0 01-1.893 1.046.825.825 0 00-.544.654l-.352 2.375H9.362l-.352-2.376a.825.825 0 00-.544-.653 6.58 6.58 0 01-1.893-1.046.855.855 0 00-.836-.127l-2.351.906-1.362-2.257 1.97-1.476a.811.811 0 00.316-.79 5.978 5.978 0 010-2.08.811.811 0 00-.316-.79l-1.97-1.476 1.362-2.257 2.351.906c.282.108.601.06.836-.127A6.58 6.58 0 018.466 4.67c.29-.103.5-.354.544-.654l.352-2.375h2.756l.352 2.375c.045.3.254.55.544.654a6.58 6.58 0 011.893 1.046.854.854 0 00.836.127l2.352-.906 1.362 2.257-1.97 1.476a.811.811 0 00-.317.79c.124.7.12 1.402 0 2.08-.053.3.07.605.317.79l1.97 1.476-1.362 2.257z"/></g><defs><clipPath id="azclip0"><path fill="#fff" d="M0 0h21.48v21H0z"/></clipPath></defs></svg><svg fill="none" viewBox="0 0 22 21" id="set_active" xmlns="http://www.w3.org/2000/svg"><g clip-path="url(#baclip0)" fill="#FA4616"><path d="M10.74 7.219c-1.85 0-3.356 1.472-3.356 3.281 0 1.81 1.505 3.281 3.356 3.281 1.85 0 3.356-1.472 3.356-3.281 0-1.81-1.505-3.281-3.356-3.281zm0 4.922c-.925 0-1.678-.736-1.678-1.641s.753-1.64 1.678-1.64c.925 0 1.678.735 1.678 1.64 0 .905-.753 1.64-1.678 1.64z"/><path d="M21.068 12.946l-2.173-1.628a7.556 7.556 0 000-1.636l2.173-1.628a.808.808 0 00.212-1.068L19.176 3.5a.849.849 0 00-1.03-.346l-2.578.993a8.253 8.253 0 00-1.506-.835l-.387-2.61a.833.833 0 00-.83-.702H8.635c-.417 0-.77.3-.83.703l-.387 2.61a8.256 8.256 0 00-1.506.834l-2.578-.993a.849.849 0 00-1.03.347L.2 6.986a.808.808 0 00.212 1.068l2.173 1.628a7.561 7.561 0 000 1.636L.413 12.946A.808.808 0 00.2 14.014L2.305 17.5a.849.849 0 001.03.346l2.578-.993c.47.33.974.609 1.506.834l.387 2.61c.06.404.413.703.83.703h4.208c.417 0 .77-.3.83-.703l.388-2.61a8.25 8.25 0 001.506-.834l2.578.993c.384.148.82 0 1.03-.346l2.104-3.486a.808.808 0 00-.212-1.068zm-2.973 3.117l-2.352-.906a.854.854 0 00-.836.127 6.58 6.58 0 01-1.893 1.046.825.825 0 00-.544.654l-.352 2.375H9.362l-.352-2.376a.825.825 0 00-.544-.653 6.58 6.58 0 01-1.893-1.046.855.855 0 00-.836-.127l-2.351.906-1.362-2.257 1.97-1.476a.811.811 0 00.316-.79 5.978 5.978 0 010-2.08.811.811 0 00-.316-.79l-1.97-1.476 1.362-2.257 2.351.906c.282.108.601.06.836-.127A6.58 6.58 0 018.466 4.67c.29-.103.5-.354.544-.654l.352-2.375h2.756l.352 2.375c.045.3.254.55.544.654a6.58 6.58 0 011.893 1.046.854.854 0 00.836.127l2.352-.906 1.362 2.257-1.97 1.476a.811.811 0 00-.317.79c.124.7.12 1.402 0 2.08-.053.3.07.605.317.79l1.97 1.476-1.362 2.257z"/></g><defs><clipPath id="baclip0"><path fill="#fff" d="M0 0h21.48v21H0z"/></clipPath></defs></svg><svg fill="none" viewBox="0 0 24 24" id="work" xmlns="http://www.w3.org/2000/svg"><path d="M23.296 0c-5.033.005-9.964 2.124-13.53 5.813L8.498 7.081 7.15 5.733 3.17 6.856 0 10.026l2.776 2.777.143.143-1.305 2.694.86.861L.37 18.606l.995.995 2.105-2.105 1.018 1.018-4.458 4.458.994.994 4.458-4.458L6.5 20.526l-2.106 2.106.995.994 2.105-2.105.86.86 2.695-1.305 2.92 2.92 3.17-3.171 1.127-3.976-1.352-1.352 1.268-1.268a19.314 19.314 0 004.215-6.044C24.294 3.895 23.957.45 24 0h-.704zM3.905 8.11l2.833-.8.765.765L3.77 11.81 1.99 10.027 3.906 8.11zm4.736 12.57l-5.326-5.327L3.972 14l6.024 6.024-1.354.657zm8.046-3.42l-.802 2.83-1.918 1.916-1.781-1.781 3.733-3.733.768.768zm.514-4.039l-1.282 1.282-4.728 4.727-6.427-6.427 4.728-4.728 1.28-1.28c3.133-3.243 7.4-5.177 11.804-5.372-.195 4.407-2.13 8.672-5.375 11.798z" fill="#6F6F6F"/><path d="M17.229 11.3a3.211 3.211 0 00.002-4.536 3.183 3.183 0 00-2.266-.937 3.2 3.2 0 00-3.206 3.204c0 .858.333 1.663.938 2.267a3.212 3.212 0 004.532.002zm-2.264-4.067c.48 0 .933.187 1.271.526.702.701.7 1.844-.002 2.547a1.78 1.78 0 01-1.269.522c-1.006 0-1.8-.807-1.8-1.797 0-.481.815-1.798 1.8-1.798z" fill="#6F6F6F"/></svg><svg fill="none" viewBox="0 0 24 24" id="work_active" xmlns="http://www.w3.org/2000/svg"><path d="M23.296 0c-5.033.005-9.964 2.124-13.53 5.813L8.498 7.081 7.15 5.733 3.17 6.856 0 10.026l2.776 2.777.143.143-1.305 2.694.86.861L.37 18.606l.995.995 2.105-2.105 1.018 1.018-4.458 4.458.994.994 4.458-4.458L6.5 20.526l-2.106 2.106.995.994 2.105-2.105.86.86 2.695-1.305 2.92 2.92 3.17-3.171 1.127-3.976-1.352-1.352 1.268-1.268a19.314 19.314 0 004.215-6.044C24.294 3.895 23.957.45 24 0h-.704zM3.905 8.11l2.833-.8.765.765L3.77 11.81 1.99 10.027 3.906 8.11zm4.736 12.57l-5.326-5.327L3.972 14l6.024 6.024-1.354.657zm8.046-3.42l-.802 2.83-1.918 1.916-1.781-1.781 3.733-3.733.768.768zm.514-4.039l-1.282 1.282-4.728 4.727-6.427-6.427 4.728-4.728 1.28-1.28c3.133-3.243 7.4-5.177 11.804-5.372-.195 4.407-2.13 8.672-5.375 11.798z" fill="#FA4616"/><path d="M17.229 11.3a3.211 3.211 0 00.002-4.536 3.183 3.183 0 00-2.266-.937 3.2 3.2 0 00-3.206 3.204c0 .858.333 1.663.938 2.267a3.212 3.212 0 004.532.002zm-2.264-4.067c.48 0 .933.187 1.271.526.702.701.7 1.844-.002 2.547a1.78 1.78 0 01-1.269.522c-1.006 0-1.8-.807-1.8-1.797 0-.481.815-1.798 1.8-1.798z" fill="#FA4616"/></svg></svg>